<svg id="svg1" xmlns="http://www.w3.org/2000/svg" xmlns:xlink="http://www.w3.org/1999/xlink" viewBox="0 0 1024 768">
  <defs>
    <radialGradient id="radial-gradient" cx="1417.3" cy="13867.2" r="163.22" gradientTransform="matrix(0.91, 0.4, -0.1, 0.18, 818.95, -2905.21)" gradientUnits="userSpaceOnUse">
      <stop offset="0.1" stop-color="#3498db" stop-opacity="0.4"/>
      <stop offset="0.8" stop-color="#3498db" stop-opacity="0.06"/>
      <stop offset="0.91" stop-color="#3498db" stop-opacity="0"/>
    </radialGradient>
  </defs>
  <title>Artboard 1</title>
  <g id="bg">
    <rect x="-7087.43" y="-7260.67" width="16291.8" height="14784" fill="#1e439c"/>
  </g>
  <path id="wire1" d="M18.27-45.07c45.9,59.7,97.6,127.8,180.5,125.9,65.6-1.5,127.1-41.7,193.4-31.3,67.3,10.6,116.7,71.3,167.2,111.7,53.2,42.6,112.2,66.4,172,97.3,46,23.8,69.2,58.5,77.5,109.3,5.8,35.4-.1,84.2,22.4,114.6,29.1,39.5,157,60,101,134.8-53,70.9-150.8,81.9-210.6,115.8-16.1,9.1-52.32,35.4-52.57,35.4" fill="none" stroke="#dbdbdb" stroke-miterlimit="10" style="isolation: isolate"/>
  <g id="introduction">
    <g id="macbook">
      <path d="M969.47,278.83l-342.2-155.9s-8.2-3.7-11.9,4.5,4.5,11.9,4.5,11.9l24.6,11.2s-8.2-3.7-11.9,4.5c-4.7,10.3-4.7,10.2-77.5,170.2-3.9,8.5.8,19,9.3,22.9L842,474.53a17,17,0,0,0,22.5-8.4s59.1-129.8,74.2-162.9h0c.1-.2.6-1.3,3.3-7.3,3.7-8.2-4.5-11.9-4.5-11.9l24.6,11.2s8.2,3.7,11.9-4.5S969.47,278.83,969.47,278.83Z" fill="#2980b9" opacity="0.8" style="isolation: isolate"/>
      <g>
        <path d="M871.37,464.13a17,17,0,0,1-22.5,8.4l-277.6-126.4c-8.5-3.9-13.2-14.4-9.3-22.9,0,0,73.8-162,77.5-170.2s11.9-4.5,11.9-4.5l293,133.5s8.2,3.7,4.5,11.9S871.37,464.13,871.37,464.13Z" fill="#e6e9ed"/>
        <path d="M944.57,301.23l-364.2-20.6s54.4-119.4,58.1-127.6,11.9-4.5,11.9-4.5l293,133.5s8.2,3.7,4.5,11.9S944.57,301.23,944.57,301.23Z" fill="#b7bfc7" opacity="0.3" style="isolation: isolate"/>
        <rect x="790.45" y="138.58" width="9" height="161.89" transform="translate(265.65 851.96) rotate(-65.51)" fill="#dce4e8"/>
        <polygon id="mbplight" points="960.37 328.03 625.67 177.53 669.77 137.73 968.87 274.13 960.37 328.03" fill="url(#radial-gradient)"/>
        <path d="M968,293.23l-342.2-155.9s-8.2-3.7-4.5-11.9,11.9-4.5,11.9-4.5l342.3,155.9s8.2,3.7,4.5,11.9S968,293.23,968,293.23Z" fill="#ccd1d9"/>
        <rect x="700.87" y="327.96" width="46" height="92.9" transform="translate(83.09 877.96) rotate(-65.51)" fill="#f5f7fa" stroke="#ccd1d9" stroke-miterlimit="10"/>
        <g>
          <rect x="674.63" y="196.13" width="12" height="18" transform="translate(211.84 739.52) rotate(-65.51)" fill="#3b3b3b" stroke="#c1c1c1" stroke-miterlimit="10"/>
          <rect x="663.12" y="215.82" width="17" height="18" transform="translate(188.62 742.83) rotate(-65.51)" fill="#3b3b3b" stroke="#c1c1c1" stroke-miterlimit="10"/>
          <rect x="657.23" y="235.1" width="19" height="30" transform="translate(162.76 753.17) rotate(-65.51)" fill="#3b3b3b" stroke="#c1c1c1" stroke-miterlimit="10"/>
          <rect x="654.33" y="253.04" width="17" height="43" transform="translate(138.25 763.97) rotate(-65.51)" fill="#3b3b3b" stroke="#c1c1c1" stroke-miterlimit="10"/>
          <rect x="685.53" y="225.41" width="17" height="19" transform="translate(192.56 769.13) rotate(-65.51)" fill="#3b3b3b" stroke="#c1c1c1" stroke-miterlimit="10"/>
          <rect x="685.04" y="253.1" width="19" height="19" transform="translate(167.67 785.8) rotate(-65.51)" fill="#3b3b3b" stroke="#c1c1c1" stroke-miterlimit="10"/>
          <rect x="687.81" y="280.41" width="17" height="19" transform="translate(143.85 803.41) rotate(-65.51)" fill="#3b3b3b" stroke="#c1c1c1" stroke-miterlimit="10"/>
          <rect x="709.34" y="290.61" width="17" height="18" transform="translate(147.62 828.68) rotate(-65.51)" fill="#3b3b3b" stroke="#c1c1c1" stroke-miterlimit="10"/>
          <rect x="732.14" y="300.93" width="17" height="18" transform="translate(151.6 855.5) rotate(-65.51)" fill="#3b3b3b" stroke="#c1c1c1" stroke-miterlimit="10"/>
          <rect x="753.91" y="311" width="17" height="18" transform="translate(155.16 881.18) rotate(-65.51)" fill="#3b3b3b" stroke="#c1c1c1" stroke-miterlimit="10"/>
          <rect x="776.74" y="321.23" width="17" height="18" transform="translate(159.24 907.97) rotate(-65.51)" fill="#3b3b3b" stroke="#c1c1c1" stroke-miterlimit="10"/>
          <rect x="798.12" y="330.46" width="17" height="19" transform="translate(162.91 933.13) rotate(-65.51)" fill="#3b3b3b" stroke="#c1c1c1" stroke-miterlimit="10"/>
          <rect x="831.73" y="333.79" width="17" height="43" transform="translate(168.61 972.66) rotate(-65.51)" fill="#3b3b3b" stroke="#c1c1c1" stroke-miterlimit="10"/>
          <rect x="707.3" y="263.93" width="19" height="18" transform="translate(171.3 812.11) rotate(-65.51)" fill="#3b3b3b" stroke="#c1c1c1" stroke-miterlimit="10"/>
          <rect x="729.61" y="273.61" width="19" height="19" transform="translate(175.09 838.37) rotate(-65.51)" fill="#3b3b3b" stroke="#c1c1c1" stroke-miterlimit="10"/>
          <rect x="751.98" y="284.02" width="19" height="18" transform="translate(179.24 864.61) rotate(-65.52)" fill="#3b3b3b" stroke="#c1c1c1" stroke-miterlimit="10"/>
          <rect x="774.24" y="293.69" width="19" height="19" transform="translate(182.95 890.74) rotate(-65.51)" fill="#3b3b3b" stroke="#c1c1c1" stroke-miterlimit="10"/>
          <rect x="796.5" y="304.5" width="19" height="18" transform="translate(186.6 917.04) rotate(-65.51)" fill="#3b3b3b" stroke="#c1c1c1" stroke-miterlimit="10"/>
          <rect x="818.8" y="314.11" width="19" height="19" transform="translate(190.45 943.25) rotate(-65.51)" fill="#3b3b3b" stroke="#c1c1c1" stroke-miterlimit="10"/>
          <rect x="846.63" y="321.25" width="19" height="30" transform="translate(195.28 976.01) rotate(-65.51)" fill="#3b3b3b" stroke="#c1c1c1" stroke-miterlimit="10"/>
          <rect x="708.13" y="235.89" width="17" height="19" transform="translate(196.26 795.83) rotate(-65.51)" fill="#3b3b3b" stroke="#c1c1c1" stroke-miterlimit="10"/>
          <rect x="729.71" y="246.23" width="17" height="18" transform="translate(199.94 821.23) rotate(-65.51)" fill="#3b3b3b" stroke="#c1c1c1" stroke-miterlimit="10"/>
          <rect x="752.43" y="256.33" width="17" height="18" transform="translate(204.08 847.85) rotate(-65.51)" fill="#3b3b3b" stroke="#c1c1c1" stroke-miterlimit="10"/>
          <rect x="774.43" y="266.37" width="17" height="18" transform="translate(207.82 873.75) rotate(-65.51)" fill="#3b3b3b" stroke="#c1c1c1" stroke-miterlimit="10"/>
          <rect x="796.86" y="276.81" width="17" height="18" transform="translate(211.51 900.32) rotate(-65.52)" fill="#3b3b3b" stroke="#c1c1c1" stroke-miterlimit="10"/>
          <rect x="818.43" y="285.86" width="17" height="19" transform="translate(215.38 925.5) rotate(-65.51)" fill="#3b3b3b" stroke="#c1c1c1" stroke-miterlimit="10"/>
          <rect x="852.12" y="289.33" width="17" height="43" transform="translate(221.03 965.21) rotate(-65.51)" fill="#3b3b3b" stroke="#c1c1c1" stroke-miterlimit="10"/>
          <rect x="632.03" y="282.26" width="19" height="18" transform="translate(110.57 754.37) rotate(-65.51)" fill="#3b3b3b" stroke="#c1c1c1" stroke-miterlimit="10"/>
          <rect x="654.21" y="292.02" width="19" height="19" transform="translate(114.2 780.54) rotate(-65.51)" fill="#3b3b3b" stroke="#c1c1c1" stroke-miterlimit="10"/>
          <rect id="spacebar" x="721.06" y="273.96" width="19" height="115.89" transform="translate(125.68 859.17) rotate(-65.51)" fill="#3b3b3b" stroke="#c1c1c1" stroke-miterlimit="10"/>
          <rect x="787.13" y="352.36" width="19" height="19" transform="translate(137.13 936.86) rotate(-65.51)" fill="#3b3b3b" stroke="#c1c1c1" stroke-miterlimit="10"/>
          <rect x="809.91" y="362.74" width="19" height="19" transform="translate(141.01 963.66) rotate(-65.51)" fill="#3b3b3b" stroke="#c1c1c1" stroke-miterlimit="10"/>
          <rect x="832.12" y="373.44" width="19" height="18" transform="translate(144.74 989.85) rotate(-65.51)" fill="#3b3b3b" stroke="#c1c1c1" stroke-miterlimit="10"/>
          <rect x="696.9" y="205.91" width="12" height="19" transform="translate(215.51 765.79) rotate(-65.51)" fill="#3b3b3b" stroke="#c1c1c1" stroke-miterlimit="10"/>
          <rect x="719.7" y="216.24" width="12" height="19" transform="translate(219.48 792.61) rotate(-65.51)" fill="#3b3b3b" stroke="#c1c1c1" stroke-miterlimit="10"/>
          <rect x="741.02" y="226.52" width="12" height="18" transform="translate(223.04 817.7) rotate(-65.51)" fill="#3b3b3b" stroke="#c1c1c1" stroke-miterlimit="10"/>
          <rect x="763.71" y="236.91" width="12" height="18" transform="translate(226.86 844.44) rotate(-65.51)" fill="#3b3b3b" stroke="#c1c1c1" stroke-miterlimit="10"/>
          <rect x="785.75" y="246.74" width="12" height="18" transform="translate(230.84 870.28) rotate(-65.51)" fill="#3b3b3b" stroke="#c1c1c1" stroke-miterlimit="10"/>
          <rect x="808.44" y="257.14" width="12" height="18" transform="translate(234.67 897.02) rotate(-65.51)" fill="#3b3b3b" stroke="#c1c1c1" stroke-miterlimit="10"/>
          <rect x="829.91" y="266.45" width="12" height="19" transform="translate(238.31 922.3) rotate(-65.51)" fill="#3b3b3b" stroke="#c1c1c1" stroke-miterlimit="10"/>
          <rect x="852.51" y="276.82" width="12" height="19" transform="translate(242.08 948.92) rotate(-65.51)" fill="#3b3b3b" stroke="#c1c1c1" stroke-miterlimit="10"/>
          <rect x="874.69" y="287.51" width="12" height="18" transform="translate(245.72 975) rotate(-65.51)" fill="#3b3b3b" stroke="#c1c1c1" stroke-miterlimit="10"/>
        </g>
      </g>
    </g>
    <g id="bevanda">
      <circle cx="419.57" cy="136.73" r="50.6" fill="#2980b9" opacity="0.8" style="isolation: isolate"/>
      <circle cx="424.57" cy="134.73" r="50.6" fill="#e6e9ed"/>
      <path d="M424.57,93a41.69,41.69,0,1,1-41.7,41.7A41.74,41.74,0,0,1,424.57,93Z" fill="#e74c3c"/>
      <path id="linecover1" d="M424.57,92a42.69,42.69,0,1,1-42.7,42.7A42.68,42.68,0,0,1,424.57,92Z" fill="#e6e9ed"/>
      <ellipse cx="410.71" cy="166.83" rx="7.7" ry="11.6" transform="translate(196.43 554.9) rotate(-83.2)" fill="#d8d8da"/>
      <polygon points="361.37 156.93 402.27 163.93 401.77 167.43 360.47 164.63 361.37 156.93" fill="#ccd1d9"/>
      <ellipse cx="410.71" cy="166.83" rx="6.4" ry="9.6" transform="translate(196.43 554.9) rotate(-83.2)" fill="#aab2bd"/>
      <path d="M397.27,91.83l9.7,12.5a4.87,4.87,0,0,1-.8,6.7,4.74,4.74,0,0,1-6.6-.8l-9.7-12.5a4.87,4.87,0,0,1,.8-6.7A4.75,4.75,0,0,1,397.27,91.83Z" fill="#fff"/>
      <circle cx="424.57" cy="134.73" r="34.8" fill="#fff"/>
      <circle cx="424.57" cy="134.73" r="31.3" fill="#e6e7e8"/>
      <circle cx="424.57" cy="134.73" r="29.6" fill="#49433c"/>
      <path d="M403.37,151.23a26.88,26.88,0,0,0,37.7,4.7,1.57,1.57,0,1,0-1.9-2.5l-.9.6-.2.2a9.22,9.22,0,0,1-.8.5c-.1.1-.2.1-.3.2l-.6.3c-.1.1-.3.1-.4.2a2.51,2.51,0,0,0-.7.4,2.19,2.19,0,0,0-.5.3c-.1.1-.3.1-.4.2s-.3.2-.5.2-.5.2-.7.3-.3.1-.5.2-.3.1-.5.2a.6.6,0,0,1-.4.1,2.92,2.92,0,0,1-.9.2c-.1,0-.2.1-.3.1s-.5.1-.8.2c-.1,0-.2,0-.2.1-.3.1-.7.1-1,.2h-.1c-.2,0-.4.1-.6.1a.6.6,0,0,0-.4.1h-.1a16.2,16.2,0,0,1-2.2.1h0a16.2,16.2,0,0,1-2.2-.1h-.1c-.3,0-.7-.1-1-.1h-.1c-.3,0-.6-.1-.9-.1a.6.6,0,0,1-.4-.1,4.33,4.33,0,0,1-.5-.1,13.32,13.32,0,0,1-1.9-.5h0a23.39,23.39,0,0,1-9.2-5.2h-.1l-.4-.4-.4-.4-.4-.4a4.35,4.35,0,0,1-.6-.7c-.1-.1-.1-.2-.2-.2-.2-.3-.5-.5-.7-.8l-.6-.9c-.1-.1-.1-.2-.2-.3s-.3-.5-.5-.7-.2-.3-.3-.4-.2-.3-.3-.4a2.19,2.19,0,0,0-.3-.5V146a24.75,24.75,0,0,1-2.8-10.3h0v-2.9c0-.3.1-.6.1-1v-.1c0-.3.1-.7.1-1v-.1a22.5,22.5,0,0,1,.5-2.2h0a17.23,17.23,0,0,1,.7-2.1v-.1c.1-.1.1-.3.2-.4a1.42,1.42,0,0,0,.2-.6v-.1c.1-.3.3-.6.4-.9,0-.1.1-.1.1-.2a2.51,2.51,0,0,1,.4-.7c.1-.1.1-.2.2-.3.1-.3.3-.5.4-.8.1-.1.2-.3.3-.4s.2-.3.3-.4.2-.3.3-.4.3-.4.5-.6.2-.3.3-.4l.3-.3c.1-.2.3-.3.4-.5s.3-.4.5-.6l.3-.3.5-.5c.1-.1.1-.2.2-.2a4.62,4.62,0,0,0,.7-.7l.2-.2c.3-.2.5-.5.8-.7a1.57,1.57,0,0,0-1.9-2.5A26.88,26.88,0,0,0,403.37,151.23Z" fill="#363532"/>
      <path d="M413.27,112a1.54,1.54,0,0,0,2.1.8l.6-.3h.1c.2-.1.4-.1.6-.2h0c.1,0,.1,0,.2-.1h0c.2-.1.4-.1.6-.2h0c.4-.1.9-.3,1.4-.4h.2l1.3-.3a.37.37,0,0,0,.3-.1h0a.6.6,0,0,0,.4-.1h.2a1.45,1.45,0,0,1,1.4.6,1.14,1.14,0,0,1,.3.8,1.59,1.59,0,0,1-1.3,1.8h0a27.44,27.44,0,0,0-3.9.9h-.1a6.12,6.12,0,0,0-1.2.5,1.62,1.62,0,0,0-.8,2.1,1.54,1.54,0,0,0,2.1.8,18.1,18.1,0,0,1,6.9-1.4h2.2a1.46,1.46,0,0,1,.9.6,1.56,1.56,0,0,1,.3,1.2,1.59,1.59,0,0,1-1.8,1.4,13.5,13.5,0,0,0-7.2,1H419a1.59,1.59,0,1,0,1.3,2.9,11.07,11.07,0,0,1,13.1,16.9,1.57,1.57,0,0,0,2.5,1.9l.2-.2a14.13,14.13,0,0,0,2.6-6.6,1.59,1.59,0,0,1,1.8-1.4,2.38,2.38,0,0,1,1.1.6,1.43,1.43,0,0,1,.3,1.1v.1h0a.37.37,0,0,1-.1.3v.3c0,.1-.1.3-.1.4a.37.37,0,0,1-.1.3c0,.2-.1.3-.1.5v.2a18.32,18.32,0,0,1-3,6.3,1.57,1.57,0,0,0,2.5,1.9c.3-.4.5-.7.8-1.1h0v-.1h0a23.7,23.7,0,0,0,1.9-3.5h0a1.63,1.63,0,0,1,2.1-.9,1,1,0,0,1,.6.5,1.6,1.6,0,0,1,.2,1.5c0,.1,0,.1-.1.2a1.42,1.42,0,0,0-.2.6c0,.1-.1.2-.1.3l-.3.6a.35.35,0,0,1-.1.2l-.3.6c0,.1-.1.1-.1.2a3.51,3.51,0,0,1-.5.8v.1h0a2.09,2.09,0,0,1-.4.6l-.1.1h0c-.1.1-.1.2-.2.3s-.1.1-.1.2l-.1.1c-.1.2-.3.4-.4.6a1.57,1.57,0,0,0,2.5,1.9,26.87,26.87,0,0,0-31.8-41A2,2,0,0,0,413.27,112Zm33,32.4a.35.35,0,0,1-.1.2C446.17,144.53,446.17,144.43,446.27,144.43Zm-.4.8c0,.1-.1.1-.1.2A.31.31,0,0,1,445.87,145.23Zm-.5.9-.1.1A.1.1,0,0,0,445.37,146.13Zm1.1-2.4a.1.1,0,0,1,.1-.1l-.1.1Z" fill="#363532"/>
      <path d="M443.47,149.13h0a2.09,2.09,0,0,0,.4-.6C443.77,148.73,443.57,148.93,443.47,149.13Z" fill="#363532"/>
    </g>
    <g id="mouse">
      <path d="M975.77,484.13h0a22.15,22.15,0,0,0-30.9,4.6l-.1.1-.1.2-24.6,33.3a.76.76,0,0,0-.2.4l-1.3,1.8h0a22.07,22.07,0,0,0,35.6,26.1l26.2-35.5A22.16,22.16,0,0,0,975.77,484.13Z" fill="#2980b9" opacity="0.8" style="isolation: isolate"/>
      <g>
        <path d="M950.67,487.93h0l-.2.3-24.6,33.3c-.1.1-.1.2-.2.3l-1.2,1.6h0a22,22,0,0,0,4.7,30.9l52.4-70.9A22.14,22.14,0,0,0,950.67,487.93Z" fill="#ccd1d9"/>
        <path d="M981.57,483.43h0l-52.5,70.9a22.05,22.05,0,0,0,30.9-4.6l-.1-.1h0l.1.1,26.2-35.4A22.05,22.05,0,0,0,981.57,483.43Z" fill="#e6e9ed"/>
      </g>
    </g>
    <g id="iphone">
      <path d="M960.77,183.33l38.5-44.1a8.37,8.37,0,0,0-.8-11.8l-88.1-77a8.37,8.37,0,0,0-11.8.8l-38.5,44.1a8.37,8.37,0,0,0,.8,11.8l88.1,77A8.48,8.48,0,0,0,960.77,183.33Z" fill="#2980b9" opacity="0.8" style="isolation: isolate"/>
      <path d="M904.07,50.13l-38.5,44.1a8.37,8.37,0,0,0,.8,11.8l88.1,77a8.37,8.37,0,0,0,11.8-.8l38.5-44.1a8.37,8.37,0,0,0-.8-11.8l-88.1-77A8.37,8.37,0,0,0,904.07,50.13Z" fill="#434a54"/>
      <path d="M992.17,127.13l-38.5,44.1-81.8-71.5h0l38.5-44h0Z" fill="#586273"/>
      <rect x="973.13" y="152.78" width="12.5" height="4.2" transform="translate(218.32 790.45) rotate(-48.85)" fill="#434a54"/>
      <path d="M871.87,99.73h0l81.8,71.5,38.5-44.1-81.8-71.5h0Z" fill="#f7f9f8"/>
      <path d="M935.77,94.13l-5.5-2.6a2.56,2.56,0,0,0-2.1,0l-9.2,4.3h0l-1.3-1.1a11,11,0,0,0-3.9-6.4l-1.7-1.5a7.09,7.09,0,0,0-10,.4h0a7.14,7.14,0,0,0,.9,10l1.7,1.5a11.2,11.2,0,0,0,6.9,3l1.3,1.1h0l-3.1,9.7a3.12,3.12,0,0,0,.3,2.1l3.3,5.1a.84.84,0,0,0,1.4.1l10.6-12.1h0L936,95.63A.93.93,0,0,0,935.77,94.13Z" fill="#44c650"/>
      <rect x="919" y="113.34" width="35.9" height="9" transform="translate(231.79 745.93) rotate(-48.86)" fill="#dce4e8"/>
      <rect x="929.26" y="122.23" width="35.9" height="9" transform="translate(228.51 756.6) rotate(-48.85)" fill="#dce4e8"/>
      <rect x="948.03" y="131.13" width="17.9" height="9" transform="translate(225.15 767) rotate(-48.85)" fill="#dce4e8"/>
      <circle cx="938.07" cy="136.83" r="1.7" fill="#586273"/>
      <circle cx="943.97" cy="130.13" r="1.7" fill="#586273"/>
      <circle cx="941.07" cy="133.53" r="1.7" fill="#586273"/>
      <path d="M948.07,125.43a1.63,1.63,0,0,1,.1,2.4,1.73,1.73,0,0,1-2.4.2,1.63,1.63,0,0,1-.1-2.4A1.73,1.73,0,0,1,948.07,125.43Z" fill="#586273"/>
      <circle cx="927.97" cy="128.03" r="1.7" fill="#586273"/>
      <circle cx="939.77" cy="114.53" r="1.7" fill="#586273"/>
      <circle cx="933.87" cy="121.23" r="1.7" fill="#586273"/>
      <circle cx="930.97" cy="124.63" r="1.7" fill="#586273"/>
      <circle cx="936.87" cy="117.93" r="1.7" fill="#586273"/>
      <rect x="952.65" y="134.47" width="9" height="2.7" transform="translate(225.24 767.4) rotate(-48.87)" fill="#e74c3c"/>
      <path d="M904.07,50.13l-29.9,34.2,113.6,73.3,17.1-19.5a8.37,8.37,0,0,0-.8-11.8l-88.1-77A8.49,8.49,0,0,0,904.07,50.13Z" fill="none"/>
    </g>
    <g id="foglio2">
      <g>
        <g opacity="0.8">
          <polygon points="165.57 7.83 141.47 196.33 292.27 215.63 316.37 27.03 317.97 14.53 167.27 -4.77 165.57 7.83" fill="#2980b9"/>
        </g>
        <rect x="137.3" y="33.08" width="189.99" height="151.9" transform="translate(94.69 325.62) rotate(-82.72)" fill="#ebf4ff"/>
        <rect x="238.85" y="-67.57" width="12.7" height="151.9" transform="translate(205.79 250.53) rotate(-82.72)" fill="#44c650"/>
        <rect x="203.36" y="80.43" width="12.7" height="12.7" transform="translate(97.04 283.79) rotate(-82.72)" fill="none"/>
        <rect x="225.84" y="82.83" width="6.3" height="6.3" transform="matrix(0.13, -0.99, 0.99, 0.13, 114.69, 302.23)" fill="none"/>
        <rect x="210.55" y="36.33" width="3.2" height="63.2" transform="translate(117.87 269.76) rotate(-82.72)" fill="#434a54"/>
        <rect x="268.6" y="54.88" width="3.2" height="41.1" transform="translate(161.11 333.88) rotate(-82.72)" fill="#3498db"/>
        <rect x="233.35" y="15.53" width="3.2" height="123.4" transform="translate(128.55 300.49) rotate(-82.72)" fill="#3498db"/>
        <rect x="193.15" y="62.63" width="3.2" height="31.6" transform="translate(92.26 261.66) rotate(-82.72)" fill="#3498db"/>
        <rect x="221.41" y="75.88" width="3.2" height="12.7" transform="translate(113.14 293) rotate(-82.71)" fill="#434a54"/>
        <rect x="260.65" y="60.13" width="3.2" height="53.8" transform="translate(142.67 336.12) rotate(-82.72)" fill="#3498db"/>
        <rect x="177.35" y="111.83" width="3.2" height="31.6" transform="translate(29.66 288.95) rotate(-82.72)" fill="#434a54"/>
        <rect x="169.46" y="129.72" width="3.2" height="19" transform="translate(11.25 291.23) rotate(-82.71)" fill="#434a54"/>
        <rect x="191.41" y="135.77" width="3.2" height="12.7" transform="translate(27.54 315.54) rotate(-82.71)" fill="#434a54"/>
        <rect x="173.4" y="120.68" width="3.2" height="25.3" transform="translate(20.56 290.01) rotate(-82.72)" fill="#434a54"/>
        <rect x="174.95" y="130.63" width="3.2" height="31.6" transform="translate(8.92 302.98) rotate(-82.72)" fill="#434a54"/>
        <rect x="169.11" y="86.89" width="31.7" height="38" transform="translate(56.46 275.91) rotate(-82.71)" fill="#ccd1d9"/>
        <rect x="225.95" y="127.43" width="3.2" height="38" transform="translate(53.45 353.57) rotate(-82.72)" fill="#434a54"/>
        <rect x="212.6" y="144.78" width="3.2" height="12.7" transform="translate(37.13 344.43) rotate(-82.72)" fill="#434a54"/>
        <rect x="228.42" y="149.98" width="3.2" height="6.3" transform="translate(48.91 361.84) rotate(-82.7)" fill="#434a54"/>
        <rect x="217.35" y="129.43" width="3.2" height="19" transform="translate(53.38 338.49) rotate(-82.72)" fill="#434a54"/>
        <rect x="239.4" y="135.58" width="3.2" height="12.7" transform="translate(69.66 362.98) rotate(-82.72)" fill="#434a54"/>
        <rect x="224.45" y="117.83" width="3.2" height="31.6" transform="translate(64.83 340.91) rotate(-82.72)" fill="#434a54"/>
        <rect x="216.1" y="92.88" width="31.7" height="38" transform="translate(91.56 327.76) rotate(-82.72)" fill="#ccd1d9"/>
        <rect x="274.75" y="120.93" width="3.2" height="38" transform="translate(102.51 396.3) rotate(-82.72)" fill="#434a54"/>
        <rect x="266.81" y="139.07" width="3.2" height="25.3" transform="translate(83.85 398.71) rotate(-82.71)" fill="#434a54"/>
        <rect x="262.4" y="138.28" width="3.2" height="12.7" transform="translate(87.06 388.16) rotate(-82.72)" fill="#434a54"/>
        <rect x="262.85" y="148.02" width="3.2" height="19" transform="translate(74.66 399.86) rotate(-82.72)" fill="#434a54"/>
        <rect x="284.9" y="154.08" width="3.2" height="12.7" transform="translate(91.04 424.27) rotate(-82.72)" fill="#434a54"/>
        <rect x="283.26" y="138.02" width="3.2" height="19" transform="translate(102.38 411.36) rotate(-82.71)" fill="#434a54"/>
        <rect x="263.35" y="98.93" width="31.6" height="38" transform="translate(126.78 379.87) rotate(-82.72)" fill="#ccd1d9"/>
        <rect x="233.25" y="-14.07" width="12.7" height="132.9" transform="translate(157.26 283.4) rotate(-82.72)" fill="#ccd1d9"/>
        <rect x="185.2" y="38.98" width="3.2" height="13.3" transform="translate(117.85 225.13) rotate(-82.72)" fill="#e5e5e5"/>
        <g>
          <rect x="206.8" y="35.68" width="12.7" height="26.6" transform="translate(137.54 254.19) rotate(-82.72)" fill="#434a54"/>
          <rect x="211.7" y="42.38" width="3.2" height="13.3" transform="translate(137.62 254.39) rotate(-82.72)" fill="#e5e5e5"/>
        </g>
        <rect x="238.01" y="45.78" width="3.2" height="13.3" transform="matrix(0.13, -0.99, 0.99, 0.13, 157.2, 283.44)" fill="#e5e5e5"/>
        <rect x="264.4" y="49.08" width="3.2" height="13.3" transform="translate(176.99 312.51) rotate(-82.72)" fill="#e5e5e5"/>
        <rect x="290.8" y="52.48" width="3.2" height="13.3" transform="translate(196.67 341.67) rotate(-82.72)" fill="#e5e5e5"/>
        <g>
          <rect x="215.35" y="-7.67" width="3.2" height="76" transform="translate(159.35 241.68) rotate(-82.72)" fill="#ccd1d9"/>
          <rect x="187.85" y="10.93" width="3.2" height="19" transform="translate(145.16 205.76) rotate(-82.72)" fill="#ccd1d9"/>
        </g>
        <rect x="210.85" y="111.63" width="25.3" height="132.9" transform="translate(18.52 377.19) rotate(-82.72)" fill="#ccd1d9"/>
      </g>
    </g>
    <g id="foglio1">
      <rect x="-6.54" y="-5.98" width="157.9" height="222.2" transform="translate(-29.32 28.02) rotate(-18.28)" fill="#2980b9"/>
      <g>
        <rect x="-4.52" y="-5.38" width="157.9" height="222.2" transform="translate(-29.41 28.68) rotate(-18.28)" fill="#f7f9f8"/>
        <g>
          <rect x="68.96" y="48.64" width="57" height="6" transform="translate(-11.28 33.18) rotate(-18.28)" fill="#b7bfc7"/>
          <rect x="71.95" y="58.14" width="57" height="6" transform="translate(-14.11 34.6) rotate(-18.28)" fill="#dce4e8"/>
          <rect x="75.16" y="67.75" width="57" height="6" transform="translate(-16.96 36.09) rotate(-18.28)" fill="#dce4e8"/>
          <rect x="78.26" y="77.14" width="57" height="6" transform="translate(-19.75 37.54) rotate(-18.28)" fill="#dce4e8"/>
        </g>
        <rect x="-12.05" y="42.72" width="133.9" height="6" transform="translate(-11.57 19.53) rotate(-18.28)" fill="#dce4e8"/>
        <rect x="-18.35" y="13.72" width="133.9" height="26" transform="translate(-5.93 16.59) rotate(-18.28)" fill="#b7bfc7"/>
        <g>
          <rect x="9.18" y="107.34" width="133.9" height="6" transform="translate(-30.77 29.45) rotate(-18.28)" fill="#dce4e8"/>
          <rect x="12.47" y="116.74" width="133.9" height="6" transform="translate(-33.55 30.96) rotate(-18.28)" fill="#dce4e8"/>
          <rect x="15.45" y="126.24" width="133.9" height="6" transform="translate(-36.38 32.37) rotate(-18.28)" fill="#dce4e8"/>
        </g>
        <g>
          <rect x="33.65" y="181.35" width="133.9" height="6" transform="translate(-52.75 40.87) rotate(-18.28)" fill="#dce4e8"/>
          <rect x="37.66" y="195.62" width="104" height="6" transform="translate(-57.78 38.15) rotate(-18.28)" fill="#dce4e8"/>
        </g>
        <g>
          <rect x="22.56" y="151.45" width="89" height="6" transform="translate(-45.07 28.83) rotate(-18.28)" fill="#b7bfc7"/>
          <rect x="25.65" y="160.84" width="89" height="6" transform="translate(-47.86 30.28) rotate(-18.28)" fill="#dce4e8"/>
          <rect x="28.87" y="170.45" width="89" height="6" transform="translate(-50.71 31.77) rotate(-18.28)" fill="#dce4e8"/>
          <rect x="120.98" y="128.22" width="35" height="26" transform="translate(-37.3 50.55) rotate(-18.28)" fill="#44c650"/>
        </g>
        <g>
          <rect x="1.65" y="79.95" width="7" height="36" transform="translate(-30.47 6.56) rotate(-18.28)" fill="#dce4e8"/>
          <rect x="11.17" y="76.73" width="7" height="36" transform="translate(-28.99 9.39) rotate(-18.29)" fill="#dce4e8"/>
          <rect x="20.67" y="73.64" width="7" height="36" transform="translate(-27.54 12.21) rotate(-18.29)" fill="#dce4e8"/>
          <rect x="30.27" y="70.51" width="7" height="36" transform="translate(-26.07 15.07) rotate(-18.29)" fill="#dce4e8"/>
          <rect x="39.65" y="67.34" width="7" height="36" transform="translate(-24.59 17.85) rotate(-18.28)" fill="#dce4e8"/>
          <rect x="49.16" y="64.25" width="7" height="36" transform="translate(-23.12 20.65) rotate(-18.26)" fill="#dce4e8"/>
          <rect x="58.78" y="61.22" width="7" height="36" transform="translate(-21.71 23.54) rotate(-18.29)" fill="#dce4e8"/>
          <rect x="4.86" y="99.45" width="7" height="16" transform="translate(-33.25 8.03) rotate(-18.26)" fill="#e74c3c"/>
          <rect x="13.86" y="93.35" width="7" height="19" transform="translate(-31.39 10.64) rotate(-18.28)" fill="#e74c3c"/>
          <rect x="24.58" y="97.11" width="7" height="12" transform="translate(-30.94 14.02) rotate(-18.29)" fill="#e74c3c"/>
          <rect x="32.35" y="84.15" width="7" height="22" transform="translate(-28.04 16.05) rotate(-18.28)" fill="#e74c3c"/>
          <rect x="41.26" y="77.15" width="7" height="26" transform="translate(-26.02 18.59) rotate(-18.28)" fill="#e74c3c"/>
          <rect x="53.97" y="93.51" width="7" height="6" transform="translate(-27.38 22.91) rotate(-18.29)" fill="#e74c3c"/>
          <rect x="61.85" y="80.62" width="7" height="16" transform="translate(-24.48 24.95) rotate(-18.26)" fill="#e74c3c"/>
        </g>
      </g>
    </g>
    <g id="occhiali">
      <path d="M135.07,124.33a2.47,2.47,0,0,1-2-2.8,17.08,17.08,0,0,0-13.8-19.7L33,86.63a2.43,2.43,0,0,1,.8-4.8L120.07,97a22,22,0,0,1,17.8,25.4A2.48,2.48,0,0,1,135.07,124.33Z" fill="#586273"/>
      <g>
        <path d="M135.07,124.33a2.47,2.47,0,0,1-2-2.8,17.08,17.08,0,0,0-13.8-19.7L33,86.63a2.43,2.43,0,0,1,.8-4.8L120.07,97a22,22,0,0,1,17.8,25.4A2.48,2.48,0,0,1,135.07,124.33Z" fill="#586273"/>
        <path d="M39.27,107.43a2.47,2.47,0,0,1-2-2.8,22,22,0,0,1,25.4-17.8L149,102a2.43,2.43,0,0,1-.8,4.8l-86.3-15.2a17.08,17.08,0,0,0-19.7,13.8A2.6,2.6,0,0,1,39.27,107.43Z" fill="#586273"/>
      </g>
      <g opacity="0.3">
        <path d="M78,111.83a9.76,9.76,0,0,1-11.3,7.9l-28.8-5.1a9.76,9.76,0,0,1-7.9-11.3l3.4-19.2a9.76,9.76,0,0,1,11.3-7.9l28.8,5.1a9.76,9.76,0,0,1,7.9,11.3Z" fill="#efeeee"/>
      </g>
      <g opacity="0.3">
        <path d="M145.07,123.63a9.76,9.76,0,0,1-11.3,7.9l-28.8-5.1a9.76,9.76,0,0,1-7.9-11.3l3.4-19.2a9.76,9.76,0,0,1,11.3-7.9l28.8,5.1a9.76,9.76,0,0,1,7.9,11.3Z" fill="#efeeee"/>
      </g>
      <path d="M97.57,112.73a2.47,2.47,0,0,1-2-2.8,7.32,7.32,0,0,0-14.4-2.6,2.43,2.43,0,0,1-4.8-.8,12.18,12.18,0,1,1,24,4.2A2.33,2.33,0,0,1,97.57,112.73Z" fill="#586273"/>
      <g opacity="0.3">
        <path d="M44.67,76.63a9.36,9.36,0,0,0-11.1,7.6l-3.4,19.2c-.9,5.3,2.5,10.8,7.8,11.7l14.1,2.5,6.8-38.4Z" fill="#efeeee"/>
      </g>
      <g opacity="0.3">
        <path d="M111.77,88.43c-5.3-.9-9.4,2.4-10.3,7.7l-3.4,19.2c-.9,5.3,1.6,10.6,6.9,11.5l14,2.5,6.8-38.4Z" fill="#efeeee"/>
      </g>
      <g>
        <path d="M140.17,95.53l-28.8-5.1a7.37,7.37,0,0,0-8.5,5.9l-3.4,19.2a7.37,7.37,0,0,0,5.9,8.5l28.8,5.1a7.37,7.37,0,0,0,8.5-5.9l3.4-19.2A7.37,7.37,0,0,0,140.17,95.53Z" fill="none"/>
        <path d="M73.07,83.73l-28.8-5.1a7.37,7.37,0,0,0-8.5,5.9l-3.4,19.2a7.37,7.37,0,0,0,5.9,8.5l28.8,5.1a7.37,7.37,0,0,0,8.5-5.9L79,92.23A7.37,7.37,0,0,0,73.07,83.73Z" fill="none"/>
        <path d="M73.87,78.93l-28.8-5.1A12.21,12.21,0,0,0,31,83.73l-3.4,19.2a12.21,12.21,0,0,0,9.9,14.1l28.8,5.1a12.21,12.21,0,0,0,14.1-9.9L83.77,93A12.28,12.28,0,0,0,73.87,78.93Zm1.7,32.4a7.29,7.29,0,0,1-8.5,5.9l-28.8-5.1a7.29,7.29,0,0,1-5.9-8.5l3.4-19.2a7.29,7.29,0,0,1,8.5-5.9l28.8,5.1a7.29,7.29,0,0,1,5.9,8.5Z" fill="#586273"/>
        <path d="M141,90.73l-28.8-5.1a12.21,12.21,0,0,0-14.1,9.9l-3.4,19.2a12.21,12.21,0,0,0,9.9,14.1l28.8,5.1a12.21,12.21,0,0,0,14.1-9.9l3.4-19.2A12.28,12.28,0,0,0,141,90.73Zm1.7,32.5a7.29,7.29,0,0,1-8.5,5.9l-28.8-5.1a7.29,7.29,0,0,1-5.9-8.5l3.4-19.2a7.29,7.29,0,0,1,8.5-5.9l28.8,5.1a7.29,7.29,0,0,1,5.9,8.5Z" fill="#586273"/>
      </g>
    </g>
    <g id="hellocontainer">
      <text id="hello" transform="translate(30.86 439.08)" font-size="120" fill="#ecf0f1" font-family="Roboto-Black, Roboto" font-weight="800" style="isolation: isolate">hello</text>
    </g>
    <g id="subtitle">
      <text id="scrolldown" transform="translate(409.73 439.08)" font-size="14" fill="#f5ecd9" font-family="Roboto-Regular, Roboto" style="isolation: isolate">sc<tspan x="14.65" y="0" letter-spacing="-0.02em">r</tspan><tspan x="19.28" y="0">oll d</tspan><tspan x="45.73" y="0" letter-spacing="-0.01em">o</tspan><tspan x="53.55" y="0">wn</tspan></text>
      <text id="viewresume" transform="translate(484.33 439.08)" font-size="14" fill="#ded6c7" font-family="Roboto-Regular, Roboto" style="isolation: isolate">or just view my <tspan x="97.91" y="0" letter-spacing="-0.02em">r</tspan><tspan x="102.55" y="0">esume.</tspan></text>
    </g>
  </g>
  <g id="intro3">
    <text transform="translate(35.19 671.92)" font-size="18" fill="#01050a" font-family="Roboto-Thin, Roboto" font-weight="200" style="isolation: isolate">a design and technology hybrid .</text>
    <text transform="translate(33.31 612.32)" font-size="18" fill="#01050a" font-family="Roboto-Thin, Roboto" font-weight="200" style="isolation: isolate"><tspan xml:space="preserve">   - </tspan><tspan x="24.32" y="0" letter-spacing="-0.01em">P</tspan><tspan x="35.03" y="0">a</tspan><tspan x="44.53" y="0" letter-spacing="0.01em">r</tspan><tspan x="50.7" y="0">ticipate in the design p</tspan><tspan x="223.41" y="0" letter-spacing="-0.01em">r</tspan><tspan x="229.25" y="0">ocess: Disc</tspan><tspan x="316.63" y="0" letter-spacing="-0.01em">o</tspan><tspan x="326.35" y="0" letter-spacing="-0.01em">v</tspan><tspan x="334.83" y="0">e</tspan><tspan x="343.96" y="0" letter-spacing="-0.06em">r</tspan><tspan x="348.9" y="0">, Ideate, Design &amp; Def ine </tspan></text>
    <text transform="translate(33.31 633.92)" font-size="18" fill="#01050a" font-family="Roboto-Thin, Roboto" font-weight="200" style="isolation: isolate"><tspan xml:space="preserve">   - Leads the UI d</tspan><tspan x="135.7" y="0" letter-spacing="-0.01em">ev</tspan><tspan x="153.2" y="0">elopment effo</tspan><tspan x="261.06" y="0" letter-spacing="0.01em">r</tspan><tspan x="267.23" y="0">ts ac</tspan><tspan x="304.69" y="0" letter-spacing="-0.01em">r</tspan><tspan x="310.54" y="0">oss all web applications, ensuring best practices a</tspan><tspan x="695.76" y="0" letter-spacing="-0.01em">r</tspan><tspan x="701.61" y="0">e followed at all times. </tspan></text>
    <text transform="translate(33.31 590.12)" font-size="18" fill="#01050a" font-family="Roboto-Thin, Roboto" font-weight="200" style="isolation: isolate">* An engineer who has the technical knowhow and edge to c<tspan x="464.84" y="0" letter-spacing="-0.01em">r</tspan><tspan x="470.7" y="0">eate p</tspan><tspan x="518.19" y="0" letter-spacing="-0.01em">r</tspan><tspan x="524.03" y="0" xml:space="preserve">oduction code and:  z</tspan></text>
  </g>
  <g id="intro1">
    <text transform="translate(31.35 478.48)" font-size="30" fill="#ecf0f1" font-family="Roboto-Thin, Roboto" font-weight="200" style="isolation: isolate">I<tspan x="7.82" y="0" letter-spacing="-0.01em">’</tspan><tspan x="13.83" y="0">m Ricky Jiang,</tspan></text>
    <text transform="translate(31.35 514.48)" font-size="30" fill="#ecf0f1" font-family="Roboto-Thin, Roboto" font-weight="200" style="isolation: isolate">a self-taught d<tspan x="187.85" y="0" letter-spacing="-0.01em">ev</tspan><tspan x="217.02" y="0">elope</tspan><tspan x="286.48" y="0" letter-spacing="-0.06em">r</tspan><tspan x="294.71" y="0">.</tspan></text>
  </g>
</svg>
