<?xml version="1.0" encoding="utf-8"?>
<!-- Generator: Adobe Illustrator 23.0.1, SVG Export Plug-In . SVG Version: 6.00 Build 0)  -->
<svg version="1.1" id="svg3" xmlns="http://www.w3.org/2000/svg" xmlns:xlink="http://www.w3.org/1999/xlink" x="0px" y="0px"
	 viewBox="496 -368 1024 768" enable-background="new 496 -368 1024 768" xml:space="preserve">
<g id="bg2_1_">
	<rect x="-3360.1" y="-2659.6" fill="#44C650" width="8736.7" height="5396"/>
</g>
<g id="objects" inkscape:version="0.48.4 r9939" sodipodi:docname="drawing.svg" xmlns:cc="http://creativecommons.org/ns#" xmlns:dc="http://purl.org/dc/elements/1.1/" xmlns:inkscape="http://www.inkscape.org/namespaces/inkscape" xmlns:rdf="http://www.w3.org/1999/02/22-rdf-syntax-ns#" xmlns:sodipodi="http://sodipodi.sourceforge.net/DTD/sodipodi-0.dtd" xmlns:svg="http://www.w3.org/2000/svg">
	<g id="iphone">
		<path fill="#0F0D10" d="M1439.7,68.9l1.2,9.7c0.5,3.6,3.7,6.1,7.3,5.7l52-6.6c3.6-0.5,6.1-3.7,5.7-7.3l-1.2-9.7L1439.7,68.9z"/>
		<path fill="#0F0D10" d="M1492.3-36.8l-1.2-9.7c-0.5-3.6-3.7-6.1-7.3-5.7l-52,6.6c-3.6,0.5-6.1,3.7-5.7,7.3l1.2,9.7L1492.3-36.8z"
			/>
		
			<rect x="1433.3" y="-33.1" transform="matrix(0.9921 -0.1256 0.1256 0.9921 9.6002 184.2555)" fill="#0F0D10" width="65.5" height="98.2"/>
		
			<rect x="1436.6" y="-33" transform="matrix(0.9921 -0.1256 0.1256 0.9921 9.5874 184.2571)" fill="#F5F7FA" width="58.9" height="98.2"/>
		<circle fill="#272528" cx="1473.2" cy="72.9" r="4.9"/>
		<g id="s3">
			
				<rect id="s3-bg1" x="1440.3" y="25.7" transform="matrix(0.9921 -0.1256 0.1256 0.9921 5.9428 184.9535)" fill="#CCD1D9" width="58.9" height="39.3"/>
			<g>
				
					<rect id="i1" x="1457" y="47.8" transform="matrix(0.9921 -0.1256 0.1256 0.9921 5.5379 185.0235)" fill="#F5F7FA" width="26.2" height="1.6"/>
				
					<rect id="i2" x="1457.9" y="54.2" transform="matrix(0.9921 -0.1256 0.1256 0.9921 4.7405 185.1864)" fill="#F5F7FA" width="26.2" height="1.6"/>
				
					<rect id="i3" x="1457.5" y="51" transform="matrix(0.9921 -0.1256 0.1256 0.9921 5.14 185.1105)" fill="#F5F7FA" width="26.2" height="1.6"/>
				
					<rect id="i4" x="1458.3" y="58.3" transform="matrix(0.9921 -0.1257 0.1257 0.9921 4.1893 184.5941)" fill="#F5F7FA" width="13.1" height="1.6"/>
				
					<rect id="i5" x="1455.7" y="31.3" transform="matrix(0.9921 -0.1256 0.1256 0.9921 6.8772 184.7739)" fill="#44C650" width="26.2" height="13.1"/>
			</g>
			<g>
				
					<rect id="i6" x="1448.5" y="5.5" transform="matrix(0.9921 -0.1256 0.1256 0.9921 10.8083 184.0284)" fill="#AAB2BD" width="32.7" height="1.6"/>
				
					<rect id="i7" x="1449.3" y="12.1" transform="matrix(0.9921 -0.1256 0.1256 0.9921 9.9863 184.182)" fill="#AAB2BD" width="32.7" height="1.6"/>
				
					<rect id="i8" x="1448.9" y="8.8" transform="matrix(0.9921 -0.1256 0.1256 0.9921 10.3981 184.1046)" fill="#AAB2BD" width="32.7" height="1.6"/>
				
					<rect id="i9" x="1456.3" y="15.2" transform="matrix(0.9921 -0.1256 0.1256 0.9921 9.6006 184.2621)" fill="#AAB2BD" width="19.6" height="1.6"/>
				
					<rect id="i10" x="1439.1" y="-26.3" transform="matrix(0.9921 -0.1256 0.1256 0.9921 13.6502 183.4894)" fill="#3498DB" width="45.8" height="19.6"/>
				
					<rect id="i11" x="1444.3" y="-1.5" transform="matrix(0.9921 -0.1256 0.1256 0.9921 11.6246 183.863)" fill="#E1E1E2" width="39.3" height="2.5"/>
			</g>
		</g>
	</g>
	<g id="ipad">
		<path fill="#0F0D10" d="M1387-67.4v-12c0-4.4-3.6-8-8-8h-144c-4.4,0-8,3.6-8,8v12H1387z"/>
		<path fill="#0F0D10" d="M1227,100.6v12c0,4.4,3.6,8,8,8h144c4.4,0,8-3.6,8-8v-12H1227L1227,100.6z"/>
		<rect x="1227" y="-67.4" fill="#0F0D10" width="160" height="168"/>
		<rect x="1235" y="-67.4" fill="#C4C3C4" width="144" height="168"/>
		<circle fill="#272528" cx="1307" cy="110.6" r="6"/>
		<g id="s2">
			<rect x="1235" y="-67.4" fill="#E6E9ED" width="144" height="168"/>
			<rect id="s2-bg1" x="1235" y="36.6" fill="#FFFFFF" width="144" height="64"/>
			<g>
				<rect id="g1" x="1259" y="-51.4" fill="#44C650" width="96" height="48"/>
				<g id="g2g">
					<rect id="g2" x="1275" y="11.6" fill="#434A54" width="64" height="2"/>
					<rect id="g3" x="1275" y="19.6" fill="#434A54" width="64" height="2"/>
					<rect id="g4" x="1275" y="15.6" fill="#434A54" width="64" height="2"/>
					<rect id="g5" x="1283" y="23.6" fill="#434A54" width="48" height="2"/>
				</g>
				<rect id="g21" x="1267" y="2.6" fill="#4FC1E9" width="80" height="4"/>
			</g>
			<g>
				<g id="g6g">
					<rect id="g6" x="1291" y="68.6" fill="#AAB2BD" width="32" height="2"/>
					<rect id="g7" x="1291" y="76.6" fill="#AAB2BD" width="32" height="2"/>
					<rect id="g8" x="1291" y="72.6" fill="#AAB2BD" width="32" height="2"/>
					<rect id="g9" x="1291" y="80.6" fill="#AAB2BD" width="16" height="2"/>
				</g>
				<rect id="g10" x="1291" y="48.6" fill="#44C650" width="32" height="16"/>
			</g>
			<g>
				<g id="g11g">
					<rect id="g11" x="1243" y="80.6" fill="#AAB2BD" width="16" height="2"/>
					<rect id="g12" x="1243" y="72.6" fill="#AAB2BD" width="32" height="2"/>
					<rect id="g13" x="1243" y="76.6" fill="#AAB2BD" width="32" height="2"/>
					<rect id="g14" x="1243" y="68.6" fill="#AAB2BD" width="32" height="2"/>
				</g>
				<rect id="g15" x="1243" y="48.6" fill="#44C650" width="32" height="16"/>
			</g>
			<g>
				<rect id="g16" x="1339" y="68.6" fill="#AAB2BD" width="32" height="2"/>
				<rect id="g17" x="1339" y="76.6" fill="#AAB2BD" width="32" height="2"/>
				<rect id="g18" x="1339" y="72.6" fill="#AAB2BD" width="32" height="2"/>
				<rect id="g19" x="1339" y="80.6" fill="#AAB2BD" width="16" height="2"/>
				<rect id="g20" x="1339" y="48.6" fill="#44C650" width="32" height="16"/>
			</g>
			<rect x="1235" y="-67.4" fill="#4B4A4C" width="144" height="8"/>
		</g>
	</g>
	<g id="imac">
		<rect id="gridbg" x="883.9" y="-187.4" fill="#F5B8B6" width="299.5" height="165.8"/>
		<g id="grid">
			<rect id="grid1" x="903" y="-187.4" fill="#FFFFFF" width="6.4" height="166"/>
			<rect id="grid2" x="929" y="-187.4" fill="#FFFFFF" width="6.4" height="166"/>
			<rect id="grid3" x="954" y="-187.4" fill="#FFFFFF" width="6.4" height="166"/>
			<rect id="grid4" x="980" y="-187.4" fill="#FFFFFF" width="6.4" height="166"/>
			<rect id="grid5" x="1005" y="-187.4" fill="#FFFFFF" width="6.4" height="166"/>
			<rect id="grid6" x="1031" y="-187.4" fill="#FFFFFF" width="6.4" height="166"/>
			<rect id="grid7" x="1056" y="-187.4" fill="#FFFFFF" width="6.4" height="166"/>
			<rect id="grid8" x="1082" y="-187.4" fill="#FFFFFF" width="6.4" height="166"/>
			<rect id="grid9" x="1107" y="-187.4" fill="#FFFFFF" width="6.4" height="166"/>
			<rect id="grid10" x="1133" y="-187.4" fill="#FFFFFF" width="6.4" height="166"/>
			<rect id="grid11" x="1158" y="-187.4" fill="#FFFFFF" width="6.4" height="166"/>
		</g>
		<path id="bg1" fill="#F5F7FA" d="M1183.4-187.4c0,0,0,0,0,12.8v153.1h-300v-153.1c0-12.8,0-12.8,0-12.8H1183.4L1183.4-187.4z"/>
		<rect id="bg2" x="883.4" y="-110.8" fill="#E6E9ED" width="300" height="76.6"/>
		<g id="b4">
			<rect id="f22" x="1107.5" y="-48.6" fill="#434A54" width="28.6" height="3.2"/>
			<rect id="f21" x="1107.5" y="-61.4" fill="#434A54" width="57.1" height="3.2"/>
			<rect id="f20" x="1107.5" y="-55" fill="#434A54" width="57.1" height="3.2"/>
			<rect id="f19" x="1107.5" y="-67.8" fill="#434A54" width="57.1" height="3.2"/>
		</g>
		<rect id="f18" x="1107.5" y="-99.7" fill="#3498DB" width="57.1" height="25.5"/>
		<g id="b3">
			<rect id="f17" x="1004.8" y="-67.8" fill="#434A54" width="57.1" height="3.2"/>
			<rect id="f16" x="1004.8" y="-55" fill="#434A54" width="57.1" height="3.2"/>
			<rect id="f15" x="1004.8" y="-61.4" fill="#434A54" width="57.1" height="3.2"/>
			<rect id="f14" x="1004.8" y="-48.6" fill="#434A54" width="28.6" height="3.2"/>
		</g>
		<rect id="f13" x="1004.8" y="-99.7" fill="#3498DB" width="57.1" height="25.5"/>
		<g id="b2">
			<rect id="f12" x="903.1" y="-67.8" fill="#434A54" width="57.1" height="3.2"/>
			<rect id="f11" x="903.1" y="-55" fill="#434A54" width="57.1" height="3.2"/>
			<rect id="f10" x="903.1" y="-61.4" fill="#434A54" width="57.1" height="3.2"/>
			<rect id="f9" x="903.1" y="-48.6" fill="#434A54" width="28.6" height="3.2"/>
		</g>
		<rect id="f8" x="903.1" y="-99.7" fill="#3498DB" width="57.1" height="25.5"/>
		<g id="b1">
			<rect id="f6" x="1019" y="-172.2" fill="#E74C3C" width="110.7" height="6.4"/>
			<rect id="f5" x="1019" y="-133.9" fill="#39B54A" width="39.3" height="12.8"/>
			<rect id="f4" x="1019" y="-161" fill="#656D78" width="110.7" height="3.2"/>
			<rect id="f3" x="1019" y="-148.3" fill="#656D78" width="110.7" height="3.2"/>
			<rect id="f2" x="1019" y="-154.7" fill="#656D78" width="110.7" height="3.2"/>
			<rect id="f7" x="1019" y="-141.9" fill="#656D78" width="82.1" height="3.2"/>
		</g>
		<rect id="f1" x="903.1" y="-172.2" fill="#3498DB" width="110.7" height="51"/>
	</g>
	<g id="crawler">
		<path id="c1" fill="#7E8C8D" d="M657,170.9c0.7,0.3,1.5,1.3,1.2,2.4c-0.4,1.1-1.7,1.4-2.4,1.2c-1.1-0.4-1.5-1.3-1.2-2.4
			C654.9,171,655.9,170.6,657,170.9z"/>
		<path id="c2" fill="#7E8C8D" d="M670.6,175.7c0.7,0.3,1.5,1.3,1.2,2.4c-0.4,1.1-1.7,1.4-2.4,1.2c-1.1-0.4-1.5-1.3-1.2-2.4
			C668.5,175.8,669.5,175.3,670.6,175.7z"/>
		<path id="c3" fill="#FFFFFF" d="M663.1,187.9c-1.4-0.2-2.7-0.5-4.1-1c-1.5-0.5-2.9-1.2-4.1-2c-8.4-5.1-12.3-15.5-8.9-25.1
			l1.1-3.2l20.1,7l19.7,6.9l-1.1,3.2C682.3,183.5,672.7,189.1,663.1,187.9z M671.8,178.1c0.4-1.1-0.4-2.2-1.2-2.4
			c-1.1-0.4-2,0.1-2.4,1.2c-0.4,1.1,0.1,2,1.2,2.4C670.1,179.5,671.4,179.2,671.8,178.1z M658.1,173.3c0.4-1.1-0.5-2.2-1.2-2.4
			c-1.1-0.4-2,0.1-2.4,1.2c-0.4,1.1,0.1,2,1.2,2.4C656.4,174.8,657.8,174.4,658.1,173.3z"/>
		<path id="c4" fill="#7E8C8D" d="M659.3,198.7c-0.6-0.2-0.9-0.9-0.7-1.5l3.5-10c0.2-0.6,0.9-0.9,1.5-0.7
			c0.6,0.2,0.9,0.9,0.7,1.5l-3.5,10C660.6,198.6,659.9,198.9,659.3,198.7z"/>
		<path id="c5" fill="#7E8C8D" d="M651.1,195.8c-0.6-0.2-0.9-0.9-0.7-1.5l3.5-10c0.2-0.6,0.9-0.9,1.5-0.7
			c0.6,0.2,0.9,0.9,0.7,1.5l-3.5,10C652.3,195.7,651.7,196,651.1,195.8z"/>
		<polygon id="c6" fill="#FFFFFF" points="716.5,68.3 713.6,76.5 704.6,78.2 696.1,79.6 690.3,73.2 684.6,66.4 687.5,58.1
			690.5,49.5 699,48.1 707.7,46.3 713.4,53.1 719.5,59.6 		"/>
		<path id="c7" fill="#414A56" d="M698,75.1c-0.6-0.2-1.2,0.1-1.5,0.7l-12.8,36.6l-0.1,0.4l-17.6,50.5c-0.2,0.6,0.1,1.2,0.7,1.5
			c0.6,0.2,1.2-0.1,1.5-0.7l17.6-50.5l0.1-0.4l12.8-36.6C698.9,75.9,698.6,75.3,698,75.1z"/>
		<path id="c8" fill="#FF7979" d="M684.9,112.7l-17.8,50.9l-20.1-7l-1.1-0.4l-2.5-0.9l9.5-27.2c2.3-6.5,6.9-11.5,12.7-14.3
			c5.7-2.8,12.4-3.4,18.9-1.3C684.7,112.6,684.8,112.7,684.9,112.7z"/>
		<path id="c9" fill="#D65B5B" d="M700,144.5l-9.5,27.2l-2.9-1l-0.7-0.2l-19.7-6.9l17.8-50.9C697.8,117.2,704.5,131.6,700,144.5z
			"/>
		<path id="c10" fill="#D65B5B" d="M654.3,148.7c-0.6-0.2-0.9-0.9-0.7-1.5l6-17.2c0.2-0.6,0.9-0.9,1.5-0.7c0.6,0.2,0.9,0.9,0.7,1.5
			l-6,17.2C655.5,148.6,654.9,148.9,654.3,148.7z"/>
		<path id="c11" fill="#707487" d="M650.9,138.5l-10.2-3.5c-0.6-0.2-0.9-0.9-0.7-1.5c0.2-0.6,0.9-0.9,1.5-0.7l10.2,3.5
			c0.6,0.2,0.9,0.9,0.7,1.5C652.2,138.4,651.5,138.7,650.9,138.5z"/>
		<path id="c12" fill="#707487" d="M705.4,157.5l-10.2-3.5c-0.6-0.2-0.9-0.9-0.7-1.5c0.2-0.6,0.9-0.9,1.5-0.7l10.2,3.5
			c0.6,0.2,0.9,0.9,0.7,1.5C706.6,157.4,706,157.7,705.4,157.5z"/>
		<path id="c13" fill="#707487" d="M708.1,142.9l-8.2-2.9c-0.6-0.2-0.9-0.9-0.7-1.4c0.2-0.6,0.9-0.9,1.5-0.7l7.8,2.7l9-3.8
			c0.6-0.2,1.2,0,1.5,0.6c0.2,0.6,0,1.2-0.6,1.5l-9.4,4C708.7,143,708.4,143,708.1,142.9z"/>
		<path id="c14" fill="#707487" d="M655.8,124.7l-8.2-2.9c-0.3-0.1-0.5-0.3-0.6-0.5l-5.3-9.1c-0.3-0.5-0.1-1.2,0.4-1.6
			c0.5-0.3,1.2-0.1,1.6,0.4l5.1,8.7l7.8,2.7c0.6,0.2,0.9,0.9,0.7,1.5C657,124.6,656.4,124.9,655.8,124.7z"/>
		<path id="c15" fill="#707487" d="M702.7,181.7c-0.3-0.1-0.5-0.3-0.6-0.5l-4.7-8.6l-10.7-3.7c-0.6-0.2-0.9-0.9-0.7-1.5
			c0.2-0.6,0.9-0.9,1.5-0.7l11.1,3.9c0.3,0.1,0.5,0.3,0.6,0.5l4.9,9c0.3,0.6,0.1,1.2-0.4,1.5C703.3,181.7,703,181.8,702.7,181.7z"/>
		<path id="c16" fill="#707487" d="M627.4,155.4c-0.3-0.1-0.6-0.3-0.7-0.7c-0.2-0.6,0.1-1.2,0.6-1.5l9.8-3.8c0.3-0.1,0.5-0.1,0.8,0
			l10.8,3.8c0.6,0.2,0.9,0.9,0.7,1.4c-0.2,0.6-0.9,0.9-1.4,0.7l-10.4-3.6l-9.4,3.7C627.9,155.5,627.6,155.5,627.4,155.4z"/>
		<path id="c17" fill="#D7DEED" d="M718.9,110.9c4.7,1.6,7.6,7.1,5.8,12.1c-1.8,5-7.4,7.5-12.1,5.8c-5-1.8-7.9-7.2-6.2-12.2
			C708.2,111.6,713.9,109.2,718.9,110.9z"/>
		<path id="c18" fill="#D7DEED" d="M720.6,168.2c2.9,1,4.7,4.9,3.7,7.7c-1.1,3.2-4.9,4.7-7.7,3.7c-3.2-1.1-4.9-4.5-3.7-7.7
			C713.9,169.1,717.4,167.1,720.6,168.2z"/>
		<path id="c19" fill="#D7DEED" d="M657.9,85.2c3.9,1.4,6,5.7,4.7,9.7c-1.3,3.6-5.6,5.7-9.5,4.3c-3.6-1.3-5.7-5.6-4.4-9.2
			C650,86.1,654.3,84,657.9,85.2z"/>
	</g>
	<g id="editor">
		<g id="_x3C_Group_x3E_">
			<path fill="#0F0D10" d="M1135.6,175.2H963.1c-4.9,0-8.9,4-8.9,8.9v148.8c0,4.9,4,8.9,8.9,8.9h172.6c4.9,0,8.9-4,8.9-8.9V184.1
				C1144.6,179.2,1140.6,175.2,1135.6,175.2L1135.6,175.2z M1025.6,184.1c4.9,0,8.9,4,8.9,8.9c0,4.9-4,8.9-8.9,8.9
				c-4.9,0-8.9-4-8.9-8.9C1016.6,188.1,1020.6,184.1,1025.6,184.1L1025.6,184.1z M998.8,184.1c4.9,0,8.9,4,8.9,8.9
				c0,4.9-4,8.9-8.9,8.9s-8.9-4-8.9-8.9C989.9,188.1,993.9,184.1,998.8,184.1L998.8,184.1z M972,184.1c4.9,0,8.9,4,8.9,8.9
				c0,4.9-4,8.9-8.9,8.9s-8.9-4-8.9-8.9C963.1,188.1,967.1,184.1,972,184.1L972,184.1z M1135.6,332.9H963.1v-122h172.6V332.9z"/>
			<g>
				<rect x="963.1" y="210.9" fill="#FFFFFF" width="172.6" height="122"/>
			</g>
			<circle fill="#71CEEA" stroke="#000000" stroke-miterlimit="10" cx="972.1" cy="193.1" r="8.9"/>
			<circle fill="#FCD723" stroke="#000000" stroke-miterlimit="10" cx="998.8" cy="193.1" r="8.9"/>
			<circle fill="#F37175" stroke="#000000" stroke-miterlimit="10" cx="1025.6" cy="193.1" r="8.9"/>
		</g>
		<g id="code">
			<g id="editor1">
				<path fill="#001E43" d="M1007.9,260c0,7.2-2.1,10.6-7.8,12.1c5.7,1.3,7.8,4.8,7.8,11.9v18.3c0,5.6,2.7,7.9,10.6,7.9v10.3h-4.8
					c-12.5,0-17.4-3.9-17.4-14.3v-23c0-4.3-1.4-5.9-4.8-5.9H988v-10.6h3.5c3.3,0,4.8-1.7,4.8-5.9v-23.1c0-10.3,4.9-14.2,17.4-14.2
					h4.8v10.3c-7.9,0-10.6,2.3-10.6,7.9V260L1007.9,260z"/>
			</g>
			<g id="editor2">
				<path fill="#001E43" d="M1113.7,277.3h-3.5c-3.3,0-4.8,1.7-4.8,5.9v23c0,10.4-4.9,14.3-17.4,14.3h-4.8v-10.3
					c7.9,0,10.6-2.3,10.6-7.9V284c0-7.2,2.1-10.6,7.8-12.1c-5.7-1.3-7.8-4.8-7.8-11.9v-18.3c0-5.6-2.7-7.9-10.6-7.9v-10.3h4.8
					c12.5,0,17.4,3.9,17.4,14.2v23.1c0,4.3,1.4,5.9,4.8,5.9h3.5L1113.7,277.3L1113.7,277.3z"/>
			</g>
			<g id="editor3">
				<path id="XMLID_86_" fill="#2E3192" d="M1036.1,258h-4.6c-3,0-5.3-2.4-5.3-5.3v-4.6c0-3,2.4-5.3,5.3-5.3h4.6
					c3,0,5.3,2.4,5.3,5.3v4.6C1041.4,255.6,1039.1,258,1036.1,258z"/>
			</g>
			<g id="editor4">
				<path id="XMLID_84_" fill="#ED1C24" d="M1074.7,251.6h-4.6c-3,0-5.3-2.4-5.3-5.3v-4.6c0-3,2.4-5.3,5.3-5.3h4.6
					c3,0,5.3,2.4,5.3,5.3v4.6C1080,249.2,1077.6,251.6,1074.7,251.6z"/>
			</g>
			<g id="editor5">
				<path id="XMLID_82_" fill="#00A651" d="M1073.1,294.6h-4.6c-3,0-5.3-2.4-5.3-5.3v-4.6c0-3,2.4-5.3,5.3-5.3h4.6
					c3,0,5.3,2.4,5.3,5.3v4.6C1078.4,292.2,1076,294.6,1073.1,294.6z"/>
			</g>
			<g id="editor6">
				<path id="XMLID_80_" fill="#27AAE1" d="M1051.4,278.3h-4.6c-3,0-5.3-2.4-5.3-5.3v-4.6c0-3,2.4-5.3,5.3-5.3h4.6
					c3,0,5.3,2.4,5.3,5.3v4.6C1056.7,276,1054.3,278.3,1051.4,278.3z"/>
			</g>
			<g id="editor7">
				<path id="XMLID_78_" fill="#8DC63F" d="M1020.1,276.5h-3.1c-1.3,0-2.4-1.1-2.4-2.4V271c0-1.3,1.1-2.4,2.4-2.4h3.2
					c1.3,0,2.4,1.1,2.4,2.4v3.2C1022.5,275.4,1021.4,276.5,1020.1,276.5z"/>
			</g>
			<g id="editor8">
				<path id="XMLID_76_" fill="#00A79D" d="M1054.6,250.7h-3.2c-1.3,0-2.4-1.1-2.4-2.4v-3.2c0-1.3,1.1-2.4,2.4-2.4h3.2
					c1.3,0,2.4,1.1,2.4,2.4v3.2C1057.1,249.6,1056,250.7,1054.6,250.7z"/>
			</g>
			<g id="editor9">
				<path id="XMLID_74_" fill="#F7941D" d="M1070,268h-3.2c-1.3,0-2.4-1.1-2.4-2.4v-3.2c0-1.3,1.1-2.4,2.4-2.4h3.2
					c1.3,0,2.4,1.1,2.4,2.4v3.2C1072.4,266.9,1071.3,268,1070,268z"/>
			</g>
			<g id="editor10">
				<path id="XMLID_72_" fill="#662D91" d="M1035.4,279.3h-3.2c-1.3,0-2.4-1.1-2.4-2.4v-3.2c0-1.3,1.1-2.4,2.4-2.4h3.2
					c1.3,0,2.4,1.1,2.4,2.4v3.2C1037.8,278.2,1036.7,279.3,1035.4,279.3z"/>
			</g>
			<g id="editor11">
				<path id="XMLID_26_" fill="#FFF200" d="M1051.6,296.2h-3.2c-1.3,0-2.4-1.1-2.4-2.4v-3.2c0-1.3,1.1-2.4,2.4-2.4h3.2
					c1.3,0,2.4,1.1,2.4,2.4v3.2C1054,295.1,1053,296.2,1051.6,296.2z"/>
			</g>
			<g id="editor12">
				<path id="XMLID_24_" fill="#ED1C24" d="M1066.7,307.3h-3.2c-1.3,0-2.4-1.1-2.4-2.4v-3.2c0-1.3,1.1-2.4,2.4-2.4h3.2
					c1.3,0,2.4,1.1,2.4,2.4v3.2C1069.1,306.2,1068,307.3,1066.7,307.3z"/>
			</g>
			<g id="editor13">
				<path id="XMLID_22_" fill="#8B5E3C" d="M1047.5,307.1h-1.1c-0.6,0-1-0.5-1-1V305c0-0.6,0.5-1,1-1h1.1c0.6,0,1,0.5,1,1v1.1
					C1048.5,306.6,1048,307.1,1047.5,307.1z"/>
			</g>
			<g id="editor14">
				<path id="XMLID_20_" fill="#EC008C" d="M1054.1,311.6h-1.1c-0.6,0-1-0.5-1-1v-1.1c0-0.6,0.5-1,1-1h1.1c0.6,0,1,0.5,1,1v1.1
					C1055.1,311.1,1054.7,311.6,1054.1,311.6z"/>
			</g>
			<g id="editor15">
				<path id="XMLID_18_" fill="#1B75BC" d="M1065,275.7h-1.1c-0.6,0-1-0.5-1-1v-1.1c0-0.6,0.5-1,1-1h1.1c0.6,0,1,0.5,1,1v1.1
					C1066,275.2,1065.5,275.7,1065,275.7z"/>
			</g>
			<g id="editor16">
				<path id="XMLID_16_" fill="#FFF200" d="M1082.1,274.1h-1.1c-0.6,0-1-0.5-1-1V272c0-0.6,0.5-1,1-1h1.1c0.6,0,1,0.5,1,1v1.1
					C1083.2,273.6,1082.7,274.1,1082.1,274.1z"/>
			</g>
			<g id="editor17">
				<path id="XMLID_14_" d="M1046.6,240.1h-1.1c-0.6,0-1-0.5-1-1V238c0-0.6,0.5-1,1-1h1.1c0.6,0,1,0.5,1,1v1.1
					C1047.7,239.7,1047.2,240.1,1046.6,240.1z"/>
			</g>
			<g id="editor18">
				<path id="XMLID_12_" fill="#006838" d="M1032.7,265.6h-1.1c-0.6,0-1-0.5-1-1v-1.1c0-0.6,0.5-1,1-1h1.1c0.6,0,1,0.5,1,1v1.1
					C1033.8,265.1,1033.3,265.6,1032.7,265.6z"/>
			</g>
			<g id="editor19">
				<path id="XMLID_10_" fill="#1B75BC" d="M1056.5,258.8h-1.1c-0.6,0-1-0.5-1-1v-1.1c0-0.6,0.5-1,1-1h1.1c0.6,0,1,0.5,1,1v1.1
					C1057.5,258.3,1057.1,258.8,1056.5,258.8z"/>
			</g>
			<g id="editor20">
				<path id="XMLID_8_" fill="#8B5E3C" d="M1057.3,284.7h-1.1c-0.6,0-1-0.5-1-1v-1.1c0-0.6,0.5-1,1-1h1.1c0.6,0,1,0.5,1,1v1.1
					C1058.3,284.3,1057.8,284.7,1057.3,284.7z"/>
			</g>
			<g id="editor21">
				<path id="XMLID_6_" fill="#FFF200" d="M1042.4,286.3h-1.1c-0.6,0-1-0.5-1-1v-1.1c0-0.6,0.5-1,1-1h1.1c0.6,0,1,0.5,1,1v1.1
					C1043.4,285.9,1043,286.3,1042.4,286.3z"/>
			</g>
			<g id="editor22">
				<path id="XMLID_4_" fill="#F15A29" d="M1028.3,286.6h-1.1c-0.6,0-1-0.5-1-1v-1.1c0-0.6,0.5-1,1-1h1.1c0.6,0,1,0.5,1,1v1.1
					C1029.3,286.2,1028.9,286.6,1028.3,286.6z"/>
			</g>
			<g id="editor23">
				<path id="XMLID_2_" fill="#EC008C" d="M1036.1,305.5h-4.6c-3,0-5.3-2.4-5.3-5.3v-4.6c0-3,2.4-5.3,5.3-5.3h4.6
					c3,0,5.3,2.4,5.3,5.3v4.6C1041.4,303.1,1039.1,305.5,1036.1,305.5z"/>
			</g>
		</g>
	</g>
	<g id="appunti2">
		
			<rect x="1684.8" y="-5" transform="matrix(0.9548 -0.2971 0.2971 0.9548 52.7267 522.1268)" fill="#363532" width="118.5" height="185.2"/>
		<circle fill="#363532" cx="1777.4" cy="-4.3" r="14.8"/>
		<circle fill="#363532" cx="1823.7" cy="144.3" r="14.8"/>
		
			<rect x="1800.3" y="-10.1" transform="matrix(0.9548 -0.2972 0.2972 0.9548 61.5595 540.3222)" fill="#363532" width="14.8" height="155.6"/>
		<circle fill="#363532" cx="1712.7" cy="186.6" r="7.4"/>
		<circle fill="#363532" cx="1662" cy="23.9" r="7.4"/>
		
			<rect x="1679.8" y="19.3" transform="matrix(0.9548 -0.2972 0.2972 0.9548 45.3058 507.0016)" fill="#363532" width="20.4" height="170.4"/>
		
			<rect x="1684.1" y="-6.8" transform="matrix(0.9548 -0.2971 0.2971 0.9548 53.2248 521.8442)" fill="#FFFFFF" width="118.5" height="185.2"/>
		<circle fill="#FFFFFF" cx="1776.9" cy="-6" r="14.8"/>
		<circle fill="#FFFFFF" cx="1823.1" cy="142.5" r="14.8"/>
		
			<rect x="1799.7" y="-11.7" transform="matrix(0.9548 -0.2972 0.2972 0.9548 62.0062 540.0532)" fill="#FFFFFF" width="14.8" height="155.6"/>
		<circle fill="#FFFFFF" cx="1712.7" cy="186.6" r="5.6"/>
		<circle fill="#FFFFFF" cx="1661.5" cy="22.1" r="7.4"/>
		
			<rect x="1681.4" y="17.2" transform="matrix(0.9548 -0.2971 0.2971 0.9548 45.6525 506.9766)" fill="#FFFFFF" width="18.5" height="172.2"/>
		<path fill="#434A54" d="M1771.9-22l-113.2,35.2c-3.9,1.2-6.1,5.4-4.9,9.3l50.6,162.7c1.2,3.9,5.4,6.1,9.3,4.9l113.2-35.2
			c7.8-2.4,12.2-10.7,9.7-18.6l-46.2-148.6C1788.1-20,1779.7-24.4,1771.9-22z"/>
		
			<rect x="1694.1" y="3.8" transform="matrix(0.955 -0.2967 0.2967 0.955 46.4694 508.2689)" fill="#A0D468" width="7.4" height="194.5"/>
		
			<rect x="1705.5" y="50.3" transform="matrix(0.9542 -0.2992 0.2992 0.9542 64.0167 522.4371)" fill="#E6E9ED" width="65.2" height="3.7"/>
		
			<rect x="1710" y="64.8" transform="matrix(0.9542 -0.2992 0.2992 0.9542 59.8865 524.4194)" fill="#E6E9ED" width="65.2" height="3.7"/>
		
			<rect x="1714.4" y="79.4" transform="matrix(0.9542 -0.2992 0.2992 0.9542 55.7295 526.4106)" fill="#E6E9ED" width="65.2" height="3.7"/>
		
			<rect x="1718.7" y="93.9" transform="matrix(0.9542 -0.2992 0.2992 0.9542 51.5743 528.3611)" fill="#E6E9ED" width="65.2" height="3.7"/>
	</g>
	<g id="coffee">
		<circle fill="#39B54A" cx="1620" cy="-92.4" r="50.6"/>
		<circle fill="#E6E9ED" cx="1625" cy="-94.4" r="50.6"/>
		<path fill="#3498DB" d="M1625-136.1c23,0,41.7,18.7,41.7,41.7S1648-52.7,1625-52.7c-10.4,0-19.9-3.8-27.2-10.1
			c-8.9-7.6-14.5-19-14.5-31.6C1583.3-117.4,1602-136.1,1625-136.1z"/>
		<path id="linecover2" fill="#E6E9ED" d="M1625-137.1c23.6,0,42.7,19.1,42.7,42.7s-19.1,42.7-42.7,42.7c-10.6,0-20.3-3.9-27.8-10.3
			c-9.1-7.8-14.9-19.4-14.9-32.4C1582.3-118,1601.5-137.1,1625-137.1z"/>
		
			<ellipse transform="matrix(0.1184 -0.993 0.993 0.1184 1482.4708 1544.9056)" fill="#D8D8DA" cx="1611.3" cy="-62.4" rx="7.7" ry="11.6"/>
		<polygon fill="#CCD1D9" points="1561.9,-72.2 1602.7,-65.3 1602.3,-61.7 1560.9,-64.5 		"/>
		
			<ellipse transform="matrix(0.1184 -0.993 0.993 0.1184 1482.413 1544.7753)" fill="#AAB2BD" cx="1611.2" cy="-62.4" rx="6.4" ry="9.6"/>
		<path fill="#FFFFFF" d="M1597.8-137.3l9.7,12.5c1.6,2.1,1.2,5-0.8,6.7c-2.1,1.6-5,1.2-6.7-0.8l-9.7-12.5c-1.6-2.1-1.2-5,0.8-6.7
			C1593.2-139.7,1596.1-139.3,1597.8-137.3z"/>
		<circle fill="#FFFFFF" cx="1625" cy="-94.4" r="34.8"/>
		<circle fill="#E6E7E8" cx="1625" cy="-94.4" r="31.3"/>
		<circle fill="#49433C" cx="1625" cy="-94.4" r="29.6"/>
		<path fill="#363532" d="M1603.8-77.9c9.1,11.7,26,13.8,37.7,4.7c0.7-0.5,0.8-1.5,0.3-2.2s-1.5-0.8-2.2-0.3
			c-0.3,0.2-0.6,0.4-0.9,0.6c-0.1,0.1-0.2,0.1-0.2,0.2c-0.3,0.2-0.5,0.4-0.8,0.5c-0.1,0.1-0.2,0.1-0.3,0.2c-0.2,0.1-0.4,0.2-0.6,0.3
			c-0.1,0.1-0.3,0.1-0.4,0.2c-0.2,0.1-0.5,0.2-0.7,0.4c-0.2,0.1-0.4,0.2-0.5,0.3c-0.1,0.1-0.3,0.1-0.4,0.2c-0.2,0.1-0.3,0.2-0.5,0.2
			c-0.2,0.1-0.5,0.2-0.7,0.3c-0.2,0.1-0.3,0.1-0.5,0.2c-0.2,0.1-0.3,0.1-0.5,0.2c-0.1,0-0.3,0.1-0.4,0.1c-0.3,0.1-0.6,0.2-0.9,0.2
			c-0.1,0-0.2,0.1-0.3,0.1c-0.2,0.1-0.5,0.1-0.8,0.2c-0.1,0-0.2,0-0.2,0.1c-0.3,0.1-0.7,0.1-1,0.2c0,0,0,0-0.1,0
			c-0.2,0-0.4,0.1-0.6,0.1c-0.1,0-0.3,0-0.5,0.1h-0.1c-0.7,0.1-1.5,0.1-2.2,0.1l0,0c-0.7,0-1.5,0-2.2-0.1h-0.1c-0.3,0-0.7-0.1-1-0.1
			c0,0,0,0-0.1,0c-0.3,0-0.6-0.1-0.9-0.1c-0.1,0-0.3,0-0.4-0.1c-0.2,0-0.4-0.1-0.5-0.1c-0.6-0.1-1.3-0.3-1.9-0.5l0,0
			c-3.4-1-6.6-2.8-9.2-5.2c0,0,0,0-0.1,0c-0.1-0.1-0.3-0.3-0.4-0.4c-0.1-0.1-0.2-0.2-0.4-0.4c-0.1-0.1-0.2-0.2-0.4-0.4
			c-0.2-0.2-0.4-0.4-0.6-0.7c-0.1-0.1-0.1-0.2-0.2-0.2c-0.2-0.3-0.5-0.5-0.7-0.8c-0.2-0.3-0.4-0.6-0.6-0.9c-0.1-0.1-0.1-0.2-0.2-0.3
			c-0.2-0.2-0.3-0.5-0.5-0.7c-0.1-0.1-0.2-0.3-0.3-0.4c-0.1-0.1-0.2-0.3-0.3-0.4c-0.1-0.2-0.2-0.4-0.3-0.5c0,0,0,0,0-0.1
			c-1.7-3.2-2.6-6.7-2.8-10.3l0,0c0-0.7,0-1.3,0-2c0-0.2,0-0.4,0-0.5s0-0.3,0-0.4c0-0.3,0.1-0.6,0.1-1c0,0,0,0,0-0.1
			c0-0.3,0.1-0.7,0.1-1v-0.1c0.1-0.7,0.3-1.4,0.5-2.2l0,0c0.2-0.7,0.4-1.4,0.7-2.1c0,0,0,0,0-0.1c0.1-0.1,0.1-0.3,0.2-0.4
			c0.1-0.2,0.2-0.4,0.2-0.6c0,0,0,0,0-0.1c0.1-0.3,0.3-0.6,0.4-0.9c0-0.1,0.1-0.1,0.1-0.2c0.1-0.2,0.2-0.5,0.4-0.7
			c0.1-0.1,0.1-0.2,0.2-0.3c0.1-0.3,0.3-0.5,0.5-0.8c0.1-0.1,0.2-0.3,0.3-0.4s0.2-0.3,0.3-0.4c0.1-0.1,0.2-0.3,0.3-0.4
			c0.2-0.2,0.3-0.4,0.5-0.6c0.1-0.1,0.2-0.3,0.3-0.4c0.1-0.1,0.2-0.2,0.3-0.3c0.1-0.2,0.3-0.3,0.4-0.5c0.2-0.2,0.3-0.4,0.5-0.6
			c0.1-0.1,0.2-0.2,0.3-0.3c0.2-0.2,0.3-0.3,0.5-0.5c0.1-0.1,0.1-0.2,0.2-0.2c0.2-0.2,0.5-0.5,0.7-0.7c0.1-0.1,0.1-0.1,0.2-0.2
			c0.3-0.2,0.5-0.5,0.8-0.7c0.7-0.5,0.8-1.5,0.3-2.2s-1.5-0.8-2.2-0.3C1596.8-106.5,1594.7-89.6,1603.8-77.9z"/>
		<path fill="#363532" d="M1613.8-117.1c0.3,0.8,1.3,1.2,2.1,0.8c0.2-0.1,0.4-0.2,0.6-0.3h0.1l0,0c0.2-0.1,0.4-0.1,0.6-0.2l0,0
			c0.1,0,0.1,0,0.2-0.1l0,0c0.2-0.1,0.4-0.1,0.6-0.2l0,0l0,0l0,0c0.4-0.1,0.9-0.3,1.4-0.4c0.1,0,0.1,0,0.2,0
			c0.4-0.1,0.9-0.2,1.3-0.3c0.1,0,0.2,0,0.3-0.1c-0.1,0-0.1,0-0.2,0c0.1,0,0.1,0,0.2,0l0,0c0.1,0,0.3,0,0.4-0.1l0,0
			c0.1,0,0.1,0,0.2,0l0,0h-0.1c0.1,0,0.1,0,0.2,0c0.6-0.1,1.1,0.2,1.4,0.6c0.2,0.2,0.3,0.5,0.3,0.8c0.1,0.9-0.5,1.7-1.3,1.8l0,0l0,0
			c-1.3,0.2-2.6,0.5-3.9,0.9l0,0c0,0,0,0-0.1,0l0,0c-0.4,0.1-0.8,0.3-1.2,0.5c-0.8,0.3-1.1,1.3-0.8,2.1c0.3,0.8,1.3,1.2,2.1,0.8
			c2.2-0.9,4.5-1.4,6.9-1.4c0.1,0,0.1,0,0.2,0c0.2,0,0.3,0,0.5,0c0.1,0,0.2,0,0.3,0c0.1,0,0.3,0,0.5,0c0.1,0,0.2,0,0.3,0
			s0.2,0,0.3,0l0,0c0,0,0,0,0.1,0c0.4,0.1,0.7,0.3,0.9,0.6c0.2,0.3,0.4,0.7,0.3,1.2c-0.1,0.9-0.9,1.5-1.8,1.4c-2.5-0.3-5,0-7.2,1
			h-0.1c-0.8,0.3-1.2,1.3-0.8,2.1c0.3,0.8,1.3,1.2,2.1,0.8c4.6-1.9,10-0.5,13,3.4c3.1,4,3.1,9.5,0.1,13.5c-0.5,0.7-0.4,1.7,0.3,2.2
			c0.7,0.5,1.7,0.4,2.2-0.3l0.2-0.2c1.4-1.9,2.3-4.2,2.6-6.6c0.1-0.9,0.9-1.5,1.8-1.4c0.4,0.1,0.8,0.3,1.1,0.6
			c0.2,0.3,0.3,0.7,0.3,1.1c0,0,0,0,0,0.1l0,0c0,0.1,0,0.2-0.1,0.3c0,0.1,0,0.2,0,0.3c0,0.1-0.1,0.3-0.1,0.4s0,0.2-0.1,0.3
			c0,0.2-0.1,0.3-0.1,0.5c0,0.1,0,0.1,0,0.2c-0.6,2.3-1.6,4.4-3,6.3c-0.5,0.7-0.4,1.7,0.3,2.2c0.7,0.5,1.7,0.4,2.2-0.3
			c0.3-0.4,0.5-0.7,0.8-1.1l0,0c0,0,0,0,0-0.1l0,0c0.7-1.1,1.4-2.3,1.9-3.5l0,0l0,0c0.3-0.8,1.2-1.2,2.1-0.9
			c0.3,0.1,0.5,0.3,0.6,0.5c0.3,0.4,0.4,1,0.2,1.5c0,0.1,0,0.1-0.1,0.2c-0.1,0.2-0.2,0.4-0.2,0.6c0,0.1-0.1,0.2-0.1,0.3
			c-0.1,0.2-0.2,0.4-0.3,0.6c0,0.1-0.1,0.2-0.1,0.2c-0.1,0.2-0.2,0.4-0.3,0.6c0,0.1-0.1,0.1-0.1,0.2c-0.1,0.3-0.3,0.5-0.5,0.8l0,0
			l0,0c-0.1,0.2-0.2,0.4-0.4,0.6l-0.1,0.1l0,0c-0.1,0.1-0.1,0.2-0.2,0.3c0,0.1-0.1,0.1-0.1,0.2c0,0,0,0-0.1,0.1
			c-0.1,0.2-0.3,0.4-0.4,0.6c-0.5,0.7-0.4,1.7,0.3,2.2c0.7,0.5,1.7,0.4,2.2-0.3c7.3-9.7,7.3-23.1-0.2-32.7s-20.5-13-31.6-8.3
			C1613.8-118.8,1613.4-117.9,1613.8-117.1z M1646.7-84.7c0,0.1-0.1,0.2-0.1,0.2C1646.6-84.6,1646.6-84.7,1646.7-84.7z M1646.3-83.9
			c0,0.1-0.1,0.1-0.1,0.2C1646.2-83.7,1646.2-83.8,1646.3-83.9z M1645.8-83L1645.8-83C1645.8-82.9,1645.8-83,1645.8-83z
			 M1646.9-85.4C1646.9-85.4,1646.9-85.5,1646.9-85.4C1647-85.5,1647-85.5,1646.9-85.4C1647-85.4,1647-85.4,1646.9-85.4z"/>
		<path fill="#363532" d="M1643.9-80.1L1643.9-80.1c0.2-0.2,0.3-0.4,0.4-0.6C1644.2-80.4,1644-80.3,1643.9-80.1z"/>
	</g>
</g>
<g id="title">
	<text id="texttitle" transform="matrix(1 0 0 1 512.931 -322.0194)" fill="#F5F7FA" font-family="'Roboto-Thin'" font-size="36px">At work, I do:</text>
</g>
<path id="wire3" fill="none" stroke="#DBDBDB" stroke-miterlimit="10" enable-background="new    " d="M1169.1-370.2l-3.8,2.2
	c-21.2,19.3-38.9,40.8-57.3,62.4c-20.9,24.4-50.5,40.6-81.1,49.3c-34.8,9.9-71.5,11-107.6,9.3c-19.7-1-40.4-2.6-58.4,5.5
	C774.3-203,786-15,893.3-15c91.1,0,204.7,0,295.9,0c0-22.6,0-60.9,0-90.1c31.9,0,29.2,0.1,64.3,0.1c46.1,0,100.7,0,146.7,0
	c0,18.9,0.7,70.3,0.7,87.3c0,38.2,0,117.9,0,156.1c-36.7,0-11.8,0.4-65.7,0.4c-21.5,0-42.4,2.6-64,2.1c-29.3-0.7-57.9-3.9-87.1-4.3
	c-3.7-0.1-7.6-0.1-11-1.7c-3.4-1.6-5.9-4.4-8.4-7.2c-10.2-11.1-21.7-21.1-34.1-29.7c-8.4,7.1-14.5,16.8-17.3,27.4
	c-8.8-18-16-36.8-21.4-56.1c-7.2,7.6-14.5,15.2-21.7,22.9c-2.4,2.5-5,5.2-8.4,6c-5.9,1.4-11.4-3-15.8-7.2
	c-17.7-16.7-25.5-33.3-43.2-50c-6.6,6.6-13.9,12.9-22,24.7c-8.5-17.1-13.8-35.9-14.3-54.9C953.2,47.4,943,85,935.9,123.2
	c-21.4-0.3-42.8-5-63.9-4.9c-27.6,0.1-55.9,3.6-79.8,18.2c-71.5,43.4-34.2,173.1-108,208.6c-32.3,15.5-93.5,2.7-97.8,54.9"/>
<g id="tblock1">
	<path fill="#3498DB" d="M909.4-252.5h257.1v37.9H909.4V-252.5z"/>
	<path fill="#3498DB" d="M1043.4-176.5l-13-48l24,0L1043.4-176.5z"/>
	<g>
		<g>
			<text transform="matrix(1 0 0 1 967.8848 -192.0213)" fill="#ECF0F1" font-family="'ArialHebrew-Light'" font-size="21px"> </text>
		</g>
		<g>
			
				<text transform="matrix(1 0 0 1 917.2407 -229.4725)" display="none" fill="#ECF0F1" enable-background="new    " font-family="'Roboto-Light'" font-size="18px">UX and Design </text>
			<text transform="matrix(1 0 0 1 917.6499 -227.2889)" fill="#ECF0F1" font-family="'Roboto-Light'" font-size="18px">Front-End development </text>
			<text transform="matrix(1 0 0 1 953.228 -233.2889)" fill="#ECF0F1" font-family="'ArialHebrew-Light'" font-size="21px"> </text>
			<text transform="matrix(1 0 0 1 992.683 -263.2889)" fill="#ECF0F1" font-family="'ArialHebrew-Light'" font-size="21px"> </text>
			<text transform="matrix(1 0 0 1 1059.647 -263.2889)" fill="#ECF0F1" font-family="'ArialHebrew-Light'" font-size="21px"> </text>
		</g>
		<g>
			<text transform="matrix(1 0 0 1 1017.2588 -215.7781)" fill="#ECF0F1" font-family="'ArialHebrew-Light'" font-size="21px"> </text>
		</g>
	</g>
</g>
<g id="tblock2">
	<path fill="#3498DB" d="M1231.3-172.2h257.1v31.6h-257.1V-172.2z"/>
	<path fill="#3498DB" d="M1360.8-108l-13-48h24L1360.8-108z"/>
	<text transform="matrix(1 0 0 1 1242.1345 -151.037)" fill="#ECF0F1" font-family="'Roboto-Light'" font-size="18px">Mobile Applications</text>
	
		<text transform="matrix(1 0 0 1 1242.1345 -158.766)" display="none" fill="#ECF0F1" enable-background="new    " font-family="'Roboto-Light'" font-size="18px">Responsive </text>
</g>
<g id="tblock3">
	<path fill="#3498DB" d="M1196.9,199.3h314.3v124.8h-314.3V199.3z"/>
	<path fill="#3498DB" d="M1152,261.6l48-13v24L1152,261.6z"/>
	<g>
		<g>
			<text transform="matrix(1 0 0 1 1213.1407 228.6191)" fill="#ECF0F1" font-family="'Roboto-Light'" font-size="18px">Back-End development</text>
			<text transform="matrix(1 0 0 1 1275.5231 224.0146)" fill="#ECF0F1" font-family="'ArialHebrew-Light'" font-size="21px"> </text>
			<text transform="matrix(1 0 0 1 1417.5797 224.0146)" fill="#ECF0F1" font-family="'Roboto-Light'" font-size="18px"> </text>
		</g>
		<g>
			<text transform="matrix(1 0 0 1 1285.4781 247.7704)" fill="#ECF0F1" font-family="'ArialHebrew-Light'" font-size="21px"> </text>
			<text transform="matrix(1 0 0 1 1304.0172 247.7704)" fill="#ECF0F1" font-family="'ArialHebrew-Light'" font-size="21px"> </text>
			<text transform="matrix(1 0 0 1 1367.1598 247.7704)" fill="#ECF0F1" font-family="'ArialHebrew-Light'" font-size="21px"> </text>
		</g>
		<g>
			<text transform="matrix(1 0 0 1 1255.1539 271.5263)" fill="#ECF0F1" font-family="'ArialHebrew-Light'" font-size="21px"> </text>
		</g>
		<g>
			<text transform="matrix(1 0 0 1 1213.1407 253.3192)" fill="#ECF0F1" font-family="'Roboto-Light'" font-size="18px">Design Patterns</text>
			<text transform="matrix(1 0 0 1 1213.1407 304.8857)" fill="#ECF0F1" font-family="'Roboto-Light'" font-size="18px">Collect Data From Internet</text>
			<text transform="matrix(1 0 0 1 1325.3737 295.2821)" fill="#ECF0F1" font-family="'ArialHebrew-Light'" font-size="21px"> </text>
		</g>
		<text transform="matrix(1 0 0 1 1213.1407 278.8857)" fill="#ECF0F1" font-family="'Roboto-Light'" font-size="18px">Build Complex Software</text>
	</g>
</g>
</svg>
