<?xml version="1.0" encoding="utf-8"?>
<!-- Generator: Adobe Illustrator 23.0.1, SVG Export Plug-In . SVG Version: 6.00 Build 0)  -->
<svg version="1.1" id="svg5" xmlns="http://www.w3.org/2000/svg" xmlns:xlink="http://www.w3.org/1999/xlink" x="0px" y="0px"
	 viewBox="496 -368 1024 768" enable-background="new 496 -368 1024 768" xml:space="preserve">
<rect x="-5911" y="-4990.1" fill="#E74C3C" stroke="#E74C3C" stroke-miterlimit="10" width="14063" height="10085.2"/>
<g id="scene_1_">
	<g id="components">
		<g id="desks">
			<g id="desk">
				<g>
					<g id="mouse04">
						<path fill="#BE3D2F" d="M1438.6,250.3C1438.6,250.3,1438.6,250.3,1438.6,250.3c-9.8-2.1-19.5,4.1-21.7,13.9c0,0,0,0.1,0,0.1
							l0,0.2l-7.2,33.4c0,0.1,0,0.3-0.1,0.4l-0.4,1.8h0c-2.1,9.9,4.2,19.4,14,21.5c9.8,2.1,19.6-4.2,21.7-14l7.7-35.6
							C1454.7,262.2,1448.5,252.5,1438.6,250.3z"/>
						<g>
							<g>
								<path fill="#DCE4E8" d="M1421.1,261.8c0,0,0,0.1,0,0.1l0,0.2l-7.2,33.4c0,0.1,0,0.2-0.1,0.3l-0.4,1.6h0
									c-2.1,10.1,4.2,19.5,14,21.6l15.4-71.1C1432.9,245.7,1423.2,252,1421.1,261.8z"/>
								<path fill="#F7F9F8" d="M1442.8,247.8C1442.8,247.8,1442.8,247.8,1442.8,247.8l-15.4,71.1c9.8,2.1,19.6-4.2,21.7-13.9
									l-0.1,0l0,0l0,0l0.1,0l7.7-35.5C1458.8,259.7,1452.6,250,1442.8,247.8z"/>
							</g>
						</g>
					</g>
					<g>
						<path fill="#BE3D2F" d="M1204.4-156.9c1.5-6.5,8-10.5,14.4-8.9l57.1,13.4c6.5,1.5,10.5,8,8.9,14.4l-5.8,55.5
							c-1.5,6.5-8,10.5-14.4,8.9l-70.8-16.6c-6.5-1.5-10.5-8-8.9-14.4L1204.4-156.9z"/>
						<path fill="#656D78" d="M1211.6-160.4c1.5-6.5,8-10.5,14.4-8.9l57.1,13.4c6.5,1.5,10.5,8,8.9,14.4l-5.8,55.5
							c-1.5,6.5-8,10.5-14.4,8.9l-70.8-16.6c-6.5-1.5-10.5-8-8.9-14.4L1211.6-160.4z"/>
						<path fill="#AAB2BD" d="M1216.8-159.2c1.5-6.5,8-10.5,14.4-8.9l46.1,10.8c6.5,1.5,10.5,8,8.9,14.4l-2.7,11.7
							c-1.5,6.5-8,10.5-14.4,8.9l-46.1-10.8c-6.5-1.5-10.5-8-8.9-14.4L1216.8-159.2z"/>
						
							<radialGradient id="imaclight_1_" cx="1197.0829" cy="-1165.9751" r="262.5483" gradientTransform="matrix(0.9773 0.2118 5.430000e-02 -0.2503 130.0341 -642.0239)" gradientUnits="userSpaceOnUse">
							<stop  offset="0.103" style="stop-color:#FFFFFF;stop-opacity:0.4"/>
							<stop  offset="0.7955" style="stop-color:#FFFFFF;stop-opacity:5.650000e-02"/>
							<stop  offset="0.9095" style="stop-color:#FFFFFF;stop-opacity:0"/>
						</radialGradient>
						<polygon id="imaclight" fill="url(#imaclight_1_)" points="1547.3,34.5 969.1,-96.9 1024.9,-195.3 1542.3,-74.2 						"/>
						
							<rect x="1229.5" y="-378.2" transform="matrix(0.228 -0.9737 0.9737 0.228 1070.0143 1124.6145)" fill="#E6E9ED" width="29.3" height="531.5"/>
						<path fill="#656D78" d="M1506.2-66.1c0,0-107-42.9-257.3-78c-150.3-35.2-260-43.1-260-43.1L1506.2-66.1z"/>
					</g>
					<g>
						<g>
							<g>
								
									<rect x="1100.1" y="44.3" transform="matrix(0.1821 -0.9833 0.9833 0.1821 759.1727 1271.7751)" fill="#BE3D2F" width="87.9" height="270.6"/>
							</g>
						</g>
						<g>
							<g>
								
									<rect x="1104" y="41.6" transform="matrix(0.1821 -0.9833 0.9833 0.1821 764.9572 1273.4569)" fill="#E6E9ED" width="87.9" height="270.6"/>
							</g>
						</g>
						<g id="keyboard">
							
								<rect x="1016" y="177.9" transform="matrix(0.1821 -0.9833 0.9833 0.1821 654.9297 1156.6647)" fill="#CCD1D9" width="13.5" height="13.5"/>
							
								<rect x="1019.7" y="157.9" transform="matrix(0.182 -0.9833 0.9833 0.182 677.7053 1144.0094)" fill="#CCD1D9" width="13.5" height="13.5"/>
							
								<rect x="1023.3" y="138" transform="matrix(0.182 -0.9833 0.9833 0.182 700.2773 1131.3236)" fill="#CCD1D9" width="13.5" height="13.5"/>
							
								<rect x="1027.1" y="118" transform="matrix(0.1821 -0.9833 0.9833 0.1821 722.8626 1118.6346)" fill="#CCD1D9" width="13.5" height="13.5"/>
							
								<rect x="1035.9" y="181.6" transform="matrix(0.1821 -0.9833 0.9833 0.1821 667.5889 1179.2991)" fill="#CCD1D9" width="13.5" height="13.5"/>
							
								<rect x="1039.7" y="161.6" transform="matrix(0.1821 -0.9833 0.9833 0.1821 690.347 1166.6438)" fill="#CCD1D9" width="13.5" height="13.5"/>
							
								<rect x="1043.4" y="141.6" transform="matrix(0.1821 -0.9833 0.9833 0.1821 713.0759 1153.9805)" fill="#CCD1D9" width="13.5" height="13.5"/>
							
								<rect x="1047" y="121.8" transform="matrix(0.1821 -0.9833 0.9833 0.1821 735.4478 1141.2308)" fill="#CCD1D9" width="13.5" height="13.5"/>
							
								<rect x="1056" y="185.2" transform="matrix(0.1821 -0.9833 0.9833 0.1821 680.4359 1201.9796)" fill="#CCD1D9" width="13.5" height="13.5"/>
							
								<rect x="1059.6" y="165.3" transform="matrix(0.182 -0.9833 0.9833 0.182 703.0812 1189.2806)" fill="#CCD1D9" width="13.5" height="13.5"/>
							
								<rect x="1063.3" y="145.3" transform="matrix(0.1819 -0.9833 0.9833 0.1819 725.8368 1176.6158)" fill="#CCD1D9" width="13.5" height="13.5"/>
							
								<rect x="1067" y="125.4" transform="matrix(0.182 -0.9833 0.9833 0.182 748.3533 1163.9092)" fill="#CCD1D9" width="13.5" height="13.5"/>
							
								<rect x="1115.7" y="155.7" transform="matrix(0.182 -0.9833 0.9833 0.182 718.5101 1269.8857)" fill="#CCD1D9" width="13.5" height="94.7"/>
							
								<rect x="1079.5" y="169" transform="matrix(0.182 -0.9833 0.9833 0.182 715.7654 1211.9203)" fill="#CCD1D9" width="13.5" height="13.5"/>
							
								<rect x="1083.2" y="149.1" transform="matrix(0.182 -0.9833 0.9833 0.182 738.3907 1199.2286)" fill="#CCD1D9" width="13.5" height="13.5"/>
							
								<rect x="1087" y="129.1" transform="matrix(0.1821 -0.9833 0.9833 0.1821 760.9971 1186.527)" fill="#CCD1D9" width="13.5" height="13.5"/>
							
								<rect x="1099.4" y="172.7" transform="matrix(0.1821 -0.9833 0.9833 0.1821 728.2806 1234.5272)" fill="#CCD1D9" width="13.5" height="13.5"/>
							
								<rect x="1103.2" y="152.8" transform="matrix(0.1822 -0.9833 0.9833 0.1822 750.832 1221.8287)" fill="#CCD1D9" width="13.5" height="13.5"/>
							
								<rect x="1106.9" y="132.8" transform="matrix(0.1819 -0.9833 0.9833 0.1819 773.8429 1209.2003)" fill="#CCD1D9" width="13.5" height="13.5"/>
							
								<rect x="1119.4" y="176.4" transform="matrix(0.1819 -0.9833 0.9833 0.1819 741.2073 1257.2061)" fill="#CCD1D9" width="13.5" height="13.5"/>
							
								<rect x="1123.1" y="156.5" transform="matrix(0.1819 -0.9833 0.9833 0.1819 763.7997 1244.5281)" fill="#CCD1D9" width="13.5" height="13.5"/>
							
								<rect x="1126.8" y="136.5" transform="matrix(0.1819 -0.9833 0.9833 0.1819 786.4533 1231.8464)" fill="#CCD1D9" width="13.5" height="13.5"/>
							
								<rect x="1139.5" y="180" transform="matrix(0.1819 -0.9833 0.9833 0.1819 754.0768 1279.8807)" fill="#CCD1D9" width="13.5" height="13.5"/>
							
								<rect x="1143.1" y="160.2" transform="matrix(0.1821 -0.9833 0.9833 0.1821 776.3105 1267.1241)" fill="#CCD1D9" width="13.5" height="13.5"/>
							
								<rect x="1146.8" y="140.2" transform="matrix(0.182 -0.9833 0.9833 0.182 799.0576 1254.473)" fill="#CCD1D9" width="13.5" height="13.5"/>
							
								<rect x="1159.5" y="183.7" transform="matrix(0.1822 -0.9833 0.9833 0.1822 766.483 1302.4493)" fill="#CCD1D9" width="13.5" height="13.5"/>
							
								<rect x="1163" y="163.8" transform="matrix(0.1821 -0.9833 0.9833 0.1821 788.9988 1289.7581)" fill="#CCD1D9" width="13.5" height="13.5"/>
							
								<rect x="1166.7" y="143.9" transform="matrix(0.1821 -0.9833 0.9833 0.1821 811.6773 1277.1035)" fill="#CCD1D9" width="13.5" height="13.5"/>
							
								<rect x="1175.6" y="207.5" transform="matrix(0.1822 -0.9833 0.9833 0.1822 756.2745 1337.7444)" fill="#CCD1D9" width="13.5" height="13.5"/>
							
								<rect x="1179.3" y="187.5" transform="matrix(0.1822 -0.9833 0.9833 0.1822 779.0004 1325.0538)" fill="#CCD1D9" width="13.5" height="13.5"/>
							
								<rect x="1183" y="167.5" transform="matrix(0.1819 -0.9833 0.9833 0.1819 801.9691 1312.4642)" fill="#CCD1D9" width="13.5" height="13.5"/>
							
								<rect x="1186.8" y="147.4" transform="matrix(0.182 -0.9833 0.9833 0.182 824.7137 1299.7664)" fill="#CCD1D9" width="13.5" height="13.5"/>
							
								<rect x="1195.6" y="211.1" transform="matrix(0.182 -0.9833 0.9833 0.182 769.2917 1360.4404)" fill="#CCD1D9" width="13.5" height="13.5"/>
							
								<rect x="1199.2" y="191.2" transform="matrix(0.1821 -0.9833 0.9833 0.1821 791.651 1347.7064)" fill="#CCD1D9" width="13.5" height="13.5"/>
							
								<rect x="1203" y="171.2" transform="matrix(0.182 -0.9833 0.9833 0.182 814.6002 1335.072)" fill="#CCD1D9" width="13.5" height="13.5"/>
							
								<rect x="1206.5" y="151.4" transform="matrix(0.1821 -0.9833 0.9833 0.1821 836.8282 1322.3303)" fill="#CCD1D9" width="13.5" height="13.5"/>
							
								<rect x="1215.6" y="214.7" transform="matrix(0.1821 -0.9833 0.9833 0.1821 781.9966 1383.0844)" fill="#CCD1D9" width="13.5" height="13.5"/>
							
								<rect x="1219.2" y="194.8" transform="matrix(0.182 -0.9833 0.9833 0.182 804.6698 1370.3986)" fill="#CCD1D9" width="13.5" height="13.5"/>
							
								<rect x="1222.9" y="174.9" transform="matrix(0.182 -0.9833 0.9833 0.182 827.2391 1357.7018)" fill="#CCD1D9" width="13.5" height="13.5"/>
							
								<rect x="1226.6" y="155" transform="matrix(0.1821 -0.9833 0.9833 0.1821 849.7412 1344.9957)" fill="#CCD1D9" width="13.5" height="13.5"/>
							
								<rect x="1235.4" y="218.5" transform="matrix(0.1822 -0.9833 0.9833 0.1822 794.3459 1405.6364)" fill="#CCD1D9" width="13.5" height="13.5"/>
							
								<rect x="1239.2" y="198.5" transform="matrix(0.1821 -0.9833 0.9833 0.1821 817.1885 1392.9866)" fill="#CCD1D9" width="13.5" height="13.5"/>
							
								<rect x="1242.8" y="178.6" transform="matrix(0.1819 -0.9833 0.9833 0.1819 840.0085 1380.376)" fill="#CCD1D9" width="13.5" height="13.5"/>
							
								<rect x="1246.5" y="158.6" transform="matrix(0.1819 -0.9833 0.9833 0.1819 862.717 1367.6479)" fill="#CCD1D9" width="13.5" height="13.5"/>
							
								<rect x="1247.1" y="212.2" transform="matrix(0.1819 -0.9833 0.9833 0.1819 818.7712 1422.0508)" fill="#CCD1D9" width="33.8" height="13.5"/>
							
								<rect x="1262.7" y="182.4" transform="matrix(0.1819 -0.9833 0.9833 0.1819 852.5396 1402.9943)" fill="#CCD1D9" width="13.5" height="13.5"/>
							
								<rect x="1266.5" y="162.4" transform="matrix(0.1822 -0.9833 0.9833 0.1822 874.9198 1390.2444)" fill="#CCD1D9" width="13.5" height="13.5"/>
						</g>
					</g>
				</g>
				<g id="freelance">
					<g display="none">
						<g display="inline">
							<path fill="#586273" d="M716.3-70.6l-36.4,12.8c-2.9,1-4.4,4.2-3.4,7L702,22c1,2.9,4.2,4.4,7,3.4l36.4-12.8
								c2.9-1,4.4-4.2,3.4-7l-25.5-72.8C722.3-70,719.1-71.6,716.3-70.6z M741.8,2.2L705.4,15l-23.7-67.6c0,0,0,0,0,0l36.4-12.8
								c0,0,0,0,0,0L741.8,2.2L741.8,2.2z"/>
						</g>
						<g display="inline">
							<g>
								
									<rect x="721.3" y="12.4" transform="matrix(0.9436 -0.331 0.331 0.9436 36.3391 240.9049)" fill="#464E5C" width="8.3" height="2.8"/>
							</g>
						</g>
						<g display="inline">
							<g>
								<g>
									<polygon fill="#F7F9F8" points="681.7,-52.6 681.7,-52.6 705.4,15 741.8,2.2 718.1,-65.4 718.1,-65.4 									"/>
								</g>
							</g>
						</g>
						<g display="inline">
							<g>
								<g>
									<path fill="#62C3ED" d="M720.1-35l-2.3-3.3c-0.2-0.3-0.8-0.7-1.2-0.7l-6.7-0.5c0,0,0,0,0,0l-0.4-1.1
										c0.5-1.4,0.5-3.2-0.1-4.9l-0.5-1.4c-0.9-2.5-3.5-3.9-5.9-3l0,0l0,0l0,0c-2.4,0.8-3.6,3.5-2.7,6l0.5,1.4
										c0.6,1.8,1.7,3.1,3,3.9l0.4,1.1c0,0,0,0,0,0l-4.9,4.6c-0.3,0.3-0.5,0.9-0.5,1.3l0.2,4c0,0.4,0.4,0.6,0.8,0.5l10-3.5l0,0
										l10-3.5C720.3-34.3,720.4-34.7,720.1-35z"/>
								</g>
							</g>
						</g>
						<g display="inline">
							<g>
								
									<rect x="701.4" y="-24.1" transform="matrix(0.9436 -0.331 0.331 0.9436 47.1907 234.882)" fill="#DCE4E8" width="23.6" height="5.9"/>
							</g>
						</g>
						<g display="inline">
							<g>
								
									<rect x="704.3" y="-15.7" transform="matrix(0.9436 -0.331 0.331 0.9436 44.5938 236.3283)" fill="#DCE4E8" width="23.6" height="5.9"/>
							</g>
						</g>
						<g display="inline">
							<g>
								
									<rect x="713" y="-7.3" transform="matrix(0.9436 -0.331 0.331 0.9436 41.963 237.7315)" fill="#DCE4E8" width="11.8" height="5.9"/>
							</g>
						</g>
						<g display="inline">
							<g>
								<g>
									<circle fill="#586273" cx="707.7" cy="-9.8" r="1.1"/>
								</g>
							</g>
							<g>
								<g>
									<circle fill="#586273" cx="713.2" cy="-11.7" r="1.1"/>
								</g>
							</g>
							<g>
								<g>
									<circle fill="#586273" cx="710.4" cy="-10.8" r="1.1"/>
								</g>
							</g>
							<g>
								<g>
									<circle fill="#586273" cx="716" cy="-12.7" r="1.1"/>
								</g>
							</g>
							<g>
								<g>
									<circle fill="#586273" cx="704.7" cy="-18.1" r="1.1"/>
								</g>
							</g>
							<g>
								<g>
									<circle fill="#586273" cx="715.9" cy="-22.1" r="1.1"/>
								</g>
							</g>
							<g>
								<g>
									<circle fill="#586273" cx="710.3" cy="-20.1" r="1.1"/>
								</g>
							</g>
							<g>
								<g>
									<circle fill="#586273" cx="707.5" cy="-19.1" r="1.1"/>
								</g>
							</g>
							<g>
								<g>
									<circle fill="#586273" cx="713.1" cy="-21.1" r="1.1"/>
								</g>
							</g>
						</g>
						<g display="inline">
							<g>
								
									<rect x="716.1" y="-5.2" transform="matrix(0.9436 -0.3311 0.3311 0.9436 41.9969 237.8192)" fill="#EF8555" width="5.9" height="1.8"/>
							</g>
						</g>
						<g display="inline" opacity="0.2">
							<path fill="#DCE4E8" d="M698.3-64.3l-18.4,6.5c-2.9,1-4.4,4.2-3.4,7L702,22c1,2.9,4.2,4.4,7,3.4l18.4-6.5L698.3-64.3z"/>
						</g>
					</g>
					<g>
						<g>
							<g>
								<circle fill="#BE3D2F" cx="1399.3" cy="119.3" r="43.9"/>
							</g>
						</g>
						<g>
							<g>
								<circle fill="#F7F9F8" cx="1412.3" cy="111.3" r="43.9"/>
							</g>
						</g>
						<g>
							<g>
								<path fill="#F7F9F8" d="M1454.1,159.8c-2.1,0-4.2-0.8-5.8-2.4l-19.2-19.2c-3.2-3.2-3.2-8.4,0-11.6c3.2-3.2,8.4-3.2,11.6,0
									l19.2,19.2c3.2,3.2,3.2,8.4,0,11.6C1458.3,159,1456.2,159.8,1454.1,159.8z"/>
							</g>
						</g>
						<g>
							<g>
								<path fill="#EF8555" d="M1444.3,103.5c-1.4-5.7-4.3-11.1-8.7-15.5c-12.9-12.9-33.7-12.9-46.6,0c-4.4,4.4-7.3,9.8-8.7,15.5
									c-2.6,10.8,0.3,22.6,8.7,31c12.9,12.9,33.7,12.9,46.6,0C1444,126.1,1447,114.3,1444.3,103.5z"/>
							</g>
						</g>
						<g>
							<g>
								<g>
									<path fill="#382104" d="M1384.2,94.1c5-3.1,10.9-4.8,17.1-4.8c18.2,0,32.9,14.7,32.9,32.9c0,6.3-1.8,12.1-4.8,17.1
										c9.5-5.8,15.8-16.2,15.8-28.1c0-18.2-14.7-32.9-32.9-32.9C1400.4,78.3,1390,84.7,1384.2,94.1z"/>
								</g>
							</g>
							<g>
								<g>
									<path fill="#5E2905" d="M1401.4,89.3c-6.3,0-12.1,1.8-17.1,4.8c-3.1,5-4.8,10.9-4.8,17.1c0,18.2,14.7,32.9,32.9,32.9
										c6.3,0,12.1-1.8,17.1-4.8c3.1-5,4.8-10.9,4.8-17.1C1434.3,104.1,1419.6,89.3,1401.4,89.3z"/>
								</g>
							</g>
						</g>
					</g>
				</g>
				<path id="wire5" fill="none" stroke="#DBDBDB" stroke-miterlimit="10" enable-background="new    " d="M1582.5-614.8
					c-18.5,62-198.3,159.1-173.5,246.8c4.3,15.1,5.8,29.9,24.6,44.1c8.3,6.3,109.8,50.3,48.2,54.4c-44.3,2.9-91.1-10.1-134.4-17.9
					c-20.4-3.6-220.9-43.3-181.2,28c22,39.6,210.5,106.9,200.9,145.1"/>
			</g>
		</g>
		<text id="title" transform="matrix(1 0 0 1 533.3481 -307.748)" fill="#F5F7FA" font-family="'Roboto-Thin'" font-size="36px">My skills about</text>
		
			<text id="subTitle1" transform="matrix(1 0 0 1 771.097 -307.7479)" fill="#F5F7FA" font-family="'Roboto-Thin'" font-size="36px">front end development</text>
		
			<text id="subTitle2" transform="matrix(1 0 0 1 771.097 -307.7479)" fill="#F5F7FA" font-family="'Roboto-Thin'" font-size="36px">back end development</text>
	</g>
	<g id="skills">
		<g id="fed">
			<g id="HTML">
				<g>
					<g>
						<polygon fill="#FEA621" points="667.4,-255.4 675.1,-239.7 692.5,-237.2 679.9,-225 682.9,-207.8 667.4,-215.9 651.9,-207.8 
							654.9,-225 642.4,-237.2 659.7,-239.7 						"/>
						<g>
							<polygon fill="none" points="678.1,-239.3 653,-214.3 651.9,-207.8 667.4,-215.9 682.9,-207.8 679.9,-225 692.5,-237.2 
															"/>
							<polygon fill="none" points="670.6,-249 650.7,-229.1 653.2,-226.6 672.2,-245.6 							"/>
							<polygon fill="#FEBF61" points="667.4,-255.4 659.7,-239.7 642.4,-237.2 650.7,-229.1 670.6,-249 							"/>
							<polygon fill="#FEBF61" points="675.1,-239.7 672.2,-245.6 653.2,-226.6 654.9,-225 653,-214.3 678.1,-239.3 							"/>
						</g>
					</g>
					<g>
						<polygon fill="#FEA621" points="731.3,-255.4 739,-239.7 756.3,-237.2 743.8,-225 746.7,-207.8 731.3,-215.9 715.8,-207.8 
							718.7,-225 706.2,-237.2 723.5,-239.7 						"/>
						<g>
							<polygon fill="none" points="741.9,-239.3 716.9,-214.3 715.8,-207.8 731.3,-215.9 746.7,-207.8 743.8,-225 756.3,-237.2 
															"/>
							<polygon fill="none" points="734.4,-249 714.5,-229.1 717.1,-226.6 736.1,-245.6 							"/>
							<polygon fill="#FEBF61" points="731.3,-255.4 723.5,-239.7 706.2,-237.2 714.5,-229.1 734.4,-249 							"/>
							<polygon fill="#FEBF61" points="739,-239.7 736.1,-245.6 717.1,-226.6 718.7,-225 716.9,-214.3 741.9,-239.3 							"/>
						</g>
					</g>
					<g>
						<polygon fill="#FEA621" points="795.1,-255.4 802.9,-239.7 820.2,-237.2 807.6,-225 810.6,-207.8 795.1,-215.9 779.6,-207.8 
							782.6,-225 770.1,-237.2 787.4,-239.7 						"/>
						<g>
							<polygon fill="none" points="805.8,-239.3 780.8,-214.3 779.6,-207.8 795.1,-215.9 810.6,-207.8 807.6,-225 820.2,-237.2 
															"/>
							<polygon fill="none" points="798.3,-249 778.4,-229.1 781,-226.6 800,-245.6 							"/>
							<polygon fill="#FEBF61" points="795.1,-255.4 787.4,-239.7 770.1,-237.2 778.4,-229.1 798.3,-249 							"/>
							<polygon fill="#FEBF61" points="802.9,-239.7 800,-245.6 781,-226.6 782.6,-225 780.8,-214.3 805.8,-239.3 							"/>
						</g>
					</g>
					<g>
						<polygon fill="#FEA621" points="859,-255.4 866.7,-239.7 884,-237.2 871.5,-225 874.5,-207.8 859,-215.9 843.5,-207.8 
							846.5,-225 833.9,-237.2 851.2,-239.7 						"/>
						<g>
							<polygon fill="none" points="869.6,-239.3 844.6,-214.3 843.5,-207.8 859,-215.9 874.5,-207.8 871.5,-225 884,-237.2 							
								"/>
							<polygon fill="none" points="862.1,-249 842.3,-229.1 844.8,-226.6 863.8,-245.6 							"/>
							<polygon fill="#FEBF61" points="859,-255.4 851.2,-239.7 833.9,-237.2 842.3,-229.1 862.1,-249 							"/>
							<polygon fill="#FEBF61" points="866.7,-239.7 863.8,-245.6 844.8,-226.6 846.5,-225 844.6,-214.3 869.6,-239.3 							"/>
						</g>
					</g>
					<g>
						<polygon fill="#FEA621" points="922.8,-255.4 930.6,-239.7 947.9,-237.2 935.4,-225 938.3,-207.8 922.8,-215.9 907.4,-207.8 
							910.3,-225 897.8,-237.2 915.1,-239.7 						"/>
						<g>
							<polygon fill="none" points="933.5,-239.3 908.5,-214.3 907.4,-207.8 922.8,-215.9 938.3,-207.8 935.4,-225 947.9,-237.2 
															"/>
							<polygon fill="none" points="926,-249 906.1,-229.1 908.7,-226.6 927.7,-245.6 							"/>
							<polygon fill="#FEBF61" points="922.8,-255.4 915.1,-239.7 897.8,-237.2 906.1,-229.1 926,-249 							"/>
							<polygon fill="#FEBF61" points="930.6,-239.7 927.7,-245.6 908.7,-226.6 910.3,-225 908.5,-214.3 933.5,-239.3 							"/>
						</g>
					</g>
				</g>
				
					<text id="title_2_" transform="matrix(1 0 0 1 506.897 -224.2786)" fill="#F5F7FA" font-family="'Roboto-Thin'" font-size="25px">HTML</text>
			</g>
			<g id="CSS">
				<g>
					<g>
						<polygon fill="#FEA621" points="666.9,-185.1 674.7,-169.4 692,-166.9 679.5,-154.7 682.4,-137.4 666.9,-145.6 651.5,-137.4 
							654.4,-154.7 641.9,-166.9 659.2,-169.4 						"/>
						<g>
							<polygon fill="none" points="677.6,-169 652.6,-143.9 651.5,-137.4 666.9,-145.6 682.4,-137.4 679.5,-154.7 692,-166.9 
															"/>
							<polygon fill="none" points="670.1,-178.6 650.2,-158.8 652.8,-156.3 671.8,-175.2 							"/>
							<polygon fill="#FEBF61" points="666.9,-185.1 659.2,-169.4 641.9,-166.9 650.2,-158.8 670.1,-178.6 							"/>
							<polygon fill="#FEBF61" points="674.7,-169.4 671.8,-175.2 652.8,-156.3 654.4,-154.7 652.6,-143.9 677.6,-169 							"/>
						</g>
					</g>
					<g>
						<polygon fill="#FEA621" points="730.8,-185.1 738.5,-169.4 755.8,-166.9 743.3,-154.7 746.3,-137.4 730.8,-145.6 
							715.3,-137.4 718.3,-154.7 705.7,-166.9 723,-169.4 						"/>
						<g>
							<polygon fill="none" points="741.5,-169 716.4,-143.9 715.3,-137.4 730.8,-145.6 746.3,-137.4 743.3,-154.7 755.8,-166.9 
															"/>
							<polygon fill="none" points="734,-178.6 714.1,-158.8 716.6,-156.3 735.6,-175.2 							"/>
							<polygon fill="#FEBF61" points="730.8,-185.1 723,-169.4 705.7,-166.9 714.1,-158.8 734,-178.6 							"/>
							<polygon fill="#FEBF61" points="738.5,-169.4 735.6,-175.2 716.6,-156.3 718.3,-154.7 716.4,-143.9 741.5,-169 							"/>
						</g>
					</g>
					<g>
						<polygon fill="#FEA621" points="794.6,-185.1 802.4,-169.4 819.7,-166.9 807.2,-154.7 810.1,-137.4 794.6,-145.6 
							779.2,-137.4 782.1,-154.7 769.6,-166.9 786.9,-169.4 						"/>
						<g>
							<polygon fill="none" points="805.3,-169 780.3,-143.9 779.2,-137.4 794.6,-145.6 810.1,-137.4 807.2,-154.7 819.7,-166.9 
															"/>
							<polygon fill="none" points="797.8,-178.6 777.9,-158.8 780.5,-156.3 799.5,-175.2 							"/>
							<polygon fill="#FEBF61" points="794.6,-185.1 786.9,-169.4 769.6,-166.9 777.9,-158.8 797.8,-178.6 							"/>
							<polygon fill="#FEBF61" points="802.4,-169.4 799.5,-175.2 780.5,-156.3 782.1,-154.7 780.3,-143.9 805.3,-169 							"/>
						</g>
					</g>
					<g>
						<polygon fill="#FEA621" points="858.5,-185.1 866.2,-169.4 883.6,-166.9 871,-154.7 874,-137.4 858.5,-145.6 843,-137.4 
							846,-154.7 833.5,-166.9 850.8,-169.4 						"/>
						<g>
							<polygon fill="none" points="869.2,-169 844.1,-143.9 843,-137.4 858.5,-145.6 874,-137.4 871,-154.7 883.6,-166.9 							
								"/>
							<polygon fill="none" points="861.7,-178.6 841.8,-158.8 844.4,-156.3 863.4,-175.2 							"/>
							<polygon fill="#FEBF61" points="858.5,-185.1 850.8,-169.4 833.5,-166.9 841.8,-158.8 861.7,-178.6 							"/>
							<polygon fill="#FEBF61" points="866.2,-169.4 863.4,-175.2 844.4,-156.3 846,-154.7 844.1,-143.9 869.2,-169 							"/>
						</g>
					</g>
					<g>
						<polygon fill="#FEA621" points="922.4,-185.1 930.1,-169.4 947.4,-166.9 934.9,-154.7 937.8,-137.4 922.4,-145.6 
							906.9,-137.4 909.8,-154.7 897.3,-166.9 914.6,-169.4 						"/>
						<g>
							<polygon fill="none" points="933,-169 908,-143.9 906.9,-137.4 922.4,-145.6 937.8,-137.4 934.9,-154.7 947.4,-166.9 							
								"/>
							<polygon fill="none" points="925.5,-178.6 905.6,-158.8 908.2,-156.3 927.2,-175.2 							"/>
							<polygon fill="#FEBF61" points="922.4,-185.1 914.6,-169.4 897.3,-166.9 905.6,-158.8 925.5,-178.6 							"/>
							<polygon fill="#FEBF61" points="930.1,-169.4 927.2,-175.2 908.2,-156.3 909.8,-154.7 908,-143.9 933,-169 							"/>
						</g>
					</g>
				</g>
				
					<text id="title_5_" transform="matrix(1 0 0 1 506.4276 -153.9419)" fill="#F5F7FA" font-family="'Roboto-Thin'" font-size="25px">CSS</text>
			</g>
			<g id="Javascript">
				<g>
					<g>
						<polygon fill="#FEA621" points="667.4,-114.7 675.1,-99.1 692.5,-96.5 679.9,-84.3 682.9,-67.1 667.4,-75.2 651.9,-67.1 
							654.9,-84.3 642.4,-96.5 659.7,-99.1 						"/>
						<g>
							<polygon fill="none" points="678.1,-98.6 653,-73.6 651.9,-67.1 667.4,-75.2 682.9,-67.1 679.9,-84.3 692.5,-96.5 							"/>
							<polygon fill="none" points="670.6,-108.3 650.7,-88.4 653.2,-85.9 672.2,-104.9 							"/>
							<polygon fill="#FEBF61" points="667.4,-114.7 659.7,-99.1 642.4,-96.5 650.7,-88.4 670.6,-108.3 							"/>
							<polygon fill="#FEBF61" points="675.1,-99.1 672.2,-104.9 653.2,-85.9 654.9,-84.3 653,-73.6 678.1,-98.6 							"/>
						</g>
					</g>
					<g>
						<polygon fill="#FEA621" points="731.3,-114.7 739,-99.1 756.3,-96.5 743.8,-84.3 746.7,-67.1 731.3,-75.2 715.8,-67.1 
							718.7,-84.3 706.2,-96.5 723.5,-99.1 						"/>
						<g>
							<polygon fill="none" points="741.9,-98.6 716.9,-73.6 715.8,-67.1 731.3,-75.2 746.7,-67.1 743.8,-84.3 756.3,-96.5 							
								"/>
							<polygon fill="none" points="734.4,-108.3 714.5,-88.4 717.1,-85.9 736.1,-104.9 							"/>
							<polygon fill="#FEBF61" points="731.3,-114.7 723.5,-99.1 706.2,-96.5 714.5,-88.4 734.4,-108.3 							"/>
							<polygon fill="#FEBF61" points="739,-99.1 736.1,-104.9 717.1,-85.9 718.7,-84.3 716.9,-73.6 741.9,-98.6 							"/>
						</g>
					</g>
					<g>
						<polygon fill="#FEA621" points="795.1,-114.7 802.9,-99.1 820.2,-96.5 807.6,-84.3 810.6,-67.1 795.1,-75.2 779.6,-67.1 
							782.6,-84.3 770.1,-96.5 787.4,-99.1 						"/>
						<g>
							<polygon fill="none" points="805.8,-98.6 780.8,-73.6 779.6,-67.1 795.1,-75.2 810.6,-67.1 807.6,-84.3 820.2,-96.5 							
								"/>
							<polygon fill="none" points="798.3,-108.3 778.4,-88.4 781,-85.9 800,-104.9 							"/>
							<polygon fill="#FEBF61" points="795.1,-114.7 787.4,-99.1 770.1,-96.5 778.4,-88.4 798.3,-108.3 							"/>
							<polygon fill="#FEBF61" points="802.9,-99.1 800,-104.9 781,-85.9 782.6,-84.3 780.8,-73.6 805.8,-98.6 							"/>
						</g>
					</g>
					<g>
						<polygon fill="#FEA621" points="859,-114.7 866.7,-99.1 884,-96.5 871.5,-84.3 874.5,-67.1 859,-75.2 843.5,-67.1 
							846.5,-84.3 833.9,-96.5 851.2,-99.1 						"/>
						<g>
							<polygon fill="none" points="869.6,-98.6 844.6,-73.6 843.5,-67.1 859,-75.2 874.5,-67.1 871.5,-84.3 884,-96.5 							"/>
							<polygon fill="none" points="862.1,-108.3 842.3,-88.4 844.8,-85.9 863.8,-104.9 							"/>
							<polygon fill="#FEBF61" points="859,-114.7 851.2,-99.1 833.9,-96.5 842.3,-88.4 862.1,-108.3 							"/>
							<polygon fill="#FEBF61" points="866.7,-99.1 863.8,-104.9 844.8,-85.9 846.5,-84.3 844.6,-73.6 869.6,-98.6 							"/>
						</g>
					</g>
					<polygon fill="#666666" points="908.5,-73.6 907.4,-67.1 922.8,-75.2 938.3,-67.1 935.4,-84.3 947.9,-96.5 933.5,-98.6 
						930.6,-99.1 926.2,-107.9 926,-108.3 922.8,-114.7 915.1,-99.1 897.8,-96.5 910.3,-84.3 					"/>
				</g>
				
					<text id="title_4_" transform="matrix(1 0 0 1 506.4276 -83.6102)" fill="#F5F7FA" font-family="'Roboto-Thin'" font-size="25px">Javascript</text>
			</g>
			<g id="React">
				<g>
					<g>
						<polygon fill="#FEA621" points="667.4,-44.7 675.1,-29.1 692.5,-26.5 679.9,-14.3 682.9,2.9 667.4,-5.2 651.9,2.9 
							654.9,-14.3 642.4,-26.5 659.7,-29.1 						"/>
						<g>
							<polygon fill="none" points="678.1,-28.6 653,-3.6 651.9,2.9 667.4,-5.2 682.9,2.9 679.9,-14.3 692.5,-26.5 							"/>
							<polygon fill="none" points="670.6,-38.3 650.7,-18.4 653.2,-15.9 672.2,-34.9 							"/>
							<polygon fill="#FEBF61" points="667.4,-44.7 659.7,-29.1 642.4,-26.5 650.7,-18.4 670.6,-38.3 							"/>
							<polygon fill="#FEBF61" points="675.1,-29.1 672.2,-34.9 653.2,-15.9 654.9,-14.3 653,-3.6 678.1,-28.6 							"/>
						</g>
					</g>
					<g>
						<polygon fill="#FEA621" points="731.3,-44.7 739,-29.1 756.3,-26.5 743.8,-14.3 746.7,2.9 731.3,-5.2 715.8,2.9 718.7,-14.3 
							706.2,-26.5 723.5,-29.1 						"/>
						<g>
							<polygon fill="none" points="741.9,-28.6 716.9,-3.6 715.8,2.9 731.3,-5.2 746.7,2.9 743.8,-14.3 756.3,-26.5 							"/>
							<polygon fill="none" points="734.4,-38.3 714.5,-18.4 717.1,-15.9 736.1,-34.9 							"/>
							<polygon fill="#FEBF61" points="731.3,-44.7 723.5,-29.1 706.2,-26.5 714.5,-18.4 734.4,-38.3 							"/>
							<polygon fill="#FEBF61" points="739,-29.1 736.1,-34.9 717.1,-15.9 718.7,-14.3 716.9,-3.6 741.9,-28.6 							"/>
						</g>
					</g>
					<g>
						<polygon fill="#FEA621" points="795.1,-44.7 802.9,-29.1 820.2,-26.5 807.6,-14.3 810.6,2.9 795.1,-5.2 779.6,2.9 
							782.6,-14.3 770.1,-26.5 787.4,-29.1 						"/>
						<g>
							<polygon fill="none" points="805.8,-28.6 780.8,-3.6 779.6,2.9 795.1,-5.2 810.6,2.9 807.6,-14.3 820.2,-26.5 							"/>
							<polygon fill="none" points="798.3,-38.3 778.4,-18.4 781,-15.9 800,-34.9 							"/>
							<polygon fill="#FEBF61" points="795.1,-44.7 787.4,-29.1 770.1,-26.5 778.4,-18.4 798.3,-38.3 							"/>
							<polygon fill="#FEBF61" points="802.9,-29.1 800,-34.9 781,-15.9 782.6,-14.3 780.8,-3.6 805.8,-28.6 							"/>
						</g>
					</g>
					<g>
						<polygon fill="#FEA621" points="859,-44.7 866.7,-29.1 884,-26.5 871.5,-14.3 874.5,2.9 859,-5.2 843.5,2.9 846.5,-14.3 
							833.9,-26.5 851.2,-29.1 						"/>
						<g>
							<polygon fill="none" points="869.6,-28.6 844.6,-3.6 843.5,2.9 859,-5.2 874.5,2.9 871.5,-14.3 884,-26.5 							"/>
							<polygon fill="none" points="862.1,-38.3 842.3,-18.4 844.8,-15.9 863.8,-34.9 							"/>
							<polygon fill="#FEBF61" points="859,-44.7 851.2,-29.1 833.9,-26.5 842.3,-18.4 862.1,-38.3 							"/>
							<polygon fill="#FEBF61" points="866.7,-29.1 863.8,-34.9 844.8,-15.9 846.5,-14.3 844.6,-3.6 869.6,-28.6 							"/>
						</g>
					</g>
					<polygon fill="#666666" points="908.5,-3.6 907.4,2.9 922.8,-5.2 938.3,2.9 935.4,-14.3 947.9,-26.5 933.5,-28.6 930.6,-29.1 
						926.2,-37.9 926,-38.3 922.8,-44.7 915.1,-29.1 897.8,-26.5 910.3,-14.3 					"/>
				</g>
				
					<text id="title_3_" transform="matrix(1 0 0 1 506.4276 -13.6102)" fill="#F5F7FA" font-family="'Roboto-Thin'" font-size="25px">React</text>
			</g>
			<g id="React_Native">
				
					<text id="title_8_" transform="matrix(1 0 0 1 506.4276 126.3898)" fill="#F5F7FA" font-family="'Roboto-Thin'" font-size="25px">ReactNative</text>
				<g>
					<g>
						<polygon fill="#FEA621" points="667,95.3 674.7,111 692.1,113.5 679.5,125.7 682.5,143 667,134.8 651.5,143 654.4,125.7 
							641.9,113.5 659.2,111 						"/>
						<g>
							<polygon fill="none" points="677.7,111.4 652.6,136.5 651.5,143 667,134.8 682.5,143 679.5,125.7 692.1,113.5 							"/>
							<polygon fill="none" points="670.1,101.7 650.2,121.6 652.8,124.1 671.8,105.1 							"/>
							<polygon fill="#FEBF61" points="667,95.3 659.2,111 641.9,113.5 650.2,121.6 670.1,101.7 							"/>
							<polygon fill="#FEBF61" points="674.7,111 671.8,105.1 652.8,124.1 654.4,125.7 652.6,136.5 677.7,111.4 							"/>
						</g>
					</g>
					<g>
						<polygon fill="#FEA621" points="730.9,95.3 738.7,111 756,113.5 743.5,125.7 746.4,143 730.9,134.8 715.4,143 718.4,125.7 
							705.8,113.5 723.2,111 						"/>
						<g>
							<polygon fill="none" points="741.6,111.4 716.5,136.5 715.4,143 730.9,134.8 746.4,143 743.5,125.7 756,113.5 							"/>
							<polygon fill="none" points="734.1,101.7 714.2,121.6 716.8,124.1 735.8,105.1 							"/>
							<polygon fill="#FEBF61" points="730.9,95.3 723.2,111 705.8,113.5 714.2,121.6 734.1,101.7 							"/>
							<polygon fill="#FEBF61" points="738.7,111 735.8,105.1 716.8,124.1 718.4,125.7 716.5,136.5 741.6,111.4 							"/>
						</g>
					</g>
					<g>
						<polygon fill="#FEA621" points="794.9,95.3 802.7,111 820,113.5 807.5,125.7 810.5,143 794.9,134.8 779.4,143 782.4,125.7 
							769.9,113.5 787.2,111 						"/>
						<g>
							<polygon fill="none" points="805.6,111.4 780.6,136.5 779.4,143 794.9,134.8 810.5,143 807.5,125.7 820,113.5 							"/>
							<polygon fill="none" points="798.1,101.7 778.2,121.6 780.8,124.1 799.8,105.1 							"/>
							<polygon fill="#FEBF61" points="794.9,95.3 787.2,111 769.9,113.5 778.2,121.6 798.1,101.7 							"/>
							<polygon fill="#FEBF61" points="802.7,111 799.8,105.1 780.8,124.1 782.4,125.7 780.6,136.5 805.6,111.4 							"/>
						</g>
					</g>
					<polygon fill="#666666" points="908.4,136.5 907.3,143 922.8,134.8 938.3,143 935.3,125.7 947.9,113.5 933.5,111.4 930.5,111 
						926.2,102.2 926,101.7 922.8,95.3 915,111 897.7,113.5 910.3,125.7 					"/>
					<polygon fill="#666666" points="844.4,136.5 843.3,143 858.8,134.8 874.3,143 871.4,125.7 883.9,113.5 869.5,111.4 866.6,111 
						862.2,102.2 862,101.7 858.8,95.3 851.1,111 833.7,113.5 846.3,125.7 					"/>
				</g>
			</g>
			<g id="Vue">
				<g>
					<g>
						<polygon fill="#FEA621" points="667.4,25.3 675.1,40.9 692.5,43.5 679.9,55.7 682.9,72.9 667.4,64.8 651.9,72.9 654.9,55.7 
							642.4,43.5 659.7,40.9 						"/>
						<g>
							<polygon fill="none" points="678.1,41.4 653,66.4 651.9,72.9 667.4,64.8 682.9,72.9 679.9,55.7 692.5,43.5 							"/>
							<polygon fill="none" points="670.6,31.7 650.7,51.6 653.2,54.1 672.2,35.1 							"/>
							<polygon fill="#FEBF61" points="667.4,25.3 659.7,40.9 642.4,43.5 650.7,51.6 670.6,31.7 							"/>
							<polygon fill="#FEBF61" points="675.1,40.9 672.2,35.1 653.2,54.1 654.9,55.7 653,66.4 678.1,41.4 							"/>
						</g>
					</g>
					<g>
						<polygon fill="#FEA621" points="731.3,25.3 739,40.9 756.3,43.5 743.8,55.7 746.7,72.9 731.3,64.8 715.8,72.9 718.7,55.7 
							706.2,43.5 723.5,40.9 						"/>
						<g>
							<polygon fill="none" points="741.9,41.4 716.9,66.4 715.8,72.9 731.3,64.8 746.7,72.9 743.8,55.7 756.3,43.5 							"/>
							<polygon fill="none" points="734.4,31.7 714.5,51.6 717.1,54.1 736.1,35.1 							"/>
							<polygon fill="#FEBF61" points="731.3,25.3 723.5,40.9 706.2,43.5 714.5,51.6 734.4,31.7 							"/>
							<polygon fill="#FEBF61" points="739,40.9 736.1,35.1 717.1,54.1 718.7,55.7 716.9,66.4 741.9,41.4 							"/>
						</g>
					</g>
					<g>
						<polygon fill="#FEA621" points="795.1,25.3 802.9,40.9 820.2,43.5 807.6,55.7 810.6,72.9 795.1,64.8 779.6,72.9 782.6,55.7 
							770.1,43.5 787.4,40.9 						"/>
						<g>
							<polygon fill="none" points="805.8,41.4 780.8,66.4 779.6,72.9 795.1,64.8 810.6,72.9 807.6,55.7 820.2,43.5 							"/>
							<polygon fill="none" points="798.3,31.7 778.4,51.6 781,54.1 800,35.1 							"/>
							<polygon fill="#FEBF61" points="795.1,25.3 787.4,40.9 770.1,43.5 778.4,51.6 798.3,31.7 							"/>
							<polygon fill="#FEBF61" points="802.9,40.9 800,35.1 781,54.1 782.6,55.7 780.8,66.4 805.8,41.4 							"/>
						</g>
					</g>
					<g>
						<polygon fill="#FEA621" points="859,25.3 866.7,40.9 884,43.5 871.5,55.7 874.5,72.9 859,64.8 843.5,72.9 846.5,55.7 
							833.9,43.5 851.2,40.9 						"/>
						<g>
							<polygon fill="none" points="869.6,41.4 844.6,66.4 843.5,72.9 859,64.8 874.5,72.9 871.5,55.7 884,43.5 							"/>
							<polygon fill="none" points="862.1,31.7 842.3,51.6 844.8,54.1 863.8,35.1 							"/>
							<polygon fill="#FEBF61" points="859,25.3 851.2,40.9 833.9,43.5 842.3,51.6 862.1,31.7 							"/>
							<polygon fill="#FEBF61" points="866.7,40.9 863.8,35.1 844.8,54.1 846.5,55.7 844.6,66.4 869.6,41.4 							"/>
						</g>
					</g>
					<polygon fill="#666666" points="908.5,66.4 907.4,72.9 922.8,64.8 938.3,72.9 935.4,55.7 947.9,43.5 933.5,41.4 930.6,40.9 
						926.2,32.1 926,31.7 922.8,25.3 915.1,40.9 897.8,43.5 910.3,55.7 					"/>
				</g>
				
					<text id="title_6_" transform="matrix(1 0 0 1 506.4276 56.3898)" fill="#F5F7FA" font-family="'Roboto-Thin'" font-size="25px">Vue</text>
			</g>
			<g id="Angular">
				
					<text id="title_11_" transform="matrix(1 0 0 1 506.4276 196.3898)" fill="#F5F7FA" font-family="'Roboto-Thin'" font-size="25px">Angular</text>
				<g>
					<g>
						<polygon fill="#FEA621" points="667,165.3 674.7,181 692.1,183.5 679.5,195.7 682.5,213 667,204.8 651.5,213 654.4,195.7 
							641.9,183.5 659.2,181 						"/>
						<g>
							<polygon fill="none" points="677.7,181.4 652.6,206.5 651.5,213 667,204.8 682.5,213 679.5,195.7 692.1,183.5 							"/>
							<polygon fill="none" points="670.1,171.7 650.2,191.6 652.8,194.1 671.8,175.1 							"/>
							<polygon fill="#FEBF61" points="667,165.3 659.2,181 641.9,183.5 650.2,191.6 670.1,171.7 							"/>
							<polygon fill="#FEBF61" points="674.7,181 671.8,175.1 652.8,194.1 654.4,195.7 652.6,206.5 677.7,181.4 							"/>
						</g>
					</g>
					<g>
						<polygon fill="#FEA621" points="730.9,165.3 738.7,181 756,183.5 743.5,195.7 746.4,213 730.9,204.8 715.4,213 718.4,195.7 
							705.8,183.5 723.2,181 						"/>
						<g>
							<polygon fill="none" points="741.6,181.4 716.5,206.5 715.4,213 730.9,204.8 746.4,213 743.5,195.7 756,183.5 							"/>
							<polygon fill="none" points="734.1,171.7 714.2,191.6 716.8,194.1 735.8,175.1 							"/>
							<polygon fill="#FEBF61" points="730.9,165.3 723.2,181 705.8,183.5 714.2,191.6 734.1,171.7 							"/>
							<polygon fill="#FEBF61" points="738.7,181 735.8,175.1 716.8,194.1 718.4,195.7 716.5,206.5 741.6,181.4 							"/>
						</g>
					</g>
					<polygon fill="#666666" points="908.4,206.5 907.3,213 922.8,204.8 938.3,213 935.3,195.7 947.9,183.5 933.5,181.4 930.5,181 
						926.2,172.2 926,171.7 922.8,165.3 915,181 897.7,183.5 910.3,195.7 					"/>
					<polygon fill="#666666" points="844.4,206.5 843.3,213 858.8,204.8 874.3,213 871.4,195.7 883.9,183.5 869.5,181.4 866.6,181 
						862.2,172.2 862,171.7 858.8,165.3 851.1,181 833.7,183.5 846.3,195.7 					"/>
					<polygon fill="#666666" points="780.6,206.5 779.4,213 794.9,204.8 810.5,213 807.5,195.7 820,183.5 805.6,181.4 802.7,181 
						798.4,172.2 798.1,171.7 794.9,165.3 787.2,181 769.9,183.5 782.4,195.7 					"/>
				</g>
			</g>
		</g>
		<g id="bed">
			<g id="PHP" display="inline">
				
					<text id="title_9_" transform="matrix(1 0 0 1 506.8466 -224.3027)" fill="#F5F7FA" font-family="'Roboto-Thin'" font-size="25px">PHP</text>
				<g>
					<g>
						<polygon fill="#FEA621" points="667.4,-255.4 675.1,-239.7 692.5,-237.2 679.9,-225 682.9,-207.7 667.4,-215.9 651.9,-207.7 
							654.8,-225 642.3,-237.2 659.6,-239.7 						"/>
						<g>
							<polygon fill="none" points="678.1,-239.3 653,-214.2 651.9,-207.7 667.4,-215.9 682.9,-207.7 679.9,-225 692.5,-237.2 
															"/>
							<polygon fill="none" points="670.6,-249 650.6,-229.1 653.2,-226.6 672.2,-245.6 							"/>
							<polygon fill="#FEBF61" points="667.4,-255.4 659.6,-239.7 642.3,-237.2 650.6,-229.1 670.6,-249 							"/>
							<polygon fill="#FEBF61" points="675.1,-239.7 672.2,-245.6 653.2,-226.6 654.8,-225 653,-214.2 678.1,-239.3 							"/>
						</g>
					</g>
					<g>
						<polygon fill="#FEA621" points="731.3,-255.4 739.1,-239.7 756.4,-237.2 743.9,-225 746.9,-207.7 731.3,-215.9 715.8,-207.7 
							718.8,-225 706.3,-237.2 723.6,-239.7 						"/>
						<g>
							<polygon fill="none" points="742,-239.3 717,-214.2 715.8,-207.7 731.3,-215.9 746.9,-207.7 743.9,-225 756.4,-237.2 							
								"/>
							<polygon fill="none" points="734.5,-249 714.6,-229.1 717.2,-226.6 736.2,-245.6 							"/>
							<polygon fill="#FEBF61" points="731.3,-255.4 723.6,-239.7 706.3,-237.2 714.6,-229.1 734.5,-249 							"/>
							<polygon fill="#FEBF61" points="739.1,-239.7 736.2,-245.6 717.2,-226.6 718.8,-225 717,-214.2 742,-239.3 							"/>
						</g>
					</g>
					<polygon fill="#666666" points="908.8,-214.2 907.7,-207.7 923.2,-215.9 938.7,-207.7 935.8,-225 948.3,-237.2 933.9,-239.3 
						931,-239.7 926.6,-248.5 926.4,-249 923.2,-255.4 915.5,-239.7 898.1,-237.2 910.7,-225 					"/>
					<polygon fill="#666666" points="844.9,-214.2 843.7,-207.7 859.2,-215.9 874.8,-207.7 871.8,-225 884.3,-237.2 869.9,-239.3 
						867,-239.7 862.6,-248.5 862.4,-249 859.2,-255.4 851.5,-239.7 834.2,-237.2 846.7,-225 					"/>
					<polygon fill="#666666" points="781,-214.2 779.9,-207.7 795.4,-215.9 810.9,-207.7 807.9,-225 820.5,-237.2 806,-239.3 
						803.1,-239.7 798.8,-248.5 798.5,-249 795.4,-255.4 787.6,-239.7 770.3,-237.2 782.8,-225 					"/>
				</g>
			</g>
			<g id="Mysql" display="inline">
				
					<text id="title_1_" transform="matrix(1 0 0 1 506.8466 -154.3027)" fill="#F5F7FA" font-family="'Roboto-Thin'" font-size="25px">Mysql</text>
				<g>
					<g>
						<polygon fill="#FEA621" points="667.4,-185.4 675.1,-169.7 692.5,-167.2 679.9,-155 682.9,-137.7 667.4,-145.9 651.9,-137.7 
							654.8,-155 642.3,-167.2 659.6,-169.7 						"/>
						<g>
							<polygon fill="none" points="678.1,-169.3 653,-144.2 651.9,-137.7 667.4,-145.9 682.9,-137.7 679.9,-155 692.5,-167.2 
															"/>
							<polygon fill="none" points="670.6,-179 650.6,-159.1 653.2,-156.6 672.2,-175.6 							"/>
							<polygon fill="#FEBF61" points="667.4,-185.4 659.6,-169.7 642.3,-167.2 650.6,-159.1 670.6,-179 							"/>
							<polygon fill="#FEBF61" points="675.1,-169.7 672.2,-175.6 653.2,-156.6 654.8,-155 653,-144.2 678.1,-169.3 							"/>
						</g>
					</g>
					<g>
						<polygon fill="#FEA621" points="731.3,-185.4 739.1,-169.7 756.4,-167.2 743.9,-155 746.9,-137.7 731.3,-145.9 715.8,-137.7 
							718.8,-155 706.3,-167.2 723.6,-169.7 						"/>
						<g>
							<polygon fill="none" points="742,-169.3 717,-144.2 715.8,-137.7 731.3,-145.9 746.9,-137.7 743.9,-155 756.4,-167.2 							
								"/>
							<polygon fill="none" points="734.5,-179 714.6,-159.1 717.2,-156.6 736.2,-175.6 							"/>
							<polygon fill="#FEBF61" points="731.3,-185.4 723.6,-169.7 706.3,-167.2 714.6,-159.1 734.5,-179 							"/>
							<polygon fill="#FEBF61" points="739.1,-169.7 736.2,-175.6 717.2,-156.6 718.8,-155 717,-144.2 742,-169.3 							"/>
						</g>
					</g>
					<polygon fill="#666666" points="908.8,-144.2 907.7,-137.7 923.2,-145.9 938.7,-137.7 935.8,-155 948.3,-167.2 933.9,-169.3 
						931,-169.7 926.6,-178.5 926.4,-179 923.2,-185.4 915.5,-169.7 898.1,-167.2 910.7,-155 					"/>
					<polygon fill="#666666" points="844.9,-144.2 843.7,-137.7 859.2,-145.9 874.8,-137.7 871.8,-155 884.3,-167.2 869.9,-169.3 
						867,-169.7 862.6,-178.5 862.4,-179 859.2,-185.4 851.5,-169.7 834.2,-167.2 846.7,-155 					"/>
					<polygon fill="#666666" points="781,-144.2 779.9,-137.7 795.4,-145.9 810.9,-137.7 807.9,-155 820.5,-167.2 806,-169.3 
						803.1,-169.7 798.8,-178.5 798.5,-179 795.4,-185.4 787.6,-169.7 770.3,-167.2 782.8,-155 					"/>
				</g>
			</g>
			<g id="Linux" display="inline">
				
					<text id="title_7_" transform="matrix(1 0 0 1 506.8466 -84.3027)" fill="#F5F7FA" font-family="'Roboto-Thin'" font-size="25px">Linux</text>
				<g>
					<g>
						<polygon fill="#FEA621" points="667.4,-115.4 675.1,-99.7 692.5,-97.2 679.9,-85 682.9,-67.7 667.4,-75.9 651.9,-67.7 
							654.8,-85 642.3,-97.2 659.6,-99.7 						"/>
						<g>
							<polygon fill="none" points="678.1,-99.3 653,-74.2 651.9,-67.7 667.4,-75.9 682.9,-67.7 679.9,-85 692.5,-97.2 							"/>
							<polygon fill="none" points="670.6,-109 650.6,-89.1 653.2,-86.6 672.2,-105.6 							"/>
							<polygon fill="#FEBF61" points="667.4,-115.4 659.6,-99.7 642.3,-97.2 650.6,-89.1 670.6,-109 							"/>
							<polygon fill="#FEBF61" points="675.1,-99.7 672.2,-105.6 653.2,-86.6 654.8,-85 653,-74.2 678.1,-99.3 							"/>
						</g>
					</g>
					<g>
						<polygon fill="#FEA621" points="731.3,-115.4 739.1,-99.7 756.4,-97.2 743.9,-85 746.9,-67.7 731.3,-75.9 715.8,-67.7 
							718.8,-85 706.3,-97.2 723.6,-99.7 						"/>
						<g>
							<polygon fill="none" points="742,-99.3 717,-74.2 715.8,-67.7 731.3,-75.9 746.9,-67.7 743.9,-85 756.4,-97.2 							"/>
							<polygon fill="none" points="734.5,-109 714.6,-89.1 717.2,-86.6 736.2,-105.6 							"/>
							<polygon fill="#FEBF61" points="731.3,-115.4 723.6,-99.7 706.3,-97.2 714.6,-89.1 734.5,-109 							"/>
							<polygon fill="#FEBF61" points="739.1,-99.7 736.2,-105.6 717.2,-86.6 718.8,-85 717,-74.2 742,-99.3 							"/>
						</g>
					</g>
					<polygon fill="#666666" points="908.8,-74.2 907.7,-67.7 923.2,-75.9 938.7,-67.7 935.8,-85 948.3,-97.2 933.9,-99.3 
						931,-99.7 926.6,-108.5 926.4,-109 923.2,-115.4 915.5,-99.7 898.1,-97.2 910.7,-85 					"/>
					<polygon fill="#666666" points="844.9,-74.2 843.7,-67.7 859.2,-75.9 874.8,-67.7 871.8,-85 884.3,-97.2 869.9,-99.3 
						867,-99.7 862.6,-108.5 862.4,-109 859.2,-115.4 851.5,-99.7 834.2,-97.2 846.7,-85 					"/>
					<polygon fill="#666666" points="781,-74.2 779.9,-67.7 795.4,-75.9 810.9,-67.7 807.9,-85 820.5,-97.2 806,-99.3 803.1,-99.7 
						798.8,-108.5 798.5,-109 795.4,-115.4 787.6,-99.7 770.3,-97.2 782.8,-85 					"/>
				</g>
			</g>
			<g id="Laravel" display="inline">
				
					<text id="title_10_" transform="matrix(1 0 0 1 506.8466 -14.3027)" fill="#F5F7FA" font-family="'Roboto-Thin'" font-size="25px">Laravel</text>
				<g>
					<g>
						<polygon fill="#FEA621" points="667.4,-45.4 675.1,-29.7 692.5,-27.2 679.9,-15 682.9,2.3 667.4,-5.9 651.9,2.3 654.8,-15 
							642.3,-27.2 659.6,-29.7 						"/>
						<g>
							<polygon fill="none" points="678.1,-29.3 653,-4.2 651.9,2.3 667.4,-5.9 682.9,2.3 679.9,-15 692.5,-27.2 							"/>
							<polygon fill="none" points="670.6,-39 650.6,-19.1 653.2,-16.6 672.2,-35.6 							"/>
							<polygon fill="#FEBF61" points="667.4,-45.4 659.6,-29.7 642.3,-27.2 650.6,-19.1 670.6,-39 							"/>
							<polygon fill="#FEBF61" points="675.1,-29.7 672.2,-35.6 653.2,-16.6 654.8,-15 653,-4.2 678.1,-29.3 							"/>
						</g>
					</g>
					<g>
						<polygon fill="#FEA621" points="731.3,-45.4 739.1,-29.7 756.4,-27.2 743.9,-15 746.9,2.3 731.3,-5.9 715.8,2.3 718.8,-15 
							706.3,-27.2 723.6,-29.7 						"/>
						<g>
							<polygon fill="none" points="742,-29.3 717,-4.2 715.8,2.3 731.3,-5.9 746.9,2.3 743.9,-15 756.4,-27.2 							"/>
							<polygon fill="none" points="734.5,-39 714.6,-19.1 717.2,-16.6 736.2,-35.6 							"/>
							<polygon fill="#FEBF61" points="731.3,-45.4 723.6,-29.7 706.3,-27.2 714.6,-19.1 734.5,-39 							"/>
							<polygon fill="#FEBF61" points="739.1,-29.7 736.2,-35.6 717.2,-16.6 718.8,-15 717,-4.2 742,-29.3 							"/>
						</g>
					</g>
					<polygon fill="#666666" points="908.8,-4.2 907.7,2.3 923.2,-5.9 938.7,2.3 935.8,-15 948.3,-27.2 933.9,-29.3 931,-29.7 
						926.6,-38.5 926.4,-39 923.2,-45.4 915.5,-29.7 898.1,-27.2 910.7,-15 					"/>
					<polygon fill="#666666" points="844.9,-4.2 843.7,2.3 859.2,-5.9 874.8,2.3 871.8,-15 884.3,-27.2 869.9,-29.3 867,-29.7 
						862.6,-38.5 862.4,-39 859.2,-45.4 851.5,-29.7 834.2,-27.2 846.7,-15 					"/>
					<polygon fill="#666666" points="781,-4.2 779.9,2.3 795.4,-5.9 810.9,2.3 807.9,-15 820.5,-27.2 806,-29.3 803.1,-29.7 
						798.8,-38.5 798.5,-39 795.4,-45.4 787.6,-29.7 770.3,-27.2 782.8,-15 					"/>
				</g>
			</g>
		</g>
	</g>
</g>
</svg>
