<svg xmlns="http://www.w3.org/2000/svg" viewBox="0 0 1590.67662 621.38194">
  <title>flag</title>
  <g id="Layer_2" data-name="Layer 2">
    <g id="svg2">
      <g id="flag">
        <path d="M1590.32671,259.40755c-.31815.31813-.28631.63626.28632.92259h0v52.49233H0V0H1590.67662V259.18485Z" fill="#1e439c"/>
        <path d="M1590.67662,311.77262V568.28514l-.34991.22272c-.31815.34995-.28631.66811.28632.98621h0v51.88787H0V311.77262Z" fill="#d0212a"/>
        <polygon points="535.135 310.309 0 617.946 0 2.99 526.609 305.41 528.423 306.46 535.135 310.309" fill="#fff"/>
        <path d="M279.22736,299.61985s-40.11686,6.93535-41.35759,2.76778,37.34908-9.54406,37.34908-9.54406-5.53555-5.53554-8.30333-5.53554S236.47,295.61136,236.47,295.61136l-.25452.63626a65.02714,65.02714,0,0,0-6.2036-16.28854h.22269v-1.97244c.95442-2.92684,24.4328-16.63849,24.4328-16.63849a19.69273,19.69273,0,0,0,3.91307-9.76675L225.68521,272.801l-.76352-1.08165a6.3627,6.3627,0,0,1,.41357-2.60871c.98621-2.92684,32.29074-26.40524,33.24513-29.33208s0-15.65225,0-15.65225l-18.57909,2.92684s-23.47838,33.27695-27.39146,31.30453,19.629-33.24516,19.629-33.24516-7.82613,0-9.76676,1.94063S206.788,254.50826,206.788,254.50826l.25451.63626a66.076,66.076,0,0,0-15.90676-7.25348h.19088l-1.39979-1.3998c-1.368-2.76779,5.53556-29.04575,5.53556-29.04575a19.69256,19.69256,0,0,0-4.13575-9.54406l-8.2079,38.17624-1.368-.2227a7.22151,7.22151,0,0,1-1.49524-2.1315c-1.3998-2.76778,4.13575-41.35759,2.76777-44.25262a82.96891,82.96891,0,0,0-11.07111-11.07111l-11.00749,15.20687s6.90354,40.11686,2.76777,41.51667-9.54406-37.3809-9.54406-37.3809-5.6628,5.40829-5.6628,8.17607S156.8089,246.364,156.8089,246.364l.63628.25452a66.20372,66.20372,0,0,0-20.4243,8.46241l.25452-.63626s-13.67982-25.45083-15.65226-27.39146-9.76675-1.94062-9.76675-1.94062,23.47839,31.3045,19.56533,33.24513-27.39145-31.30451-27.39145-31.30451l-18.61092-2.92684a84.082,84.082,0,0,0,0,15.65226c.98622,2.92684,32.29073,26.40524,33.277,29.33208a6.36267,6.36267,0,0,1,.41357,2.60871l-.76353,1.08164-32.927-21.28328a19.69253,19.69253,0,0,0,3.91306,9.76675S112.8426,274.99616,113.797,277.923v2.03606h.19088a64.96307,64.96307,0,0,0-6.04457,16.28854l-.25452-.63626S80.011,287.308,77.24325,287.308s-8.30333,5.37647-8.30333,5.37647,38.74888,5.53555,37.34909,9.54406-41.35759-2.76779-41.35759-2.76779L49.69274,310.53189S57.99607,320.076,60.76385,321.603s41.51666-4.13577,44.28444-2.76778a6.96673,6.96673,0,0,1,2.09969,1.52706,2.51191,2.51191,0,0,0,.25451,1.33616l-38.17624,8.20789a19.85174,19.85174,0,0,0,9.54406,4.16757s26.3098-6.93535,29.07757-5.53555l1.368,1.368h0a65.44038,65.44038,0,0,0,7.25348,15.90677l-.63627-.28631s-25.45083,13.67983-27.39145,15.65225-1.97244,9.76676-1.97244,9.76676,31.30451-23.47838,33.277-19.56533S88.378,378.581,88.378,378.581L85.41934,397.192s12.72541.98621,15.65225,0,26.43705-32.29074,29.36389-33.277a6.90384,6.90384,0,0,1,2.5769-.41356l1.11347.76352L112.8426,397.192a19.78789,19.78789,0,0,0,9.76676-3.91308s13.71163-23.47838,16.63847-24.46461h1.94063v-.19088a65.66263,65.66263,0,0,0,16.32035,6.04458l-.63628.28631s-8.30333,27.646-8.30333,30.41373,5.53556,8.30331,5.53556,8.30331,5.53556-38.71706,9.54406-37.34908-2.76778,41.51664-2.76778,41.51664l11.07111,15.20687a82.96883,82.96883,0,0,0,11.07111-11.0711c1.368-2.76776-4.16758-41.35759-2.76777-44.28443a7.44377,7.44377,0,0,1,1.49524-2.0997l1.368-.2227,8.2079,38.17627A19.6609,19.6609,0,0,0,195.46236,404s-6.90354-26.30981-5.53556-29.04575l1.39979-1.3998h-.19088a66.17144,66.17144,0,0,0,11.70738-4.83565v.19087h1.94063c2.92684.98622,16.63848,24.46462,16.63848,24.46462a19.69267,19.69267,0,0,0,9.76676,3.91307l-21.21965-32.927,1.11347-.76352a6.90376,6.90376,0,0,1,2.57689.41357c2.92684.98621,26.40524,32.29074,29.33208,33.277a81.34816,81.34816,0,0,0,15.65225,0L255.65355,378.581s-33.24513-23.47837-31.30451-27.39145,33.34057,19.66077,33.34057,19.66077,0-7.82613-1.97245-9.76676-27.39145-15.65225-27.39145-15.65225l-.63626.28631a65.44038,65.44038,0,0,0,7.25348-15.90677h0l1.368-1.368c2.76779-1.3998,29.04575,5.53555,29.04575,5.53555a19.8517,19.8517,0,0,0,9.54406-4.16757L236.72448,321.603a2.51184,2.51184,0,0,1,.25452-1.33617,6.96694,6.96694,0,0,1,2.0997-1.52706c2.76779-1.368,41.35759,4.16757,44.28443,2.76779s11.07112-11.07112,11.07112-11.07112Z" fill="#f9d215"/>
        <polygon points="26.66 37.731 43.362 53.924 64.868 45.016 54.624 65.918 69.735 83.606 46.702 80.297 34.549 100.149 30.573 77.211 7.922 71.803 28.505 60.923 26.66 37.731" fill="#f9d215"/>
        <polygon points="479.748 280.373 480.862 303.597 502.654 311.804 480.893 320.044 479.812 343.3 465.273 325.134 442.813 331.306 455.602 311.868 442.781 292.43 465.241 298.538 479.748 280.373" fill="#f9d215"/>
        <polygon points="45.462 513.598 58.95 532.559 81.697 527.691 67.826 546.397 79.502 566.535 57.423 559.123 41.898 576.429 42.121 553.142 20.838 543.693 43.076 536.726 45.462 513.598" fill="#f9d215"/>
      </g>
    </g>
  </g>
</svg>
