<?xml version="1.0" encoding="utf-8"?>
<!-- Generator: Adobe Illustrator 23.1.1, SVG Export Plug-In . SVG Version: 6.00 Build 0)  -->
<svg version="1.0" id="svg2" xmlns="http://www.w3.org/2000/svg" xmlns:xlink="http://www.w3.org/1999/xlink" x="0px" y="0px"
	 viewBox="496 -368 1024 768" enable-background="new 496 -368 1024 768" xml:space="preserve">
<g id="sky" display="none">
	<rect x="-6918.857" y="-7417.061" display="inline" fill="#1E439C" width="15687.9" height="14889"/>
</g>
<g id="mountains">
	<g>
		<polygon fill="#14757B" points="321.599,136.502 493.099,315.202 337.699,331.402 		"/>
		<polygon fill="#ACE8EA" points="128.299,293.502 185.799,230.702 209.599,268.202 132.699,485.802 		"/>
		<polygon fill="#ACE8EA" points="-323.201,721.202 -204.301,204.202 -57.501,733.602 		"/>
		<polygon fill="#F5ECD9" points="-204.301,204.202 -118.201,155.302 -57.501,733.602 		"/>
		<polygon fill="#FFFFFF" points="-115.801,179.402 -118.201,155.302 -36.101,-0.098 58.899,335.202 		"/>
		<polygon fill="#229098" points="-57.501,733.602 58.899,335.202 -95.201,178.602 -115.801,179.402 		"/>
		<polygon fill="#F5ECD9" points="185.799,773.402 -57.501,733.602 58.899,335.202 128.299,293.502 		"/>
		<polygon fill="#C1E8E7" points="-36.101,-0.098 128.299,293.502 58.899,335.202 		"/>
		<polygon fill="#FFFFFF" points="185.799,230.702 321.599,136.502 350.899,490.402 		"/>
		<polygon fill="#14757B" points="132.699,485.802 200.499,852.902 350.899,490.402 209.599,268.202 		"/>
		<polygon fill="#ACE8EA" points="173.199,704.902 200.499,852.902 132.699,485.802 -57.501,733.602 		"/>
		<polygon fill="#229098" points="321.599,136.502 337.699,331.402 350.899,490.402 		"/>
		<polygon fill="#14757B" points="339.099,819.402 350.899,490.402 200.499,852.902 		"/>
		<polygon fill="#229098" points="602.399,830.302 339.099,819.402 350.899,490.402 		"/>
		<polygon fill="#ACE8EA" points="602.399,830.302 493.099,315.202 350.899,490.402 		"/>
		<polygon fill="#F5ECD9" points="602.399,830.302 758.899,830.102 493.099,315.202 		"/>
		<polygon fill="#14757B" points="493.099,315.202 701.999,523.802 758.899,830.102 		"/>
		<polygon fill="#63D3D6" points="758.899,830.102 957.399,815.602 701.999,523.802 		"/>
		<polygon fill="#ACE8EA" points="493.099,315.202 414.699,41.202 619.199,349.902 		"/>
		<polygon fill="#63D3D6" points="701.999,523.802 619.199,349.902 493.099,315.202 		"/>
		<polygon fill="#FFFFFF" points="493.099,315.202 414.699,41.202 321.599,136.502 		"/>
		<polygon fill="#229098" points="128.299,293.502 185.799,230.702 -36.101,-0.098 		"/>
		<polygon fill="#63D3D6" points="957.399,815.602 1021.599,764.902 804.699,560.002 		"/>
		<polygon fill="#ACE8EA" points="1021.599,764.902 1232.099,727.002 985.299,555.802 804.699,560.002 		"/>
		<polygon fill="#C1E8E7" points="786.299,570.802 678.999,421.902 678.999,317.602 780.999,231.902 985.299,555.802 		"/>
		<polygon fill="#1C8389" points="1232.099,727.002 780.999,231.902 985.299,555.802 		"/>
		<polygon fill="#FFFFFF" points="698.999,446.002 786.299,570.802 780.999,231.902 619.199,349.902 		"/>
		<polygon fill="#63D3D6" points="1019.099,493.502 1130.299,509.802 1292.499,668.602 1232.099,727.002 		"/>
		<polygon fill="#C1E8E7" points="985.299,555.802 1021.599,764.902 786.299,570.802 		"/>
		<polygon fill="#C1E8E7" points="1130.299,509.802 1232.099,727.002 1292.499,668.602 		"/>
	</g>
</g>
<g id="clouds">
	<path fill="#F5ECD9" d="M719.299,238.602c0-10.2-8.3-18.4-18.4-18.4s-18.4,8.3-18.4,18.4H719.299z"/>
	<path fill="#F5ECD9" d="M804.599,238.602c0-10.2-8.3-18.4-18.4-18.4c-10.2,0-18.4,8.3-18.4,18.4H804.599z"/>
	<path fill="#F5ECD9" d="M761.899,238.602c0-15.7-12.7-28.4-28.4-28.4s-28.4,12.7-28.4,28.4H761.899z"/>
	<g>
		<path fill="#F5ECD9" d="M784.799-31.298c0-4.6-3.7-8.2-8.2-8.2s-8.2,3.7-8.2,8.2H784.799z"/>
		<path fill="#F5ECD9" d="M810.299-31.298c0-3.5-2.9-6.4-6.4-6.4s-6.4,2.8-6.4,6.4H810.299z"/>
		<path fill="#F5ECD9" d="M803.899-31.298c0-7-5.7-12.7-12.7-12.7s-12.7,5.7-12.7,12.7H803.899z"/>
	</g>
	<g>
		<path fill="#F5ECD9" d="M991.499,160.402c0-6.6,5.4-12,12-12s12,5.4,12,12H991.499z"/>
		<path fill="#F5ECD9" d="M907.599,160.402c0-9.9,8.1-18,18-18s18,8.1,18,18H907.599z"/>
		<path fill="#F5ECD9" d="M931.499,160.402c0-19.9,16.1-36,36-36s36,16.1,36,36H931.499z"/>
	</g>
	<g>
		<path fill="#F5ECD9" d="M1013.499,180.202c0-5.3,4.3-9.6,9.5-9.6c5.3,0,9.6,4.3,9.6,9.6H1013.499z"/>
		<path fill="#F5ECD9" d="M1028.199,180.202c0-4.1,3.3-7.4,7.4-7.4c4.1,0,7.4,3.3,7.4,7.4H1028.199z"/>
	</g>
	<g>
		<g>
			<path fill="#F5ECD9" d="M1334.799,6.502c0-19.7-16-35.6-35.6-35.6c-19.7,0-35.6,16-35.6,35.6H1334.799z"/>
			<path fill="#F5ECD9" d="M1361.399,6.502c0-14.7-11.9-26.6-26.6-26.6s-26.6,11.9-26.6,26.6H1361.399z"/>
			<path fill="#F5ECD9" d="M1275.799,6.502c0-8.8-7.1-15.9-15.9-15.9s-15.9,7.1-15.9,15.9H1275.799z"/>
		</g>
		<g>
			<path fill="#F5ECD9" d="M949.299,139.602c0-18.1-14.6-32.7-32.7-32.7c-18.1,0-32.7,14.6-32.7,32.7H949.299z"/>
			<path fill="#F5ECD9" d="M908.299,139.602c0-13.5-10.9-24.4-24.4-24.4c-13.4,0-24.4,10.9-24.4,24.4H908.299z"/>
			<path fill="#F5ECD9" d="M968.799,139.602c0-10.8-8.7-19.5-19.5-19.5s-19.5,8.7-19.5,19.5H968.799z"/>
			<path fill="#F5ECD9" d="M869.299,139.602c0-8.1-6.5-14.6-14.6-14.6s-14.6,6.6-14.6,14.6H869.299z"/>
		</g>
		<g>
			<g>
				<path fill="#F5ECD9" d="M1197.999,182.802c0-9-7.3-16.2-16.2-16.2s-16.2,7.3-16.2,16.2H1197.999z"/>
				<path fill="#F5ECD9" d="M1247.999,182.802c0-6.9-5.6-12.5-12.5-12.5s-12.5,5.6-12.5,12.5H1247.999z"/>
				<path fill="#F5ECD9" d="M1235.499,182.802c0-13.8-11.2-25-25-25s-25,11.2-25,25H1235.499z"/>
			</g>
			<g>
				<path fill="#F5ECD9" d="M835.699,160.902c0-7.7-6.2-13.9-13.9-13.9s-13.9,6.2-13.9,13.9H835.699z"/>
				<path fill="#F5ECD9" d="M845.999,160.902c0-5.7-4.6-10.4-10.4-10.4c-5.7,0-10.4,4.6-10.4,10.4H845.999z"/>
				<path fill="#F5ECD9" d="M812.599,160.902c0-3.4-2.8-6.2-6.2-6.2s-6.2,2.8-6.2,6.2H812.599z"/>
			</g>
			<g>
				<path fill="#F5ECD9" d="M893.699,2.402c0-8.3-6.7-15-15-15s-15,6.7-15,15H893.699z"/>
				<path fill="#F5ECD9" d="M998.399,2.402c0-12.4-10.1-22.4-22.5-22.4s-22.4,10-22.4,22.4H998.399z"/>
				<path fill="#F5ECD9" d="M968.499,2.402c0-24.8-20.1-44.9-44.9-44.9s-44.9,20.1-44.9,44.9L968.499,2.402z"/>
			</g>
			<g>
				<path fill="#F5ECD9" d="M1042.799,226.902c0-5.3-4.3-9.5-9.5-9.5c-5.3,0-9.6,4.3-9.6,9.5H1042.799z"/>
				<path fill="#F5ECD9" d="M1028.099,226.902c0-4.1-3.3-7.4-7.4-7.4c-4.1,0-7.4,3.3-7.4,7.4H1028.099z"/>
			</g>
			<g>
				<path fill="#F5ECD9" d="M1149.499-266.498c0-5.3-4.3-9.5-9.5-9.5c-5.3,0-9.5,4.3-9.5,9.5H1149.499z"/>
				<path fill="#F5ECD9" d="M1134.799-266.498c0-4.1-3.3-7.4-7.4-7.4s-7.4,3.3-7.4,7.4H1134.799z"/>
			</g>
			<g>
				<path fill="#F5ECD9" d="M1387.599-326.598c0-4.6-3.7-8.2-8.2-8.2c-4.6,0-8.2,3.7-8.2,8.2H1387.599z"/>
				<path fill="#F5ECD9" d="M1412.999-326.598c0-3.5-2.8-6.4-6.4-6.4c-3.5,0-6.4,2.8-6.4,6.4H1412.999z"/>
				<path fill="#F5ECD9" d="M1406.599-326.598c0-7-5.7-12.7-12.7-12.7s-12.7,5.7-12.7,12.7H1406.599z"/>
			</g>
			<g>
				<path fill="#F5ECD9" d="M596.899,21.902c0-5.3,4.3-9.5,9.5-9.5c5.3,0,9.5,4.3,9.5,9.5H596.899z"/>
				<path fill="#F5ECD9" d="M611.599,21.902c0-4.1,3.3-7.4,7.4-7.4c4.1,0,7.4,3.3,7.4,7.4H611.599z"/>
			</g>
		</g>
	</g>
	<g>
		<g>
			<path fill="#F5ECD9" d="M595.099,166.502h-8v-1h8V166.502z M579.099,166.502h-8v-1h8V166.502z M563.099,166.502h-8v-1h8V166.502z
				 M547.099,166.502h-8v-1h8V166.502z M531.099,166.502h-8v-1h8V166.502z M515.099,166.502h-8v-1h8V166.502z M499.099,166.502h-8
				v-1h8V166.502z M483.099,166.502h-8v-1h8V166.502z M467.099,166.502h-8v-1h8V166.502z M451.099,166.502h-8v-1h8V166.502z
				 M435.099,166.502h-8v-1h8V166.502z M419.099,166.502h-5.4v-1h5.4V166.502z"/>
		</g>
		<g>
			<path fill="#F5ECD9" d="M1682.199-280.898h-8v-1h8V-280.898z M1666.199-280.898h-8v-1h8V-280.898z M1650.199-280.898h-8v-1h8
				V-280.898z M1634.199-280.898h-8v-1h8V-280.898z M1618.199-280.898h-8v-1h8V-280.898z M1602.199-280.898h-8v-1h8V-280.898z
				 M1586.199-280.898h-8v-1h8V-280.898z"/>
		</g>
		<g>
			<path fill="#F5ECD9" d="M1251.999-56.298h-8v-1h8V-56.298z M1235.999-56.298h-8v-1h8V-56.298z M1219.999-56.298h-8v-1h8V-56.298z
				 M1203.999-56.298h-8v-1h8V-56.298z M1187.999-56.298h-8v-1h8V-56.298z M1171.999-56.298h-8v-1h8V-56.298z M1155.999-56.298h-8
				v-1h8V-56.298z M1139.999-56.298h-8v-1h8V-56.298z M1123.999-56.298h-8v-1h8V-56.298z M1107.999-56.298h-8v-1h8V-56.298z"/>
		</g>
	</g>
</g>
<rect x="-111.678" y="339.558" fill="#44C650" width="2607.865" height="103.956"/>
<path id="wire2" fill="none" stroke="#DBDBDB" stroke-miterlimit="10" d="M1166.894-368.576
	c-21.548,14.15-46.229,21.945-70.659,29.006c-27.827,8.042-60.835-8.006-89.341-8.006v45l-62.401,47.002l159.148,45.3l-91.88,66.874
	c72.702,0,146.77-21.524,214.271-21.524c107.108,0,27.989,55.838,89.85,130.761c57.599,69.761,174.873,116.466,160.736,231.562
	c-12.426,101.17-159.765,133.484-241.12,93.303C1086.875,217.297,1207.69-38,1360.192-1.448
	C1469.832,24.831,1505.892,184.889,1453,270c-30.962,49.823-96.239,67.08-149.459,86.68
	c-38.324,14.114-85.091,10.709-120.607,30.403c-6.35,3.521-12.438,8.126-17.915,13.34"/>
<g id="Layer_1_1_">
	<g id="plane">
		<path fill="#FFFEF0" d="M1664.799,306.802c3,0.6,7.7,1.4,11.9,1.4c5.5,0,17.9-1.8,17.9-1.8l-45.2-16h-7.6L1664.799,306.802z"/>
		<path fill="#C8C6BC" d="M1796.099,302.902l35.2,25.6c0,0,2,0.5,5.2,1.2l-37.5-26.8L1796.099,302.902L1796.099,302.902z"/>
		<path fill="#FFFEF0" d="M1836.499,329.702c4.9,1,12.6,2.3,19.5,2.3c9,0,29.3-3,29.3-3l-73.9-26.2h-12.4L1836.499,329.702z"/>
		<path id="carlinga" fill="#FFFEF0" d="M1673.799,286.302l13.3,18.2l48,12h176c0,0,39.5-2.2,51.7,6l4.3,4c0,0,12,4.5,13.6,9
			c0.1,0.3,0.2,0.7,0.2,1c-0.1,4.9-12.7,16-69.9,16h-144c-10.7,0-25.6-3-41.9-7.2c-38.2-9.9-81.9-26.4-81.9-26.4v-8.6l8.6-2.1
			l-5.7-21.9H1673.799L1673.799,286.302z"/>
		<polygon fill="#FFFEF0" points="1638.499,256.502 1651.999,256.502 1665.299,274.702 1643.199,274.702 		"/>
		<polygon fill="#FFFEF0" points="1650.199,286.302 1646.299,286.302 1643.199,274.702 1646.599,274.702 		"/>
		<polygon fill="#8CC152" points="1665.299,274.702 1673.799,286.302 1650.199,286.302 1646.599,274.702 		"/>
		<polygon fill="#C8C6BC" points="1681.199,313.602 1667.499,327.602 1654.699,323.102 		"/>
		<path fill="#C8C6BC" d="M1629.899,328.702l20.3-14.8c0,0,1.2-0.3,3-0.7l-21.6,15.4L1629.899,328.702L1629.899,328.702z"/>
		<path fill="#FFFEF0" d="M1653.099,313.302c2.9-0.6,7.3-1.3,11.2-1.3c5.2,0,16.9,1.7,16.9,1.7l-38.5,15.1h-11.1L1653.099,313.302z"
			/>
		
			<rect x="1648.46" y="255.362" transform="matrix(0.9547 -0.2977 0.2977 0.9547 -8.7466 503.594)" fill="#8CC152" width="1" height="50.302"/>
		<path fill="#00ADEF" d="M1756.099,334.802h161l5,5h-166c-24.7,0-42.6-0.6-55.3-1.3c-7.5-2.3-14.8-4.6-21.5-6.9
			C1687.699,332.702,1710.199,334.802,1756.099,334.802z"/>
		<path fill="#DA4453" d="M1756.099,341.502h133.2l-2.5,2.5h-130.7c-15.1,0-27.7-0.2-38.1-0.6c-3.4-0.9-6.9-1.9-10.3-2.9
			C1719.699,341.102,1735.599,341.502,1756.099,341.502z"/>
		<path fill="#E4E2D6" d="M1980.799,335.502c0.1,0.3,0.2,0.7,0.2,1c-0.1,4.9-12.7,16-69.9,16h-144c-27,0-87.8-20.9-87.8-20.9
			s28.4,12.1,114.8,12.1C1973.299,343.802,1980.499,335.602,1980.799,335.502z"/>
		<path fill="#EDEDE6" d="M1875.199,356.402c-24,3.4-34.6-0.3-41.2-2v-12c6.5-1.7,17.2-5.4,41.2-2V356.402z"/>
		<polygon fill="#C8C6BC" points="1877.799,342.402 1877.799,344.402 1877.799,354.402 1875.199,356.402 1875.199,344.402 
			1875.199,340.402 		"/>
		<path fill="#C8C6BC" d="M1833.399,342.402c5.7-1.5,14.6-4.5,32.6-3l-17.9,17.9c-6.8-0.7-11.3-2.1-14.7-3V342.402L1833.399,342.402
			z"/>
		<path fill="#C8C6BC" d="M1776.899,365.502l35.2-25.6c0,0,2-0.5,5.1-1.2l-37.5,26.8L1776.899,365.502L1776.899,365.502z"/>
		<path fill="#FFFEF0" d="M1817.199,338.702c4.9-1,12.6-2.3,19.5-2.3c9,0,29.3,3,29.3,3l-66.9,26.2h-19.4L1817.199,338.702z"/>
		<path fill="#1998C6" d="M1733.599,324.502c0-0.6,0.5-1,1-1h1c0.6,0,1,0.4,1,1v2c0,0.6-0.4,1-1,1h-1c-0.5,0-1-0.4-1-1V324.502z
			 M1741.599,326.502c0,0.6,0.5,1,1,1h1c0.6,0,1-0.4,1-1v-2c0-0.6-0.4-1-1-1h-1c-0.5,0-1,0.4-1,1V326.502z M1749.599,326.502
			c0,0.6,0.5,1,1,1h1c0.6,0,1-0.4,1-1v-2c0-0.6-0.4-1-1-1h-1c-0.5,0-1,0.4-1,1V326.502z M1757.599,326.502c0,0.6,0.5,1,1,1h1
			c0.6,0,1-0.4,1-1v-2c0-0.6-0.4-1-1-1h-1c-0.5,0-1,0.4-1,1V326.502z M1765.599,326.502c0,0.6,0.5,1,1,1h1c0.6,0,1-0.4,1-1v-2
			c0-0.6-0.4-1-1-1h-1c-0.5,0-1,0.4-1,1V326.502z M1773.599,326.502c0,0.6,0.5,1,1,1h1c0.6,0,1-0.4,1-1v-2c0-0.6-0.4-1-1-1h-1
			c-0.5,0-1,0.4-1,1V326.502z M1781.599,326.502c0,0.6,0.5,1,1,1h1c0.6,0,1-0.4,1-1v-2c0-0.6-0.4-1-1-1h-1c-0.5,0-1,0.4-1,1V326.502
			z M1789.599,326.502c0,0.6,0.5,1,1,1h1c0.6,0,1-0.4,1-1v-2c0-0.6-0.4-1-1-1h-1c-0.5,0-1,0.4-1,1V326.502z M1797.599,326.502
			c0,0.6,0.5,1,1,1h1c0.6,0,1-0.4,1-1v-2c0-0.6-0.4-1-1-1h-1c-0.5,0-1,0.4-1,1V326.502z M1805.599,326.502c0,0.6,0.5,1,1,1h1
			c0.6,0,1-0.4,1-1v-2c0-0.6-0.4-1-1-1h-1c-0.5,0-1,0.4-1,1V326.502z M1813.599,326.502c0,0.6,0.5,1,1,1h1c0.6,0,1-0.4,1-1v-2
			c0-0.6-0.4-1-1-1h-1c-0.5,0-1,0.4-1,1V326.502z M1821.599,326.502c0,0.6,0.5,1,1,1h1c0.6,0,1-0.4,1-1v-2c0-0.6-0.4-1-1-1h-1
			c-0.5,0-1,0.4-1,1V326.502z M1829.599,326.502c0,0.6,0.5,1,1,1h1c0.6,0,1-0.4,1-1v-2c0-0.6-0.4-1-1-1h-1c-0.5,0-1,0.4-1,1V326.502
			z M1837.599,326.502c0,0.6,0.5,1,1,1h1c0.6,0,1-0.4,1-1v-2c0-0.6-0.4-1-1-1h-1c-0.5,0-1,0.4-1,1V326.502z M1845.599,326.502
			c0,0.6,0.5,1,1,1h1c0.6,0,1-0.4,1-1v-2c0-0.6-0.4-1-1-1h-1c-0.5,0-1,0.4-1,1V326.502z M1853.599,326.502c0,0.6,0.5,1,1,1h1
			c0.6,0,1-0.4,1-1v-2c0-0.6-0.4-1-1-1h-1c-0.5,0-1,0.4-1,1V326.502z M1861.599,326.502c0,0.6,0.5,1,1,1h1c0.6,0,1-0.4,1-1v-2
			c0-0.6-0.4-1-1-1h-1c-0.5,0-1,0.4-1,1V326.502z M1869.599,326.502c0,0.6,0.5,1,1,1h1c0.6,0,1-0.4,1-1v-2c0-0.6-0.4-1-1-1h-1
			c-0.5,0-1,0.4-1,1V326.502z M1877.599,326.502c0,0.6,0.5,1,1,1h1c0.6,0,1-0.4,1-1v-2c0-0.6-0.4-1-1-1h-1c-0.5,0-1,0.4-1,1V326.502
			z M1885.599,326.502c0,0.6,0.5,1,1,1h1c0.6,0,1-0.4,1-1v-2c0-0.6-0.4-1-1-1h-1c-0.5,0-1,0.4-1,1V326.502z M1893.599,326.502
			c0,0.6,0.5,1,1,1h1c0.6,0,1-0.4,1-1v-2c0-0.6-0.4-1-1-1h-1c-0.5,0-1,0.4-1,1V326.502z M1901.599,326.502c0,0.6,0.5,1,1,1h1
			c0.6,0,1-0.4,1-1v-2c0-0.6-0.4-1-1-1h-1c-0.5,0-1,0.4-1,1V326.502z M1909.599,326.502c0,0.6,0.5,1,1,1h1c0.6,0,1-0.4,1-1v-2
			c0-0.6-0.4-1-1-1h-1c-0.5,0-1,0.4-1,1V326.502z M1917.599,326.502c0,0.6,0.5,1,1,1h1c0.6,0,1-0.4,1-1v-2c0-0.6-0.4-1-1-1h-1
			c-0.5,0-1,0.4-1,1V326.502z"/>
		<path fill="#3BAFDA" d="M1962.799,322.502l4.4,4c-16.9,0-16.1-4-16.1-4H1962.799L1962.799,322.502z M1959.347,322.321l2.387,4.732
			l0.893-0.45l-2.387-4.732L1959.347,322.321z M1955.432,321.966l0.605,4.156l0.99-0.144l-0.605-4.156L1955.432,321.966z"/>
	</g>
	<g id="torre">
		<rect x="-58.201" y="107.502" fill="#FFFEF0" width="362.5" height="2900"/>
		<rect x="-420.701" y="107.502" fill="#FFFEF0" width="362.5" height="2900"/>
		<rect x="-333.601" y="107.502" fill="#E4E2D6" width="543.8" height="2900"/>
		<polygon opacity="0.4" fill="#C8C6BC" enable-background="new    " points="-239.401,288.802 123.099,288.802 304.299,243.402 
			304.299,266.102 123.099,311.402 -239.401,311.402 -420.701,266.102 -420.701,243.402 		"/>
		<rect x="-239.401" y="-73.698" fill="#FFFEF0" width="362.5" height="362.5"/>
		<rect x="-69.501" y="-979.998" fill="#DA4453" width="22.7" height="453.1"/>
		<polygon fill="#FFFEF0" points="-601.901,-322.998 -239.401,-413.598 -239.401,-458.898 -601.901,-368.298 -647.201,-356.998 
			-647.201,-311.598 		"/>
		<polygon fill="#FFFEF0" points="485.599,-322.998 530.899,-311.598 530.899,-356.998 485.599,-368.298 123.099,-458.898 
			123.099,-413.598 		"/>
		<polygon fill="#E4E2D6" points="123.099,288.802 485.599,198.102 485.599,-164.398 123.099,-73.698 		"/>
		<polygon fill="#E4E2D6" points="-601.901,198.102 -239.401,288.802 -239.401,-73.698 -601.901,-164.398 		"/>
		<polygon fill="#E4E2D6" points="123.099,-73.698 485.599,-164.398 485.599,-254.998 123.099,-164.398 		"/>
		<rect x="-239.401" y="-164.398" fill="#FFFEF0" width="362.5" height="90.6"/>
		<polygon fill="#E4E2D6" points="-601.901,-164.398 -239.401,-73.698 -239.401,-164.398 -601.901,-254.998 		"/>
		<polygon fill="#E4E2D6" points="394.999,-311.598 123.099,-254.998 89.099,-617.498 		"/>
		<polygon fill="#FFFEF0" points="89.099,-617.498 123.099,-254.998 -239.401,-254.998 -205.401,-617.498 		"/>
		<polygon fill="#E4E2D6" points="-205.401,-617.498 -239.401,-254.998 -511.301,-311.598 		"/>
		<rect x="-239.401" y="-254.998" fill="#DA4453" width="362.5" height="45.3"/>
		<polygon fill="#BA3548" points="-601.901,-345.598 -239.401,-254.998 -239.401,-209.698 -239.401,-164.398 -601.901,-254.998 
			-647.201,-266.298 -647.201,-311.598 -647.201,-356.998 		"/>
		<polygon fill="#ED5565" points="485.599,-345.598 530.899,-356.998 530.899,-311.598 530.899,-266.298 485.599,-254.998 
			123.099,-164.398 123.099,-209.698 123.099,-254.998 		"/>
		<rect x="-239.401" y="-209.698" fill="#DA4453" width="362.5" height="45.3"/>
		<polygon opacity="0.4" fill="#C8C6BC" enable-background="new    " points="123.099,-164.398 485.599,-254.998 485.599,-209.698 
			123.099,-119.098 -239.401,-119.098 -601.901,-209.698 -601.901,-254.998 -239.401,-164.398 		"/>
		<path fill="#FFFEF0" d="M-80.801-979.998c0,12.5,10.1,22.7,22.7,22.7c12.5,0,22.7-10.1,22.7-22.7c0-12.5-10.1-22.7-22.7-22.7
			S-80.801-992.498-80.801-979.998z"/>
	</g>
</g>
<g id="text3">
	<g enable-background="new    ">
		<path fill="#F5ECD9" d="M782.492-334.797v5.133h4.676v0.967h-4.676v13.148c0,1.559,0.264,2.669,0.791,3.331
			s1.225,0.993,2.092,0.993c0.316,0,0.598-0.012,0.844-0.035s0.586-0.064,1.02-0.123l0.176,0.861
			c-0.293,0.094-0.598,0.158-0.914,0.193s-0.674,0.053-1.072,0.053c-1.277,0-2.247-0.416-2.909-1.248s-0.993-2.174-0.993-4.025
			v-13.148h-3.516v-0.967h3.516v-5.133H782.492z"/>
		<path fill="#F5ECD9" d="M790.156-320.523c0-2.789,0.771-5.068,2.312-6.838s3.542-2.654,6.003-2.654
			c2.473,0,4.479,0.885,6.021,2.654s2.312,4.049,2.312,6.838v0.738c0,2.801-0.771,5.086-2.312,6.855s-3.536,2.654-5.985,2.654
			c-2.473,0-4.482-0.885-6.029-2.654s-2.32-4.055-2.32-6.855V-320.523z M791.105-319.785c0,2.391,0.668,4.415,2.004,6.073
			s3.135,2.487,5.396,2.487c2.227,0,4.008-0.832,5.344-2.496s2.004-3.686,2.004-6.064v-0.738c0-2.332-0.674-4.339-2.021-6.021
			s-3.135-2.522-5.361-2.522c-2.238,0-4.025,0.841-5.361,2.522s-2.004,3.688-2.004,6.021V-319.785z"/>
		<path fill="#F5ECD9" d="M832.431-312.156h0.105l10.688-24.082h1.072v25.594h-0.949V-333.9l-0.105-0.018l-10.371,23.273h-0.756
			l-10.6-23.783l-0.105,0.018v23.766h-0.949v-25.594h1.318L832.431-312.156z"/>
		<path fill="#F5ECD9" d="M862.771-314.16c-0.656,1.148-1.635,2.083-2.936,2.804s-2.877,1.081-4.729,1.081
			c-1.77,0-3.158-0.483-4.166-1.45s-1.512-2.271-1.512-3.911c0-1.594,0.753-2.93,2.259-4.008s3.39-1.617,5.651-1.617h5.432v-2.777
			c0-1.582-0.507-2.815-1.521-3.7s-2.44-1.327-4.28-1.327c-1.723,0-3.108,0.416-4.157,1.248s-1.573,1.904-1.573,3.217l-0.791-0.035
			l-0.035-0.088c-0.07-1.477,0.504-2.728,1.723-3.753s2.83-1.538,4.834-1.538c2.039,0,3.674,0.516,4.904,1.547
			s1.846,2.52,1.846,4.465v9.527c0,0.668,0.038,1.318,0.114,1.951s0.202,1.26,0.378,1.881h-1.055
			c-0.152-0.832-0.255-1.456-0.308-1.872s-0.079-0.864-0.079-1.345V-314.16z M855.107-311.207c1.887,0,3.483-0.416,4.79-1.248
			s2.265-2.021,2.874-3.568v-4.271h-5.379c-1.969,0-3.63,0.454-4.983,1.362s-2.03,2.03-2.03,3.366c0,1.277,0.431,2.323,1.292,3.138
			S853.677-311.207,855.107-311.207z"/>
		<path fill="#F5ECD9" d="M870.646-329.664l0.123,3.832c0.586-1.324,1.43-2.353,2.531-3.085s2.455-1.099,4.061-1.099
			c2.074,0,3.63,0.653,4.667,1.96s1.556,3.378,1.556,6.214v11.197h-0.949v-11.232c0-2.637-0.472-4.494-1.415-5.572
			s-2.224-1.617-3.841-1.617c-1.992,0-3.516,0.58-4.57,1.74s-1.729,2.654-2.021,4.482v12.199h-0.949v-9.738h-0.053
			c0-0.223,0.003-0.448,0.009-0.677s0.021-0.46,0.044-0.694v-7.91H870.646z"/>
		<path fill="#F5ECD9" d="M890.72-335.641h-0.949v-2.426h0.949V-335.641z M890.72-310.645h-0.949v-19.02h0.949V-310.645z"/>
		<path fill="#F5ECD9" d="M898.138-310.645h-0.949v-27.422h0.949V-310.645z"/>
		<path fill="#F5ECD9" d="M916.314-314.16c-0.656,1.148-1.635,2.083-2.936,2.804s-2.877,1.081-4.729,1.081
			c-1.77,0-3.158-0.483-4.166-1.45s-1.512-2.271-1.512-3.911c0-1.594,0.753-2.93,2.259-4.008s3.39-1.617,5.651-1.617h5.432v-2.777
			c0-1.582-0.507-2.815-1.521-3.7s-2.44-1.327-4.28-1.327c-1.723,0-3.108,0.416-4.157,1.248s-1.573,1.904-1.573,3.217l-0.791-0.035
			l-0.035-0.088c-0.07-1.477,0.504-2.728,1.723-3.753s2.83-1.538,4.834-1.538c2.039,0,3.674,0.516,4.904,1.547
			s1.846,2.52,1.846,4.465v9.527c0,0.668,0.038,1.318,0.114,1.951s0.202,1.26,0.378,1.881h-1.055
			c-0.152-0.832-0.255-1.456-0.308-1.872s-0.079-0.864-0.079-1.345V-314.16z M908.65-311.207c1.887,0,3.483-0.416,4.79-1.248
			s2.265-2.021,2.874-3.568v-4.271h-5.379c-1.969,0-3.63,0.454-4.983,1.362s-2.03,2.03-2.03,3.366c0,1.277,0.431,2.323,1.292,3.138
			S907.22-311.207,908.65-311.207z"/>
	</g>
</g>
<g id="text2">
	<g enable-background="new    ">
		<path fill="#FFFFFF" d="M782.265-311.598v-18.053h-3.305v-0.967h3.305v-3.129c0-1.793,0.437-3.182,1.31-4.166
			s2.095-1.477,3.665-1.477c0.387,0,0.771,0.023,1.151,0.07s0.747,0.123,1.099,0.229l-0.141,0.914
			c-0.375-0.094-0.706-0.161-0.993-0.202s-0.653-0.062-1.099-0.062c-1.266,0-2.256,0.416-2.971,1.248s-1.072,1.98-1.072,3.445v3.129
			h5.027v0.967h-5.027v18.053H782.265z"/>
		<path fill="#FFFFFF" d="M800.546-329.932l-1.23-0.105c-1.699,0-3.079,0.548-4.14,1.644s-1.749,2.54-2.065,4.333v12.463h-0.949
			v-19.02h0.773l0.176,3.305v0.65c0.527-1.359,1.312-2.417,2.355-3.173s2.326-1.134,3.85-1.134c0.27,0,0.519,0.021,0.747,0.062
			s0.425,0.085,0.589,0.132L800.546-329.932z"/>
		<path fill="#FFFFFF" d="M802.356-321.477c0-2.789,0.771-5.068,2.312-6.838s3.542-2.654,6.003-2.654
			c2.473,0,4.479,0.885,6.021,2.654s2.312,4.049,2.312,6.838v0.738c0,2.801-0.771,5.086-2.312,6.855s-3.536,2.654-5.985,2.654
			c-2.473,0-4.482-0.885-6.029-2.654s-2.32-4.055-2.32-6.855V-321.477z M803.306-320.739c0,2.391,0.668,4.415,2.004,6.073
			s3.135,2.487,5.396,2.487c2.227,0,4.008-0.832,5.344-2.496s2.004-3.686,2.004-6.064v-0.738c0-2.332-0.674-4.339-2.021-6.021
			s-3.135-2.522-5.361-2.522c-2.238,0-4.025,0.841-5.361,2.522s-2.004,3.688-2.004,6.021V-320.739z"/>
		<path fill="#FFFFFF" d="M824.224-330.618l0.123,3.832c0.586-1.324,1.412-2.353,2.479-3.085s2.367-1.099,3.902-1.099
			c1.617,0,2.936,0.407,3.955,1.222s1.729,2.077,2.127,3.788c0.527-1.582,1.356-2.815,2.487-3.7s2.54-1.327,4.228-1.327
			c2.098,0,3.691,0.686,4.781,2.057s1.635,3.527,1.635,6.469v10.846h-0.967v-10.881c0-2.754-0.492-4.699-1.477-5.836
			s-2.297-1.705-3.938-1.705c-1.957,0-3.448,0.574-4.474,1.723s-1.685,2.637-1.978,4.465c0.012,0.234,0.023,0.472,0.035,0.712
			s0.018,0.483,0.018,0.729v10.811h-0.967v-9.738h-0.053c0-0.223,0.003-0.445,0.009-0.668s0.021-0.439,0.044-0.65
			c-0.035-2.695-0.539-4.597-1.512-5.704s-2.279-1.661-3.92-1.661c-1.934,0-3.407,0.56-4.421,1.679s-1.673,2.569-1.978,4.351v12.393
			h-0.967v-9.738h-0.035c0-0.164,0.003-0.328,0.009-0.492s0.015-0.369,0.026-0.615v-8.174H824.224z"/>
		<path fill="#FFFFFF" d="M880.052-317.627c0-1.465-0.601-2.646-1.802-3.542s-3.249-1.819-6.144-2.769
			c-2.883-0.879-5.007-1.811-6.372-2.795s-2.048-2.443-2.048-4.377c0-1.922,0.8-3.478,2.399-4.667s3.63-1.784,6.091-1.784
			c2.555,0,4.608,0.656,6.161,1.969s2.306,3.146,2.259,5.502l-0.035,0.105h-0.809c0-1.91-0.703-3.492-2.109-4.746
			s-3.229-1.881-5.467-1.881c-2.309,0-4.143,0.542-5.502,1.626s-2.039,2.364-2.039,3.841s0.548,2.675,1.644,3.595
			s3.138,1.819,6.126,2.698c2.906,0.914,5.068,1.863,6.486,2.848s2.127,2.432,2.127,4.342c0,1.945-0.838,3.504-2.514,4.676
			s-3.744,1.758-6.205,1.758c-2.566,0-4.775-0.601-6.627-1.802s-2.748-3.091-2.689-5.669l0.035-0.105h0.791
			c0,2.32,0.855,4.005,2.566,5.054s3.686,1.573,5.924,1.573s4.09-0.519,5.555-1.556S880.052-316.069,880.052-317.627z"/>
		<path fill="#FFFFFF" d="M887.118-336.594h-0.949v-2.426h0.949V-336.594z M887.118-311.598h-0.949v-19.02h0.949V-311.598z"/>
		<path fill="#FFFFFF" d="M899.81-312.178c1.605,0,3.023-0.439,4.254-1.318s1.846-2.197,1.846-3.955h0.809l0.035,0.105
			c0.047,1.863-0.636,3.349-2.048,4.456s-3.044,1.661-4.896,1.661c-2.426,0-4.327-0.873-5.704-2.619s-2.065-4.043-2.065-6.891
			v-0.738c0-2.836,0.686-5.127,2.057-6.873s3.264-2.619,5.678-2.619c1.969,0,3.636,0.577,5.001,1.731s2.024,2.78,1.978,4.878
			l-0.035,0.105h-0.809c0-1.863-0.598-3.29-1.793-4.28s-2.643-1.485-4.342-1.485c-2.227,0-3.914,0.797-5.062,2.391
			s-1.723,3.645-1.723,6.152v0.738c0,2.531,0.574,4.591,1.723,6.179S897.56-312.178,899.81-312.178z"/>
		<path fill="#FFFFFF" d="M912.571-326.663c0.598-1.359,1.465-2.417,2.602-3.173s2.52-1.134,4.148-1.134
			c1.98,0,3.483,0.627,4.509,1.881s1.538,3.229,1.538,5.924v11.566h-0.967V-323.2c0-2.496-0.46-4.257-1.38-5.282
			s-2.147-1.538-3.683-1.538c-2.016,0-3.571,0.592-4.667,1.775s-1.796,2.701-2.101,4.553v12.094h-0.949v-9.738h-0.035
			c0-0.246,0-0.451,0-0.615s0.012-0.328,0.035-0.492v-16.576h0.949V-326.663z"/>
		<path fill="#FFFFFF" d="M944.071-314.938c-0.598,1.172-1.447,2.083-2.549,2.733s-2.438,0.976-4.008,0.976
			c-1.957,0-3.489-0.694-4.597-2.083s-1.661-3.542-1.661-6.46v-10.846h0.949v10.881c0,2.578,0.475,4.482,1.424,5.713
			s2.232,1.846,3.85,1.846c1.934,0,3.431-0.472,4.491-1.415s1.749-2.188,2.065-3.735v-13.289h0.967v11.197h0.035
			c0,0.152-0.006,0.299-0.018,0.439s-0.018,0.305-0.018,0.492v6.891h-0.791L944.071-314.938z"/>
		<path fill="#FFFFFF" d="M962.968-315.114c-0.656,1.148-1.635,2.083-2.936,2.804s-2.877,1.081-4.729,1.081
			c-1.77,0-3.158-0.483-4.166-1.45s-1.512-2.271-1.512-3.911c0-1.594,0.753-2.93,2.259-4.008s3.39-1.617,5.651-1.617h5.432v-2.777
			c0-1.582-0.507-2.815-1.521-3.7s-2.44-1.327-4.28-1.327c-1.723,0-3.108,0.416-4.157,1.248s-1.573,1.904-1.573,3.217l-0.791-0.035
			l-0.035-0.088c-0.07-1.477,0.504-2.728,1.723-3.753s2.83-1.538,4.834-1.538c2.039,0,3.674,0.516,4.904,1.547
			s1.846,2.52,1.846,4.465v9.527c0,0.668,0.038,1.318,0.114,1.951s0.202,1.26,0.378,1.881h-1.055
			c-0.152-0.832-0.255-1.456-0.308-1.872s-0.079-0.864-0.079-1.345V-315.114z M955.304-312.161c1.887,0,3.483-0.416,4.79-1.248
			s2.265-2.021,2.874-3.568v-4.271h-5.379c-1.969,0-3.63,0.454-4.983,1.362s-2.03,2.03-2.03,3.366c0,1.277,0.431,2.323,1.292,3.138
			S953.874-312.161,955.304-312.161z"/>
		<path fill="#FFFFFF" d="M970.843-330.618l0.123,3.832c0.586-1.324,1.43-2.353,2.531-3.085s2.455-1.099,4.061-1.099
			c2.074,0,3.63,0.653,4.667,1.96s1.556,3.378,1.556,6.214v11.197h-0.949v-11.232c0-2.637-0.472-4.494-1.415-5.572
			s-2.224-1.617-3.841-1.617c-1.992,0-3.516,0.58-4.57,1.74s-1.729,2.654-2.021,4.482v12.199h-0.949v-9.738h-0.053
			c0-0.223,0.003-0.448,0.009-0.677s0.021-0.46,0.044-0.694v-7.91H970.843z"/>
	</g>
</g>
<g id="text1" enable-background="new    ">
	<path fill="#FFFFFF" d="M522.671-311.645h-0.949v-25.594h0.949V-311.645z"/>
	<path fill="#FFFFFF" d="M530.722-330.664l0.123,3.832c0.586-1.324,1.43-2.353,2.531-3.085s2.455-1.099,4.061-1.099
		c2.074,0,3.63,0.653,4.667,1.96s1.556,3.378,1.556,6.214v11.197h-0.949v-11.232c0-2.637-0.472-4.494-1.415-5.572
		s-2.224-1.617-3.841-1.617c-1.992,0-3.516,0.58-4.57,1.74s-1.729,2.654-2.021,4.482v12.199h-0.949v-9.738h-0.053
		c0-0.223,0.003-0.448,0.009-0.677s0.021-0.46,0.044-0.694v-7.91H530.722z"/>
	<path fill="#FFFFFF" d="M573.261-311.645h-15.311v-0.949l8.736-10.055c1.559-1.805,2.654-3.313,3.287-4.526s0.949-2.399,0.949-3.56
		c0-1.898-0.48-3.36-1.441-4.386s-2.443-1.538-4.447-1.538c-2.098,0-3.721,0.615-4.869,1.846s-1.723,2.824-1.723,4.781h-0.809
		l-0.035-0.105c-0.059-2.074,0.595-3.838,1.96-5.291s3.19-2.18,5.476-2.18c2.098,0,3.765,0.598,5.001,1.793s1.854,2.889,1.854,5.08
		c0,1.418-0.46,2.865-1.38,4.342s-2.218,3.193-3.894,5.15l-7.33,8.561l0.035,0.088h13.939V-311.645z"/>
	<path fill="#FFFFFF" d="M592.562-320.68c0,2.941-0.68,5.244-2.039,6.908s-3.27,2.496-5.73,2.496c-2.449,0-4.365-0.835-5.748-2.505
		s-2.074-3.97-2.074-6.899v-7.523c0-2.93,0.683-5.229,2.048-6.899s3.278-2.505,5.739-2.505c2.449,0,4.362,0.835,5.739,2.505
		s2.065,3.97,2.065,6.899V-320.68z M591.613-328.203c0-2.578-0.592-4.632-1.775-6.161s-2.877-2.294-5.08-2.294
		c-2.215,0-3.908,0.765-5.08,2.294s-1.758,3.583-1.758,6.161v7.488c0,2.543,0.595,4.594,1.784,6.152s2.886,2.338,5.089,2.338
		c2.191,0,3.876-0.776,5.054-2.329s1.767-3.606,1.767-6.161V-328.203z"/>
	<path fill="#FFFFFF" d="M605.447-311.645h-0.949v-25.049l-6.469,1.371v-0.809l7.418-1.477V-311.645z"/>
	<path fill="#FFFFFF" d="M625.099-337.607c0.914,0,1.822,0.097,2.725,0.29s1.723,0.507,2.461,0.94l-0.369,0.896
		c-0.762-0.434-1.503-0.738-2.224-0.914s-1.585-0.264-2.593-0.264c-1.945,0-3.571,0.741-4.878,2.224s-1.96,3.448-1.96,5.897v5.256
		c0.574-1.289,1.485-2.358,2.733-3.208s2.681-1.274,4.298-1.274c2.32,0,4.104,0.741,5.353,2.224s1.872,3.536,1.872,6.161
		c0,2.391-0.706,4.339-2.118,5.845s-3.231,2.259-5.458,2.259s-4.055-0.853-5.484-2.558s-2.145-3.976-2.145-6.812v-7.875
		c0-2.672,0.744-4.854,2.232-6.548S622.884-337.607,625.099-337.607z M618.261-320.715v0.053c0,2.531,0.621,4.573,1.863,6.126
		s2.848,2.329,4.816,2.329c1.98,0,3.58-0.686,4.799-2.057s1.828-3.076,1.828-5.115c0-2.414-0.527-4.257-1.582-5.528
		s-2.66-1.907-4.816-1.907c-1.805,0-3.404,0.604-4.799,1.811s-2.092,2.637-2.092,4.289H618.261z"/>
	<path fill="#FFFFFF" d="M647.81-311.645h-0.949v-25.594h0.949V-311.645z"/>
	<path fill="#FFFFFF" d="M664.333-330.664l0.123,3.832c0.586-1.324,1.412-2.353,2.479-3.085s2.367-1.099,3.902-1.099
		c1.617,0,2.936,0.407,3.955,1.222s1.729,2.077,2.127,3.788c0.527-1.582,1.356-2.815,2.487-3.7s2.54-1.327,4.228-1.327
		c2.098,0,3.691,0.686,4.781,2.057s1.635,3.527,1.635,6.469v10.846h-0.967v-10.881c0-2.754-0.492-4.699-1.477-5.836
		s-2.297-1.705-3.938-1.705c-1.957,0-3.448,0.574-4.474,1.723s-1.685,2.637-1.978,4.465c0.012,0.234,0.023,0.472,0.035,0.712
		s0.018,0.483,0.018,0.729v10.811h-0.967v-9.738h-0.053c0-0.223,0.003-0.445,0.009-0.668s0.021-0.439,0.044-0.65
		c-0.035-2.695-0.539-4.597-1.512-5.704s-2.279-1.661-3.92-1.661c-1.934,0-3.407,0.56-4.421,1.679s-1.673,2.569-1.978,4.351v12.393
		h-0.967v-9.738h-0.035c0-0.164,0.003-0.328,0.009-0.492s0.015-0.369,0.026-0.615v-8.174H664.333z"/>
	<path fill="#FFFFFF" d="M694.445-321.523c0-2.789,0.771-5.068,2.312-6.838s3.542-2.654,6.003-2.654
		c2.473,0,4.479,0.885,6.021,2.654s2.312,4.049,2.312,6.838v0.738c0,2.801-0.771,5.086-2.312,6.855s-3.536,2.654-5.985,2.654
		c-2.473,0-4.482-0.885-6.029-2.654s-2.32-4.055-2.32-6.855V-321.523z M695.394-320.785c0,2.391,0.668,4.415,2.004,6.073
		s3.135,2.487,5.396,2.487c2.227,0,4.008-0.832,5.344-2.496s2.004-3.686,2.004-6.064v-0.738c0-2.332-0.674-4.339-2.021-6.021
		s-3.135-2.522-5.361-2.522c-2.238,0-4.025,0.841-5.361,2.522s-2.004,3.688-2.004,6.021V-320.785z"/>
	<path fill="#FFFFFF" d="M720.003-315.67l0.896,2.566h0.105l0.914-2.566l5.854-14.994h1.02l-7.4,19.002l0.018,0.018h-0.914
		l-7.383-19.02h1.02L720.003-315.67z"/>
	<path fill="#FFFFFF" d="M739.005-311.275c-2.238,0-4.128-0.867-5.669-2.602s-2.312-3.92-2.312-6.557v-1.125
		c0-2.754,0.765-5.019,2.294-6.794s3.454-2.663,5.774-2.663c2.109,0,3.791,0.694,5.045,2.083s1.881,3.284,1.881,5.687v1.459h-14.045
		v0.229v1.125c0,2.32,0.656,4.269,1.969,5.845s3,2.364,5.062,2.364c1.137,0,2.229-0.211,3.278-0.633s1.901-0.984,2.558-1.688
		l0.51,0.738c-0.668,0.738-1.529,1.345-2.584,1.819S740.458-311.275,739.005-311.275z M739.093-330.066
		c-1.969,0-3.583,0.683-4.843,2.048s-1.972,3.091-2.136,5.177l0.053,0.105h12.902v-0.58c0-1.957-0.533-3.571-1.6-4.843
		S740.945-330.066,739.093-330.066z"/>
	<path fill="#FFFFFF" d="M749.728-321.172c0-3.012,0.633-5.405,1.898-7.181s3.023-2.663,5.273-2.663
		c1.477,0,2.757,0.331,3.841,0.993s1.948,1.567,2.593,2.716v-11.76h0.949v14.256c0,0.023,0,0.041,0,0.053s0.006,0.018,0.018,0.018
		v7.752c-0.012,0.023-0.018,0.041-0.018,0.053s0,0.023,0,0.035v5.256h-0.914l-0.035-2.936c-0.633,1.02-1.5,1.825-2.602,2.417
		s-2.391,0.888-3.867,0.888c-2.238,0-3.987-0.855-5.247-2.566s-1.89-4.031-1.89-6.961V-321.172z M750.712-320.803
		c0,2.625,0.519,4.711,1.556,6.258s2.563,2.32,4.579,2.32c1.652,0,3.023-0.372,4.113-1.116s1.881-1.737,2.373-2.979v-9
		c-0.469-1.348-1.21-2.476-2.224-3.384s-2.423-1.362-4.228-1.362c-2.016,0-3.548,0.823-4.597,2.47s-1.573,3.788-1.573,6.425
		V-320.803z"/>
</g>
<g id="planebig">
	<g>
		<path fill="#FFFEF0" d="M-2357.649-434.127c15.188,0.183,36.477,2.867,36.477,2.867s-21.288,2.684-36.477,2.928
			c-15.188,0.183-27.815-2.928-27.815-2.928S-2372.837-434.31-2357.649-434.127z"/>
		<g>
			<g>
				<g>
					<path fill="#C8C6BC" d="M-2385.464-431.199l145.784,106.196c0,0,8.357,2.196,21.349,4.941l-155.299-111.137H-2385.464
						L-2385.464-431.199z"/>
					<path fill="#FFFEF0" d="M-2218.331-320.062c20.434,4.209,52.275,9.699,80.699,9.699c37.086,0,121.263-12.382,121.263-12.382
						l-305.902-108.392h-51.36L-2218.331-320.062z"/>
				</g>
			</g>
		</g>
		<path opacity="0.4" fill="#BCBAD0" enable-background="new    " d="M-2385.464-431.199c0,0,12.626-3.111,27.815-2.867
			c15.188,0.183,36.477,2.867,36.477,2.867s-0.305,0.061-0.915,0.122l305.719,108.331c0,0-84.115,12.382-121.202,12.382
			c-28.547,0-60.387-5.429-80.76-9.699c-12.992-2.684-21.349-4.941-21.349-4.941L-2385.464-431.199h0.122
			C-2385.402-431.199-2385.464-431.199-2385.464-431.199z"/>
	</g>
	<g>
		<g>
			<g>
				<path fill="#C8C6BC" d="M-1331.002-346.535l238.012,173.354c0,0,13.663,3.599,34.891,7.991l-253.505-181.284L-1331.002-346.535
					L-1331.002-346.535z"/>
				<path fill="#FFFEF0" d="M-1058.1-165.19c33.366,6.893,85.274,15.798,131.815,15.798c60.57,0,197.875-20.251,197.875-20.251
					l-499.446-176.953h-83.81L-1058.1-165.19z"/>
			</g>
		</g>
		<polygon opacity="0.4" fill="#BCBAD0" enable-background="new    " points="-968.129,-254.734 -1246.765,-285.171 
			-1206.019,-254.734 		"/>
	</g>
	<g>
		<path id="carlinga_1_" fill="#FFFEF0" d="M-2157.638-458.648l89.788,122.788l324.506,81.126h1189.875
			c0,0,267.046-14.639,349.759,40.563l29.279,27.022c0,0,81.248,30.743,92.289,60.875c0.854,2.257,1.281,4.514,1.281,6.771
			c-0.427,32.817-85.64,108.148-472.668,108.148h-973.518c-72.282,0-172.806-20.434-282.967-48.859
			c-257.958-66.731-553.673-178.173-553.673-178.173v-57.947l58.436-14.212l-38.733-148.041L-2157.638-458.648L-2157.638-458.648z"
			/>
		<polygon fill="#FFFEF0" points="-2396.748,-660.366 -2305.13,-660.366 -2215.281,-537.517 -2364.542,-537.517 		"/>
		<g>
			<polygon fill="#FFFEF0" points="-2317.269,-458.648 -2343.924,-458.648 -2364.542,-537.517 -2341.667,-537.517 			"/>
			<polygon fill="#8CC152" points="-2215.281,-537.517 -2157.638,-458.648 -2317.269,-458.648 -2341.667,-537.517 			"/>
		</g>
	</g>
	<g>
		<polygon fill="#C8C6BC" points="-2107.682,-273.948 -2200.52,-179.585 -2286.709,-210.084 		"/>
		<g>
			<path fill="#C8C6BC" d="M-2454.696-172.021l137.061-99.853c0,0,7.869-2.135,20.068-4.636l-145.967,104.427L-2454.696-172.021
				L-2454.696-172.021z"/>
			<path fill="#FFFEF0" d="M-2297.627-276.449c19.275-3.965,49.164-9.089,75.942-9.089c34.89,0,113.943,11.651,113.943,11.651
				l-260.52,101.866h-75.332L-2297.627-276.449z"/>
		</g>
	</g>
	<g>
		<polygon fill="#8CC152" points="-2272.009,-336.653 -2278.474,-334.64 -2379.486,-659.085 -2373.081,-661.098 		"/>
	</g>
	<g>
		<g>
			<path fill="#00ADEF" d="M-1601.404-130.787l1078.677-22.935l43.552,56.728h-1122.229c-166.95,0-288.03-4.087-373.609-9.028
				c-50.628-15.371-99.914-31.292-145.54-46.419C-2064.008-145.244-1911.636-130.787-1601.404-130.787z"/>
		</g>
		<g>
			<path fill="#DA4453" d="M-1601.404-85.344h900.26l-16.896,16.896h-883.364c-102.232,0-187.201-1.525-257.348-3.843
				c-23.24-6.344-46.541-12.992-69.72-19.763C-1847.223-88.211-1740.05-85.344-1601.404-85.344z"/>
		</g>
	</g>
	<path fill="#E4E2D6" d="M-82.082-126.273c0.854,2.257,1.281,4.514,1.281,6.771c-0.427,32.817-85.64,108.148-472.668,108.148
		h-973.518c-182.565,0-593.504-141.087-593.504-141.087s192.02,82.102,776.069,82.102
		C-133.258-70.339-84.338-125.724-82.082-126.273z"/>
	<g>
		<g>
			<path fill="#EDEDE6" d="M-796.361,15.363c-162.009,22.813-233.986-1.83-278.27-13.541v-81.126
				c44.223-11.711,116.261-36.354,278.27-13.541V15.363z"/>
			<polygon fill="#C8C6BC" points="-778.915,-79.305 -778.915,-65.764 -778.915,1.821 -796.361,15.363 -796.361,-65.764 
				-796.361,-92.786 			"/>
			<g>
				<polygon fill="#EDEDE6" points="-1074.569,-4.34 -1092.015,-8.67 -1092.015,-68.814 -1074.569,-73.084 				"/>
				<g>
					<polygon fill="#EDEDE6" points="-1092.015,-17.271 -1144.167,-30.142 -1144.167,-47.343 -1092.015,-60.213 					"/>
				</g>
			</g>
			<g>
				<path fill="#C8C6BC" d="M-1078.9-79.305c38.611-10.187,98.45-30.255,220.566-20.068L-979.597,21.95
					c-46.175-4.636-76.43-14.09-99.243-20.129v-81.126H-1078.9z"/>
			</g>
		</g>
		<g>
			<path fill="#C8C6BC" d="M-1460.866,76.543l238.012-173.415c0,0,13.663-3.599,34.769-7.991l-253.505,181.406H-1460.866
				L-1460.866,76.543z"/>
			<path fill="#FFFEF0" d="M-1188.025-104.863c33.365-6.893,85.335-15.798,131.815-15.798c60.57,0,197.875,20.19,197.875,20.19
				L-1310.69,76.543h-130.839L-1188.025-104.863z"/>
		</g>
	</g>
	<g>
		<path fill="#00ADEF" d="M-203.771-214.171h-79.358c0,0-5.734,27.022,108.636,27.022L-203.771-214.171L-203.771-214.171z"/>
		<g>
			<g>
				<path fill="#00ADEF" d="M-1753.531-187.149c0,3.721,3.05,6.771,6.771,6.771h6.771c3.721,0,6.771-3.05,6.771-6.771v-13.541
					c0-3.782-2.989-6.771-6.771-6.771h-6.771c-3.721,0-6.771,2.989-6.771,6.771V-187.149z"/>
			</g>
			<g>
				<path fill="#00ADEF" d="M-1699.426-187.149c0,3.721,3.05,6.771,6.771,6.771h6.771c3.721,0,6.771-3.05,6.771-6.771v-13.541
					c0-3.782-2.989-6.771-6.771-6.771h-6.771c-3.721,0-6.771,2.989-6.771,6.771V-187.149z"/>
			</g>
			<g>
				<path fill="#00ADEF" d="M-1645.322-187.149c0,3.721,3.05,6.771,6.771,6.771h6.771c3.721,0,6.771-3.05,6.771-6.771v-13.541
					c0-3.782-2.989-6.771-6.771-6.771h-6.771c-3.721,0-6.771,2.989-6.771,6.771V-187.149z"/>
			</g>
			<g>
				<path fill="#00ADEF" d="M-1591.278-187.149c0,3.721,3.05,6.771,6.771,6.771h6.771c3.721,0,6.771-3.05,6.771-6.771v-13.541
					c0-3.782-2.989-6.771-6.771-6.771h-6.771c-3.721,0-6.771,2.989-6.771,6.771V-187.149z"/>
			</g>
			<g>
				<path fill="#00ADEF" d="M-1537.173-187.149c0,3.721,3.05,6.771,6.771,6.771h6.771c3.721,0,6.771-3.05,6.771-6.771v-13.541
					c0-3.782-2.989-6.771-6.771-6.771h-6.771c-3.721,0-6.771,2.989-6.771,6.771V-187.149z"/>
			</g>
			<g>
				<path fill="#00ADEF" d="M-1483.069-187.149c0,3.721,3.05,6.771,6.771,6.771h6.771c3.721,0,6.771-3.05,6.771-6.771v-13.541
					c0-3.782-2.989-6.771-6.771-6.771h-6.771c-3.721,0-6.771,2.989-6.771,6.771V-187.149z"/>
			</g>
			<g>
				<path fill="#00ADEF" d="M-1429.025-187.149c0,3.721,3.05,6.771,6.771,6.771h6.771c3.721,0,6.771-3.05,6.771-6.771v-13.541
					c0-3.782-2.989-6.771-6.771-6.771h-6.771c-3.721,0-6.771,2.989-6.771,6.771V-187.149z"/>
			</g>
			<g>
				<path fill="#00ADEF" d="M-1374.92-187.149c0,3.721,3.05,6.771,6.771,6.771h6.771c3.721,0,6.771-3.05,6.771-6.771v-13.541
					c0-3.782-2.989-6.771-6.771-6.771h-6.771c-3.721,0-6.771,2.989-6.771,6.771V-187.149z"/>
			</g>
			<g>
				<path fill="#00ADEF" d="M-1320.816-187.149c0,3.721,3.05,6.771,6.771,6.771h6.771c3.721,0,6.771-3.05,6.771-6.771v-13.541
					c0-3.782-2.989-6.771-6.771-6.771h-6.771c-3.721,0-6.771,2.989-6.771,6.771V-187.149z"/>
			</g>
			<g>
				<path fill="#00ADEF" d="M-1266.772-187.149c0,3.721,3.05,6.771,6.771,6.771h6.771c3.721,0,6.771-3.05,6.771-6.771v-13.541
					c0-3.782-2.989-6.771-6.771-6.771h-6.771c-3.721,0-6.771,2.989-6.771,6.771V-187.149z"/>
			</g>
			<g>
				<path fill="#00ADEF" d="M-1212.667-187.149c0,3.721,3.05,6.771,6.771,6.771h6.771c3.721,0,6.771-3.05,6.771-6.771v-13.541
					c0-3.782-2.989-6.771-6.771-6.771h-6.771c-3.721,0-6.771,2.989-6.771,6.771V-187.149z"/>
			</g>
			<g>
				<path fill="#00ADEF" d="M-1158.563-187.149c0,3.721,3.05,6.771,6.771,6.771h6.771c3.721,0,6.771-3.05,6.771-6.771v-13.541
					c0-3.782-2.989-6.771-6.771-6.771h-6.771c-3.721,0-6.771,2.989-6.771,6.771V-187.149z"/>
			</g>
			<g>
				<path fill="#00ADEF" d="M-1104.519-187.149c0,3.721,3.05,6.771,6.771,6.771h6.771c3.721,0,6.771-3.05,6.771-6.771v-13.541
					c0-3.782-2.989-6.771-6.771-6.771h-6.771c-3.721,0-6.771,2.989-6.771,6.771V-187.149z"/>
			</g>
			<g>
				<path fill="#00ADEF" d="M-1050.415-187.149c0,3.721,3.05,6.771,6.771,6.771h6.771c3.782,0,6.771-3.05,6.771-6.771v-13.541
					c0-3.782-2.989-6.771-6.771-6.771h-6.771c-3.721,0-6.771,2.989-6.771,6.771V-187.149z"/>
			</g>
			<g>
				<path fill="#00ADEF" d="M-996.31-187.149c0,3.721,3.05,6.771,6.771,6.771h6.771c3.721,0,6.771-3.05,6.771-6.771v-13.541
					c0-3.782-2.989-6.771-6.771-6.771h-6.771c-3.721,0-6.771,2.989-6.771,6.771V-187.149z"/>
			</g>
			<g>
				<path fill="#00ADEF" d="M-942.266-187.149c0,3.721,3.05,6.771,6.771,6.771h6.771c3.721,0,6.771-3.05,6.771-6.771v-13.541
					c0-3.782-2.989-6.771-6.771-6.771h-6.771c-3.721,0-6.771,2.989-6.771,6.771V-187.149z"/>
			</g>
			<g>
				<path fill="#00ADEF" d="M-888.162-187.149c0,3.721,3.05,6.771,6.771,6.771h6.771c3.721,0,6.771-3.05,6.771-6.771v-13.541
					c0-3.782-2.989-6.771-6.771-6.771h-6.771c-3.721,0-6.771,2.989-6.771,6.771V-187.149z"/>
			</g>
			<g>
				<path fill="#00ADEF" d="M-834.057-187.149c0,3.721,3.05,6.771,6.771,6.771h6.771c3.721,0,6.771-3.05,6.771-6.771v-13.541
					c0-3.782-2.989-6.771-6.771-6.771h-6.771c-3.721,0-6.771,2.989-6.771,6.771V-187.149z"/>
			</g>
			<g>
				<path fill="#00ADEF" d="M-780.013-187.149c0,3.721,3.05,6.771,6.771,6.771h6.771c3.721,0,6.771-3.05,6.771-6.771v-13.541
					c0-3.782-2.989-6.771-6.771-6.771h-6.771c-3.721,0-6.771,2.989-6.771,6.771V-187.149z"/>
			</g>
			<g>
				<path fill="#00ADEF" d="M-725.909-187.149c0,3.721,3.05,6.771,6.771,6.771h6.771c3.721,0,6.771-3.05,6.771-6.771v-13.541
					c0-3.782-2.989-6.771-6.771-6.771h-6.771c-3.721,0-6.771,2.989-6.771,6.771V-187.149z"/>
			</g>
			<g>
				<path fill="#00ADEF" d="M-671.804-187.149c0,3.721,3.05,6.771,6.771,6.771h6.771c3.721,0,6.771-3.05,6.771-6.771v-13.541
					c0-3.782-2.989-6.771-6.771-6.771h-6.771c-3.721,0-6.771,2.989-6.771,6.771V-187.149z"/>
			</g>
			<g>
				<path fill="#00ADEF" d="M-617.76-187.149c0,3.721,3.05,6.771,6.771,6.771h6.771c3.721,0,6.771-3.05,6.771-6.771v-13.541
					c0-3.782-2.989-6.771-6.771-6.771h-6.771c-3.721,0-6.771,2.989-6.771,6.771V-187.149z"/>
			</g>
			<g>
				<path fill="#00ADEF" d="M-563.656-187.149c0,3.721,3.05,6.771,6.771,6.771h6.771c3.721,0,6.771-3.05,6.771-6.771v-13.541
					c0-3.782-2.989-6.771-6.771-6.771h-6.771c-3.721,0-6.771,2.989-6.771,6.771V-187.149z"/>
			</g>
			<g>
				<path fill="#00ADEF" d="M-509.551-187.149c0,3.721,3.05,6.771,6.771,6.771h6.771c3.721,0,6.771-3.05,6.771-6.771v-13.541
					c0-3.782-2.989-6.771-6.771-6.771h-6.771c-3.721,0-6.771,2.989-6.771,6.771V-187.149z"/>
			</g>
		</g>
	</g>
	<path fill="#FFFEF0" d="M-1395.903,69.772c35.5,0.427,85.213,6.771,85.213,6.771s-49.713,6.283-85.213,6.771
		c-35.5,0.427-64.962-6.771-64.962-6.771S-1431.404,69.284-1395.903,69.772z"/>
	<path fill="#FFFEF0" d="M-2417.182-175.986c20.495,0.305,49.286,3.904,49.286,3.904s-28.791,3.599-49.286,3.904
		c-20.495,0.305-37.574-3.904-37.574-3.904S-2437.677-176.291-2417.182-175.986z"/>
	<polygon fill="#FFFEF0" points="-221.704,-218.318 -205.54,-186.295 -211.64,-183.245 -227.804,-215.268 	"/>
	<polygon fill="#FFFEF0" points="-247.445,-218.562 -243.359,-190.321 -250.068,-189.345 -254.155,-217.586 	"/>
	<path fill="#E4E2D6" d="M-355.35-160.493c1.891,0,3.355,1.525,3.355,3.355c0,1.891-1.525,3.355-3.355,3.355
		c-1.891,0-3.355-1.525-3.355-3.355S-357.18-160.493-355.35-160.493z"/>
	<path fill="#E4E2D6" d="M-1821.726-160.493c1.891,0,3.355,1.525,3.355,3.355c0,1.891-1.525,3.355-3.355,3.355
		c-1.83,0-3.355-1.525-3.355-3.355C-1825.142-158.968-1823.617-160.493-1821.726-160.493z"/>
</g>
</svg>
